<svg xmlns="http://www.w3.org/2000/svg" width="30" height="30" viewBox="0 0 30 30"><g><g><g opacity=".3"><path fill="#363636" d="M3 0h24a3 3 0 0 1 3 3v24a3 3 0 0 1-3 3H3a3 3 0 0 1-3-3V3a3 3 0 0 1 3-3z"/></g><g><path d="M9.293 15.754l6.41 6.447a1.04 1.04 0 0 0 1.477 0 1.055 1.055 0 0 0 0-1.485l-5.672-5.704 5.672-5.704a1.055 1.055 0 0 0 0-1.485 1.04 1.04 0 0 0-1.476 0L9.293 14.27a1.052 1.052 0 0 0 0 1.485z"/><path fill="#464646" d="M9.293 15.754l6.41 6.447a1.04 1.04 0 0 0 1.477 0 1.055 1.055 0 0 0 0-1.485l-5.672-5.704 5.672-5.704a1.055 1.055 0 0 0 0-1.485 1.04 1.04 0 0 0-1.476 0L9.293 14.27a1.052 1.052 0 0 0 0 1.485z"/></g></g></g></svg>