<svg xmlns="http://www.w3.org/2000/svg" width="9" height="16" viewBox="0 0 9 16"><g><g><path d="M.293 8.754l6.41 6.447a1.04 1.04 0 0 0 1.477 0 1.055 1.055 0 0 0 0-1.485L2.508 8.012 8.18 2.308a1.055 1.055 0 0 0 0-1.485 1.04 1.04 0 0 0-1.476 0L.293 7.27a1.052 1.052 0 0 0 0 1.485z"/><path fill="#464646" d="M.293 8.754l6.41 6.447a1.04 1.04 0 0 0 1.477 0 1.055 1.055 0 0 0 0-1.485L2.508 8.012 8.18 2.308a1.055 1.055 0 0 0 0-1.485 1.04 1.04 0 0 0-1.476 0L.293 7.27a1.052 1.052 0 0 0 0 1.485z"/></g></g></svg>