<svg xmlns="http://www.w3.org/2000/svg" width="22" height="16"><path d="M16.999 8.905a3.264 3.264 0 01-3.258 3.263 3.265 3.265 0 01-3.26-3.263c0-1.8 1.463-3.262 3.26-3.262a3.263 3.263 0 013.258 3.262zm4.99-4.33v8.506a2.914 2.914 0 01-2.908 2.913H2.919A2.915 2.915 0 01.01 13.08V4.576a2.914 2.914 0 012.653-2.901c.13-.556.492-.935.924-.935h2.097c.43 0 .789.374.922.922H9.57l1.437-1.66h4.911l1.77 1.66h1.393a2.914 2.914 0 012.908 2.914zM2.641 6.514a.55.55 0 10-1.1 0v5.807a.55.55 0 001.1 0zM5.95 3.471a.58.58 0 00-.58-.58H3.878a.58.58 0 00-.58.58v.342c0 .32.26.58.58.58h1.49c.32 0 .581-.26.581-.58zm12.44 5.434a4.657 4.657 0 00-4.648-4.655 4.658 4.658 0 00-4.65 4.655 4.658 4.658 0 004.65 4.655 4.657 4.657 0 004.648-4.655z"/><path fill="#fff" d="M16.999 8.905a3.264 3.264 0 01-3.258 3.263 3.265 3.265 0 01-3.26-3.263c0-1.8 1.463-3.262 3.26-3.262a3.263 3.263 0 013.258 3.262zm4.99-4.33v8.506a2.914 2.914 0 01-2.908 2.913H2.919A2.915 2.915 0 01.01 13.08V4.576a2.914 2.914 0 012.653-2.901c.13-.556.492-.935.924-.935h2.097c.43 0 .789.374.922.922H9.57l1.437-1.66h4.911l1.77 1.66h1.393a2.914 2.914 0 012.908 2.914zM2.641 6.514a.55.55 0 10-1.1 0v5.807a.55.55 0 001.1 0zM5.95 3.471a.58.58 0 00-.58-.58H3.878a.58.58 0 00-.58.58v.342c0 .32.26.58.58.58h1.49c.32 0 .581-.26.581-.58zm12.44 5.434a4.657 4.657 0 00-4.648-4.655 4.658 4.658 0 00-4.65 4.655 4.658 4.658 0 004.65 4.655 4.657 4.657 0 004.648-4.655z"/></svg>