<svg xmlns="http://www.w3.org/2000/svg" width="29" height="40" viewBox="0 0 29 40"><g><g><path d="M24.214.398s-3.253 3.129-6.77 4.39C-8.602 14.134 2.383 32.342 2.741 32.402c0 0 1.46-2.522 3.434-3.961 12.52-9.128 15.064-19.636 15.064-19.636s-2.81 12.644-13.948 20.511c-2.46 1.737-4.125 6.013-4.83 10.286 0 0 1.743-.698 2.493-.887.293-1.893.904-3.705 1.938-5.324 15.567 1.838 20.665-10.602 21.331-14.94C29.794 8.203 24.213.397 24.213.397z"/><path fill="#636363" d="M24.214.398s-3.253 3.129-6.77 4.39C-8.602 14.134 2.383 32.342 2.741 32.402c0 0 1.46-2.522 3.434-3.961 12.52-9.128 15.064-19.636 15.064-19.636s-2.81 12.644-13.948 20.511c-2.46 1.737-4.125 6.013-4.83 10.286 0 0 1.743-.698 2.493-.887.293-1.893.904-3.705 1.938-5.324 15.567 1.838 20.665-10.602 21.331-14.94C29.794 8.203 24.213.397 24.213.397z"/></g></g></svg>