<svg xmlns="http://www.w3.org/2000/svg" width="42" height="40" viewBox="0 0 42 40"><g><g><path d="M41.549 20.03c0 2.124-2.372 3.849-2.997 5.765-.645 1.985.235 4.766-.97 6.418-1.219 1.669-4.15 1.687-5.823 2.902-1.657 1.202-2.574 3.985-4.564 4.63-1.92.622-4.292-1.072-6.421-1.072-2.13 0-4.5 1.694-6.421 1.072-1.99-.645-2.907-3.428-4.564-4.63-1.674-1.216-4.604-1.233-5.822-2.902-1.207-1.653-.327-4.434-.972-6.42C2.371 23.878 0 22.155 0 20.032c0-2.124 2.371-3.848 2.995-5.762.646-1.987-.234-4.767.972-6.42C5.184 6.18 8.114 6.164 9.787 4.948 11.445 3.744 12.361.962 14.352.318c1.92-.622 4.293 1.07 6.421 1.07 2.13 0 4.501-1.692 6.421-1.07 1.99.644 2.907 3.426 4.564 4.629C33.43 6.163 36.363 6.18 37.58 7.85c1.206 1.652.326 4.432.97 6.419.625 1.915 2.996 3.638 2.998 5.762zm-6.199 0c0-8.017-6.539-14.54-14.577-14.54S6.196 12.013 6.196 20.03c0 8.02 6.539 14.542 14.577 14.542S35.35 28.05 35.35 20.03zm-2.38 0c0 6.71-5.471 12.168-12.197 12.168-6.726 0-12.197-5.458-12.197-12.167S14.047 7.865 20.773 7.865c6.726 0 12.197 5.457 12.197 12.166zm-3.844-2.22a.737.737 0 0 0-.652-.506l-5.119-.33-1.898-4.754a.736.736 0 0 0-1.367 0l-1.897 4.754-5.119.33a.736.736 0 0 0-.652.506.73.73 0 0 0 .23.791l3.946 3.27-1.267 4.958a.732.732 0 0 0 .28.775.74.74 0 0 0 .826.027l4.336-2.734 4.337 2.734a.735.735 0 1 0 1.106-.802l-1.267-4.958 3.947-3.27a.736.736 0 0 0 .23-.79z"/><path fill="#e5493a" d="M41.549 20.03c0 2.124-2.372 3.849-2.997 5.765-.645 1.985.235 4.766-.97 6.418-1.219 1.669-4.15 1.687-5.823 2.902-1.657 1.202-2.574 3.985-4.564 4.63-1.92.622-4.292-1.072-6.421-1.072-2.13 0-4.5 1.694-6.421 1.072-1.99-.645-2.907-3.428-4.564-4.63-1.674-1.216-4.604-1.233-5.822-2.902-1.207-1.653-.327-4.434-.972-6.42C2.371 23.878 0 22.155 0 20.032c0-2.124 2.371-3.848 2.995-5.762.646-1.987-.234-4.767.972-6.42C5.184 6.18 8.114 6.164 9.787 4.948 11.445 3.744 12.361.962 14.352.318c1.92-.622 4.293 1.07 6.421 1.07 2.13 0 4.501-1.692 6.421-1.07 1.99.644 2.907 3.426 4.564 4.629C33.43 6.163 36.363 6.18 37.58 7.85c1.206 1.652.326 4.432.97 6.419.625 1.915 2.996 3.638 2.998 5.762zm-6.199 0c0-8.017-6.539-14.54-14.577-14.54S6.196 12.013 6.196 20.03c0 8.02 6.539 14.542 14.577 14.542S35.35 28.05 35.35 20.03zm-2.38 0c0 6.71-5.471 12.168-12.197 12.168-6.726 0-12.197-5.458-12.197-12.167S14.047 7.865 20.773 7.865c6.726 0 12.197 5.457 12.197 12.166zm-3.844-2.22a.737.737 0 0 0-.652-.506l-5.119-.33-1.898-4.754a.736.736 0 0 0-1.367 0l-1.897 4.754-5.119.33a.736.736 0 0 0-.652.506.73.73 0 0 0 .23.791l3.946 3.27-1.267 4.958a.732.732 0 0 0 .28.775.74.74 0 0 0 .826.027l4.336-2.734 4.337 2.734a.735.735 0 1 0 1.106-.802l-1.267-4.958 3.947-3.27a.736.736 0 0 0 .23-.79z"/></g></g></svg>