<svg xmlns="http://www.w3.org/2000/svg" width="21" height="16" viewBox="0 0 21 16"><g><g><path d="M18.525 11.088l-13.183-.003c.083-1.8 1.042-5.299 2.437-6.588 1.25-1.145 2.311-.143 3.145 1.023.77 1.085 1.44 2.043 2.006 2.646.93.914 1.725-.471 2.7-.927 1.422-.665 2.593 2.792 2.895 3.85zm-2.956-9.065c.895 0 1.62.713 1.62 1.592 0 .88-.725 1.592-1.62 1.592-.895 0-1.621-.713-1.621-1.592 0-.88.726-1.592 1.62-1.592zM20.992.455v12.202a.478.478 0 0 1-.482.473h-2.406v2.393a.478.478 0 0 1-.482.474H.469a.478.478 0 0 1-.482-.474V3.321c0-.261.216-.473.482-.473h2.407V.455c0-.262.215-.474.481-.474H20.51c.266 0 .482.212.482.474zM16.81 13.13h-1.438c.117.332.207.623.265.825L2.454 13.95c.03-.656.18-1.539.422-2.457V4.118H1.28v10.608h15.53zm2.888-11.878H4.168V11.86h15.53z"/><path fill="#fff" d="M18.525 11.088l-13.183-.003c.083-1.8 1.042-5.299 2.437-6.588 1.25-1.145 2.311-.143 3.145 1.023.77 1.085 1.44 2.043 2.006 2.646.93.914 1.725-.471 2.7-.927 1.422-.665 2.593 2.792 2.895 3.85zm-2.956-9.065c.895 0 1.62.713 1.62 1.592 0 .88-.725 1.592-1.62 1.592-.895 0-1.621-.713-1.621-1.592 0-.88.726-1.592 1.62-1.592zM20.992.455v12.202a.478.478 0 0 1-.482.473h-2.406v2.393a.478.478 0 0 1-.482.474H.469a.478.478 0 0 1-.482-.474V3.321c0-.261.216-.473.482-.473h2.407V.455c0-.262.215-.474.481-.474H20.51c.266 0 .482.212.482.474zM16.81 13.13h-1.438c.117.332.207.623.265.825L2.454 13.95c.03-.656.18-1.539.422-2.457V4.118H1.28v10.608h15.53zm2.888-11.878H4.168V11.86h15.53z"/></g></g></svg>