<svg xmlns="http://www.w3.org/2000/svg" width="18" height="20" viewBox="0 0 18 20"><g><g><path d="M-.003 18.726V1.273c0-.7.542-1.274 1.208-1.274h15.59c.664 0 1.207.574 1.207 1.274v17.453c0 .7-.543 1.274-1.207 1.274H1.205c-.666 0-1.208-.574-1.208-1.274zm15.06-15.939c0 .212.165.383.363.383h1.131c.2 0 .362-.171.362-.383v-1.23a.372.372 0 0 0-.362-.382H15.42a.373.373 0 0 0-.363.382zm0 3.131c0 .21.165.383.363.383h1.131c.2 0 .362-.172.362-.383v-1.23a.373.373 0 0 0-.362-.383H15.42a.374.374 0 0 0-.363.383zm0 3.133c0 .21.165.382.363.382h1.131c.2 0 .362-.173.362-.382V7.82c0-.21-.162-.383-.362-.383H15.42c-.198 0-.363.172-.363.383zm0 3.13c0 .212.165.383.363.383h1.131c.2 0 .362-.171.362-.383v-1.23c0-.212-.162-.384-.362-.384H15.42c-.198 0-.363.172-.363.383zm0 3.131c0 .21.165.381.363.381h1.131c.2 0 .362-.17.362-.38V14.08a.372.372 0 0 0-.362-.383H15.42a.374.374 0 0 0-.363.383zm0 3.132c0 .21.165.381.363.381h1.131c.2 0 .362-.172.362-.381V17.21a.372.372 0 0 0-.362-.382H15.42a.374.374 0 0 0-.363.382zM4.183 8.574c0 .21.163.383.363.383h8.908c.198 0 .362-.173.362-.383V2.481a.373.373 0 0 0-.362-.382H4.546c-.2 0-.363.17-.363.382zm0 8.936c0 .21.163.382.363.382h8.908c.198 0 .362-.172.362-.382v-5.633a.373.373 0 0 0-.362-.38H4.546c-.2 0-.363.17-.363.38zM1.086 2.787c0 .212.162.383.362.383H2.58a.373.373 0 0 0 .361-.383v-1.23a.372.372 0 0 0-.361-.382H1.448c-.2 0-.362.17-.362.382zm0 3.131c0 .21.162.383.362.383H2.58c.199 0 .361-.172.361-.383v-1.23c0-.212-.162-.383-.361-.383H1.448c-.2 0-.362.171-.362.383zm0 3.133c0 .21.162.382.362.382H2.58c.199 0 .361-.173.361-.382V7.82c0-.21-.162-.383-.361-.383H1.448c-.2 0-.362.172-.362.383zm0 3.13c0 .212.162.383.362.383H2.58c.199 0 .361-.171.361-.383v-1.23c0-.212-.162-.384-.361-.384H1.448c-.2 0-.362.172-.362.383zm0 3.131c0 .21.162.381.362.381H2.58a.372.372 0 0 0 .361-.38V14.08c0-.211-.162-.383-.361-.383H1.448c-.2 0-.362.172-.362.383zm0 3.132c0 .21.162.381.362.381H2.58c.199 0 .361-.172.361-.381V17.21a.373.373 0 0 0-.361-.382H1.448c-.2 0-.362.172-.362.382z"/><path fill="#fff" d="M-.003 18.726V1.273c0-.7.542-1.274 1.208-1.274h15.59c.664 0 1.207.574 1.207 1.274v17.453c0 .7-.543 1.274-1.207 1.274H1.205c-.666 0-1.208-.574-1.208-1.274zm15.06-15.939c0 .212.165.383.363.383h1.131c.2 0 .362-.171.362-.383v-1.23a.372.372 0 0 0-.362-.382H15.42a.373.373 0 0 0-.363.382zm0 3.131c0 .21.165.383.363.383h1.131c.2 0 .362-.172.362-.383v-1.23a.373.373 0 0 0-.362-.383H15.42a.374.374 0 0 0-.363.383zm0 3.133c0 .21.165.382.363.382h1.131c.2 0 .362-.173.362-.382V7.82c0-.21-.162-.383-.362-.383H15.42c-.198 0-.363.172-.363.383zm0 3.13c0 .212.165.383.363.383h1.131c.2 0 .362-.171.362-.383v-1.23c0-.212-.162-.384-.362-.384H15.42c-.198 0-.363.172-.363.383zm0 3.131c0 .21.165.381.363.381h1.131c.2 0 .362-.17.362-.38V14.08a.372.372 0 0 0-.362-.383H15.42a.374.374 0 0 0-.363.383zm0 3.132c0 .21.165.381.363.381h1.131c.2 0 .362-.172.362-.381V17.21a.372.372 0 0 0-.362-.382H15.42a.374.374 0 0 0-.363.382zM4.183 8.574c0 .21.163.383.363.383h8.908c.198 0 .362-.173.362-.383V2.481a.373.373 0 0 0-.362-.382H4.546c-.2 0-.363.17-.363.382zm0 8.936c0 .21.163.382.363.382h8.908c.198 0 .362-.172.362-.382v-5.633a.373.373 0 0 0-.362-.38H4.546c-.2 0-.363.17-.363.38zM1.086 2.787c0 .212.162.383.362.383H2.58a.373.373 0 0 0 .361-.383v-1.23a.372.372 0 0 0-.361-.382H1.448c-.2 0-.362.17-.362.382zm0 3.131c0 .21.162.383.362.383H2.58c.199 0 .361-.172.361-.383v-1.23c0-.212-.162-.383-.361-.383H1.448c-.2 0-.362.171-.362.383zm0 3.133c0 .21.162.382.362.382H2.58c.199 0 .361-.173.361-.382V7.82c0-.21-.162-.383-.361-.383H1.448c-.2 0-.362.172-.362.383zm0 3.13c0 .212.162.383.362.383H2.58c.199 0 .361-.171.361-.383v-1.23c0-.212-.162-.384-.361-.384H1.448c-.2 0-.362.172-.362.383zm0 3.131c0 .21.162.381.362.381H2.58a.372.372 0 0 0 .361-.38V14.08c0-.211-.162-.383-.361-.383H1.448c-.2 0-.362.172-.362.383zm0 3.132c0 .21.162.381.362.381H2.58c.199 0 .361-.172.361-.381V17.21a.373.373 0 0 0-.361-.382H1.448c-.2 0-.362.172-.362.382z"/></g></g></svg>