<?xml version="1.0" encoding="utf-8"?><svg xmlns="http://www.w3.org/2000/svg" xmlns:xlink="http://www.w3.org/1999/xlink"><symbol viewBox="0 0 54 42" id="icons--envelope-icon" xmlns="http://www.w3.org/2000/svg"><path d="M49 0H5a5 5 0 0 0-5 5v32a5 5 0 0 0 5 5h44a5 5 0 0 0 5-5V5a5 5 0 0 0-5-5zm3 37a3 3 0 0 1-3 3H5a3 3 0 0 1-3-3V5a3 3 0 0 1 3-3h44a3 3 0 0 1 3 3z"/><path d="M48.35 4.24l-19 16.39a3.79 3.79 0 0 1-4.74 0L5.65 4.24a1 1 0 0 0-1.3 1.52l19 16.38a5.79 5.79 0 0 0 7.36 0l19-16.38a1 1 0 0 0-1.3-1.52z"/></symbol><symbol viewBox="0 0 52 54" id="icons--map-icon" xmlns="http://www.w3.org/2000/svg"><path d="M25.25 41.67A1 1 0 0 0 26 42a.92.92 0 0 0 .75-.34c.35-.39 8.48-9.7 13-20a15 15 0 0 0 1.48-6.5 15.26 15.26 0 0 0-30.51 0 15 15 0 0 0 1.45 6.47C16.65 32 24.9 41.27 25.25 41.67zM26 2a13.22 13.22 0 0 1 13.2 13.17 13 13 0 0 1-1.3 5.67c-3.6 8.24-9.78 16.05-11.9 18.62-2.15-2.56-8.42-10.38-12-18.65a13 13 0 0 1-1.27-5.64A13.23 13.23 0 0 1 26 2z"/><path d="M26 22.23A7.24 7.24 0 1 0 18.71 15 7.24 7.24 0 0 0 26 22.23zm0-12.47A5.24 5.24 0 1 1 20.71 15 5.25 5.25 0 0 1 26 9.76zm26 42.99l-6-23a1 1 0 0 0-.6-.68l-5-2-.74 1.86 4.53 1.81 5.32 20.38-10-5a1 1 0 0 0-.87 0L26 51.9l-12.58-5.81a1 1 0 0 0-.87 0l-10 5 5.29-20.35 4.53-1.81-.74-1.86-5 2a1 1 0 0 0-.6.68l-6 23a1 1 0 0 0 .34 1 1 1 0 0 0 1.08.11L13 48.11l12.56 5.8a1 1 0 0 0 .84 0l12.6-5.8 11.57 5.78A.91.91 0 0 0 51 54a1 1 0 0 0 .63-.22 1 1 0 0 0 .37-1.03z"/></symbol><symbol viewBox="0 0 36 54" id="icons--phone-icon" xmlns="http://www.w3.org/2000/svg"><path d="M31 0H5a5 5 0 0 0-5 5v44a5 5 0 0 0 5 5h26a5 5 0 0 0 5-5V5a5 5 0 0 0-5-5zM2 9h32v31H2zm3-7h26a3 3 0 0 1 3 3v2H2V5a3 3 0 0 1 3-3zm26 50H5a3 3 0 0 1-3-3v-7h32v7a3 3 0 0 1-3 3z"/><path d="M20 46h-4a1 1 0 0 0 0 2h4a1 1 0 0 0 0-2z"/></symbol></svg>