<svg xmlns="http://www.w3.org/2000/svg" width="24" height="24" viewBox="0 0 24 24"><defs><style>.a{fill:none;stroke:#000;stroke-linecap:round;stroke-linejoin:round;stroke-width:2px;}</style></defs><title>chat</title><path class="a" d="M10.66,19a9,9,0,1,0-4.5-.83"/><path class="a" d="M6.16,18.14C8.05,20.72,5,23,5,23a5.44,5.44,0,0,0,5.66-4"/><path class="a" d="M17,20.33A5.37,5.37,0,0,1,13,18.46"/><path class="a" d="M19,9.77A5.5,5.5,0,0,1,19.85,20"/><path class="a" d="M17.1,20.54A3.32,3.32,0,0,0,20.56,23s-1.87-1.39-.71-3"/><line class="a" x1="6" y1="8" x2="14" y2="8"/><line class="a" x1="6" y1="12" x2="12" y2="12"/></svg>