<svg xmlns="http://www.w3.org/2000/svg" width="21.01" height="21.01" viewBox="0 0 21.01 21.01"><title>instagram</title><path d="M10.51,5.12a5.39,5.39,0,1,0,5.38,5.38A5.38,5.38,0,0,0,10.51,5.12Zm0,8.89A3.51,3.51,0,1,1,14,10.5,3.51,3.51,0,0,1,10.51,14ZM17.37,4.9a1.26,1.26,0,1,1-1.26-1.26A1.25,1.25,0,0,1,17.37,4.9Zm3.57,1.27a6.24,6.24,0,0,0-1.7-4.4,6.28,6.28,0,0,0-4.4-1.7C13.11,0,7.91,0,6.17.07a6.24,6.24,0,0,0-4.4,1.7,6.25,6.25,0,0,0-1.7,4.4C0,7.9,0,13.1.07,14.83a6.24,6.24,0,0,0,1.7,4.41,6.27,6.27,0,0,0,4.4,1.69c1.74.1,6.94.1,8.67,0a6.23,6.23,0,0,0,4.4-1.69,6.29,6.29,0,0,0,1.7-4.41C21,13.1,21,7.91,20.94,6.17ZM18.7,16.7a3.59,3.59,0,0,1-2,2c-1.38.55-4.66.42-6.19.42s-4.82.13-6.19-.42a3.53,3.53,0,0,1-2-2C1.77,15.31,1.9,12,1.9,10.5s-.12-4.81.42-6.19a3.52,3.52,0,0,1,2-2C5.7,1.77,9,1.89,10.51,1.89s4.81-.12,6.19.42a3.57,3.57,0,0,1,2,2c.55,1.38.42,4.67.42,6.19S19.25,15.32,18.7,16.7Z"/></svg>