<svg xmlns="http://www.w3.org/2000/svg" xmlns:xlink="http://www.w3.org/1999/xlink" width="148.85" height="148.75" viewBox="0 0 148.85 148.75"><defs><clipPath id="a"><rect width="149" height="149.01" fill="none"/></clipPath></defs><title>cell-phone</title><g clip-path="url(#a)"><path d="M148.78,117.39a7.21,7.21,0,0,1-2.21,6.31l-21,20.79a11.54,11.54,0,0,1-3.7,2.68,15.15,15.15,0,0,1-4.49,1.42l-1,.08c-.52.05-1.2.08-2,.08a73.14,73.14,0,0,1-9.69-1,74,74,0,0,1-16.38-5,137.73,137.73,0,0,1-22-12.05q-12.28-8-26.15-22.06a171.88,171.88,0,0,1-18.28-20.8A148.44,148.44,0,0,1,10.27,69.41,98.93,98.93,0,0,1,3.65,54.13a80.43,80.43,0,0,1-3-11.82A38.32,38.32,0,0,1,0,34.51q.15-2.84.15-3.15A15.45,15.45,0,0,1,1.6,26.87a11.9,11.9,0,0,1,2.68-3.71l21-20.95a6.94,6.94,0,0,1,5-2.21A5.84,5.84,0,0,1,33.9,1.18,10.71,10.71,0,0,1,36.58,4.1l16.86,32a7.66,7.66,0,0,1,.79,5.52,9.75,9.75,0,0,1-2.68,5l-7.72,7.72a2.64,2.64,0,0,0-.55,1A3.79,3.79,0,0,0,43,56.57a28.35,28.35,0,0,0,2.84,7.56,68.78,68.78,0,0,0,5.83,9.22A103.43,103.43,0,0,0,62.9,85.88,104.4,104.4,0,0,0,75.5,97.14a72.7,72.7,0,0,0,9.22,5.91,25.06,25.06,0,0,0,5.67,2.29l2,.39a3.71,3.71,0,0,0,1-.24,2.53,2.53,0,0,0,1-.55l9-9.14A9.68,9.68,0,0,1,110,93.28a8.25,8.25,0,0,1,4.26,1h.15l30.42,18a8,8,0,0,1,3.94,5.2Z"/></g></svg>