<svg xmlns="http://www.w3.org/2000/svg" width="19" height="18" viewBox="0 0 19 18"><defs><style>.a{fill-rule:evenodd;}</style></defs><title>cart</title><path class="a" d="M18.85,5.21l-3.26,7.31a1.61,1.61,0,0,1-1.48,1H3.8a1.66,1.66,0,0,1-1.63-1.69V3.44l-1.93-2A.84.84,0,0,1,0,.84.83.83,0,0,1,.81,0a.78.78,0,0,1,.58.25L3.87,2.81h13.5A1.66,1.66,0,0,1,19,4.5,1.71,1.71,0,0,1,18.85,5.21Zm-15,6.6H14.11l2-4.5H3.8ZM17.37,4.5H3.8V5.63H16.87l.5-1.13Zm-13,10.13a1.69,1.69,0,0,1,0,3.37,1.69,1.69,0,0,1,0-3.37Zm8.69,0a1.69,1.69,0,1,1-1.63,1.68A1.65,1.65,0,0,1,13,14.63Z"/></svg>