<svg xmlns="http://www.w3.org/2000/svg" width="31.95" height="31.95" viewBox="0 0 31.95 31.95"><defs><style>.a{fill:#17daa3;}</style></defs><title>Development</title><path class="a" d="M21.45,13A2.5,2.5,0,1,0,19,10.5,2.5,2.5,0,0,0,21.45,13Zm-17,12a2.51,2.51,0,0,0-2.39,1.77L1,30.35a.4.4,0,0,0,0,.15.5.5,0,0,0,.5.5l.15,0,3.58-1.09A2.5,2.5,0,0,0,4.45,25Zm26-25c-5.39,0-10.59.24-15,3.09A20.22,20.22,0,0,0,9.71,9,12.51,12.51,0,0,0,.28,14.26a1.5,1.5,0,0,0,1,2.35A13,13,0,0,1,5.6,18.33c-.27,1-.5,2-.65,2.87a1.5,1.5,0,0,0,.41,1.32l4.07,4.07a1.53,1.53,0,0,0,1.06.44,1.15,1.15,0,0,0,.26,0,27.15,27.15,0,0,0,2.88-.65,13.28,13.28,0,0,1,1.72,4.35,1.52,1.52,0,0,0,.91,1.14,1.38,1.38,0,0,0,.57.11,1.46,1.46,0,0,0,.87-.28,12.53,12.53,0,0,0,5.21-9.42,20.54,20.54,0,0,0,6-5.78C31.72,12.1,32,6.68,32,1.5A1.5,1.5,0,0,0,30.45,0ZM3.29,14.54a10,10,0,0,1,4.83-2.75,33.52,33.52,0,0,0-1.75,4.09A16.64,16.64,0,0,0,3.29,14.54ZM17.42,28.66a17.32,17.32,0,0,0-1.35-3.07,33.6,33.6,0,0,0,4.09-1.76A10,10,0,0,1,17.42,28.66Zm8.93-13.82c-3.11,4.77-9.81,7.94-15.36,9.07L8.05,21C9.18,15.41,12.34,8.71,17.12,5.6,20.43,3.44,24.57,3.06,29,3,28.89,7.38,28.51,11.53,26.35,14.84Z"/></svg>