<svg xmlns="http://www.w3.org/2000/svg" width="66" height="52" viewBox="0 0 66 52"><defs><style>.a{fill:#87949e;}</style></defs><title>education</title><path class="a" d="M64,15.25,34.64.39a3.64,3.64,0,0,0-3.28,0L2,15.25A3.74,3.74,0,0,0,2,21.9l1.64.83V35.8A3.71,3.71,0,0,0,5.5,42.71,3.71,3.71,0,0,0,7.33,35.8V24.58l5.5,2.79V39c0,7.18,9,13,20.17,13s20.17-5.82,20.17-13V27.37L64,21.9a3.74,3.74,0,0,0,0-6.65ZM47.67,39c0,3.44-6.41,7.43-14.67,7.43s-14.67-4-14.67-7.43V30.15l13,6.6a3.64,3.64,0,0,0,3.28,0l13-6.6ZM33,31.35,7.76,18.57,33,5.79,58.24,18.57Z"/></svg>