<svg xmlns="http://www.w3.org/2000/svg" width="19" height="18" viewBox="0 0 19 18"><defs><style>.a{fill:#fff;}</style></defs><title>Pricing</title><path class="a" d="M4.34,14.62a1.69,1.69,0,0,0,0,3.38,1.69,1.69,0,0,0,0-3.38Zm13-11.81H3.87L1.39.25A.78.78,0,0,0,.81,0,.83.83,0,0,0,0,.84a.84.84,0,0,0,.24.6l1.93,2v8.37A1.66,1.66,0,0,0,3.8,13.5H14.11a1.61,1.61,0,0,0,1.48-1l3.26-7.31A1.71,1.71,0,0,0,19,4.5,1.66,1.66,0,0,0,17.37,2.81Zm-3.26,9H3.8V7.31H16.12Zm2.76-6.18H3.8V4.5H17.37Zm-3.84,9a1.69,1.69,0,1,0,1.63,1.69A1.66,1.66,0,0,0,13,14.62Z"/></svg>