<svg xmlns="http://www.w3.org/2000/svg" width="72" height="53" viewBox="0 0 72 53"><defs><style>.a{fill:#87949e;}</style></defs><title>pulse</title><path class="a" d="M71.73,21,63.26,1.89a3.18,3.18,0,0,0-6,.58L48.89,39.33l-11-26.76a3.18,3.18,0,0,0-5.86,0L22,35.91l-5.4-10.83a3.18,3.18,0,0,0-5.29-.61L.74,37.18a3.21,3.21,0,0,0-.74,2,3.18,3.18,0,0,0,5.62,2l7.47-9,6.3,12.61a3.18,3.18,0,0,0,5.77-.17L34.88,22,46.83,51a3.17,3.17,0,0,0,6-.5l8.47-37.31,4.59,10.33A3.18,3.18,0,0,0,72,22.26,3.24,3.24,0,0,0,71.73,21Z"/></svg>