<svg xmlns="http://www.w3.org/2000/svg" width="47" height="53.02" viewBox="0 0 47 53.02"><defs><style>.a{fill:#fff;}</style></defs><title>scope</title><path class="a" d="M23.5,23.2a3.31,3.31,0,1,0,3.36,3.31A3.34,3.34,0,0,0,23.5,23.2ZM42,26.51c4.59-5,6.12-9.69,4.2-13C44.86,11.22,42.25,10,38.61,10a24.67,24.67,0,0,0-5.58.59C30.9,3.81,27.5,0,23.5,0S16.1,3.81,14,10.54C7.45,9.2,2.72,10.23.81,13.51s-.39,8,4.2,13c-4.59,5-6.12,9.69-4.2,13,1.38,2.37,4.12,3.55,8,3.55A25.26,25.26,0,0,0,14,42.49C16.1,49.21,19.5,53,23.5,53S30.9,49.21,33,42.49a25.64,25.64,0,0,0,5.1.58c3.88,0,6.69-1.21,8.06-3.56C48.11,36.2,46.58,31.53,42,26.51ZM41.82,16c.55,1-.33,4.19-5.08,8.75-.47.45-1,.91-1.49,1.36,0-1.55-.07-3.1-.19-4.6a55.51,55.51,0,0,0-.86-6.13C38.89,14.42,41.34,15.16,41.82,16ZM23.5,5c1.18,0,3.66,2.48,5.31,9.13.21.83.36,1.7.52,2.57l-.07,0c-1.5-.86-3.08-1.68-4.68-2.43a54.76,54.76,0,0,0-5.76-2.33C20.42,6.89,22.46,5,23.5,5ZM5.19,37c-.56-1,.32-4.19,5.07-8.75.47-.45,1-.91,1.49-1.36,0,1.55.07,3.1.19,4.6a55,55,0,0,0,.86,6.12C8.11,38.6,5.66,37.86,5.19,37ZM13,19.65c-1.57,1.1-3,2.24-4.37,3.39C5.31,19.38,4.7,16.81,5.18,16s3.7-1.79,9.88-.08c.83.23,1.68.51,2.54.82C16.06,17.61,14.51,18.59,13,19.65ZM23.5,48.05c-1.18,0-3.66-2.48-5.31-9.13-.21-.83-.36-1.7-.52-2.57l.07,0c1.5.86,3.08,1.68,4.68,2.43a54.76,54.76,0,0,0,5.76,2.33C26.58,46.13,24.54,48.05,23.5,48.05Zm3.22-16c-1,.6-2.12,1.17-3.22,1.71-1.1-.54-2.18-1.11-3.22-1.71S18,30.74,16.92,30c-.07-1.15-.14-2.3-.14-3.48s.07-2.33.14-3.48c1.11-.75,2.24-1.46,3.36-2.1s2.12-1.17,3.22-1.71c1.1.54,2.19,1.11,3.22,1.71S29,22.28,30.08,23c.07,1.15.14,2.3.14,3.48s-.07,2.33-.14,3.48C29,30.74,27.84,31.45,26.72,32.09ZM41.82,37c-.55.94-3.71,1.79-9.88.08-.83-.23-1.68-.51-2.54-.81,1.54-.89,3.09-1.88,4.61-2.93s3-2.25,4.38-3.4C41.69,33.64,42.3,36.21,41.82,37Z"/></svg>