<svg xmlns="http://www.w3.org/2000/svg" width="512" height="470"><path d="M463.73 403.72c0 1 .08 2 .08 3a63.25 63.25 0 11-126.49 0c0-1 0-2 .08-3H174.6c.05 1 .08 2 .08 3a63.25 63.25 0 11-126.49 0c0-1 0-2 .08-3H0V42.18h114.45V0H265v42.18h54.21v42.18h104.5L512 229.45v174.27zm-63.16 48.2a45.23 45.23 0 0045.17-45.19 45.18 45.18 0 00-89.29-9.82 46.36 46.36 0 00-1.06 9.82 45.23 45.23 0 0045.18 45.19zm-289.14 0a45.23 45.23 0 0045.18-45.19 45.18 45.18 0 00-89.29-9.82 46.36 46.36 0 00-1.06 9.82 45.23 45.23 0 0045.17 45.19zM78.31 60.26H18.07v66.28h60.24zm18.07 0v66.28h54.21V60.26zM247 18.08H132.52v24.1H247zm-78.3 42.18v66.28h54.21V60.26zm132.52 0h-60.28v66.28h60.24zm0 84.36H18.07v156.66h24.1V168.72h234.91v132.56h24.1zM259 229v-42.21H60.24V229zM60.24 247.05v54.23H259v-54.23zm301.17-144.61h-42.16V223h42.16zm52.15 0h-34.08V223h107.41zM493.93 241H319.25v78.34H18.07v66.28h33.74a63.24 63.24 0 01119.26 0h169.87a63.24 63.24 0 01119.26 0h33.73zM358.4 277.18h42.17v18.08H358.4zm-247 108.46a21.09 21.09 0 11-21.08 21.09 21.11 21.11 0 0121.11-21.09zm289.14 0a21.09 21.09 0 11-21.09 21.09 21.11 21.11 0 0121.12-21.09z" fill-rule="evenodd"/></svg>