<svg xmlns="http://www.w3.org/2000/svg" width="38" height="40"><path fill-rule="evenodd" fill="#FFF" d="M36.657 34.401h1.12c.123 0 .223.102.223.228v1.144c0 .126-.1.228-.223.228H25.692a.226.226 0 01-.223-.228v-1.144c0-.126.1-.228.223-.228h1.12a.226.226 0 00.224-.228V32.23c0-.126-.1-.228-.224-.228h-1.12a.226.226 0 01-.223-.228v-1.143c0-.126.1-.229.223-.229h12.085c.123 0 .223.103.223.229v1.143c0 .126-.1.228-.223.228h-1.12a.226.226 0 00-.223.228v1.943c0 .126.1.228.223.228zm.574-4.798h-.515a.218.218 0 01-.146-.056l-3.6-3.167a.218.218 0 00-.216-.044 2.84 2.84 0 01-.948.168c-.317 0-.632-.076-.922-.214a.219.219 0 00-.235.029l-3.905 3.233a.22.22 0 01-.141.051l-.454-.005c-.235-.002-.338-.304-.156-.455l3.982-3.296a.228.228 0 00.045-.303c-.248-.37-.406-.841-.406-1.422 0-.442.351-.8.783-.8.432 0 .783.358.783.8 0 .11.011.205.031.286.039.162.23.226.357.121l.002-.002a.386.386 0 01.502.008l.172.151a.22.22 0 00.282.009c.172-.138.289-.357.289-.707 0-.723-.702-.898-.834-.923a.798.798 0 01-.654-.79v-2.042c0-.125-.1-.228-.223-.228h-.463a.224.224 0 01-.219-.183l-1.006-5.142a.226.226 0 01.219-.273h.686a.226.226 0 00.223-.228V9.535c0-.238-.313-.317-.421-.105l-8.952 17.594a.235.235 0 00-.025.105v.646c0 .126-.1.228-.223.228h-2.686a.226.226 0 00-.224.228v1.144a.225.225 0 01-.223.228H6.489a.226.226 0 01-.223-.228v-1.144c0-.126-.1-.228-.223-.228H1.79a.226.226 0 01-.223-.228v-14.74c0-.126.1-.227.223-.227h11.301c.123 0 .223.101.223.227v7.428l-.886 2.434a.228.228 0 00.21.308h1.243c.072 0 .14-.036.182-.096L30.258.066a.22.22 0 01.297-.062l3.246 2a.23.23 0 01.079.308l-.957 1.713a.23.23 0 00-.029.112v10.042c0 .126.1.228.223.228h.676c.135 0 .24.123.221.26L33.3 19.81a.225.225 0 01-.221.195h-.185v1.549c0 .086.046.164.121.203.67.349 1.367 1.041 1.367 2.23 0 .741-.248 1.307-.626 1.713a.231.231 0 00.016.33l3.605 3.172c.157.138.061.401-.146.401zM10.182 16.235c0-.126-.1-.229-.224-.229H4.923a.227.227 0 00-.224.229v4.342c0 .126.1.228.224.228h5.035a.226.226 0 00.224-.228v-4.342zm7.608 3.882l-1.514 2.108a.231.231 0 00.069.332l3.374 1.987c.189.112.406-.091.314-.293l-1.861-4.096a.22.22 0 00-.382-.038zm1.883-1.152l1.545 3.763a.221.221 0 00.4.024l1.042-1.877a.232.232 0 00-.065-.298l-2.586-1.886c-.183-.133-.422.062-.336.274zm1.718-3.829l-1.302 1.83-.01.014 2.614 1.737c.182.121.408-.068.33-.274l-1.243-3.256a.222.222 0 00-.389-.051zm1.608-.89l1.188 3.25c.068.185.319.2.408.024l.898-1.79a.232.232 0 00-.072-.292l-2.087-1.46c-.179-.125-.411.06-.335.268zm2.43-4.248a.221.221 0 00-.402-.082l-1.259 1.874a.232.232 0 00.064.321l1.892 1.237c.167.109.379-.041.339-.239l-.634-3.111zm.976-1.336l.649 3.012a.222.222 0 00.414.059l1.008-1.912a.231.231 0 00-.075-.299l-1.656-1.1c-.167-.111-.382.041-.34.24zm2.533-4.238a.222.222 0 00-.412-.065l-1.109 1.965a.232.232 0 00.073.306l1.79 1.177c.168.111.382-.042.339-.241l-.681-3.142zm2.89-.905l-1.497-1.005c-.165-.111-.379.035-.342.233l.537 2.868c.04.211.319.254.417.063l.96-1.863a.229.229 0 00-.075-.296zm.283 2.983c0-.238-.312-.317-.421-.107l-.337.649a.23.23 0 00-.026.106v7.029c0 .126.1.228.224.228h.336a.226.226 0 00.224-.228V6.502zm-12.14 24.7c2.326 0 3.525 1.125 3.525 2.799v3.375c0 1.749-1.151 2.624-3.525 2.624H2.742C1.012 40 0 38.825 0 36.601v-2.372c0-1.671 1.328-3.027 2.965-3.027h17.006zM3.133 36.573c0 .126.1.228.223.228H20.14a.226.226 0 00.223-.228v-1.944c0-.126-.1-.228-.223-.228H3.356a.226.226 0 00-.223.228v1.944z"/></svg>