<svg xmlns="http://www.w3.org/2000/svg" width="577.75" height="578" viewBox="0 0 577.75 578"><defs><style>.a{fill-rule:evenodd;}</style></defs><title>phone</title><path class="a" d="M577.47,456.15q1.85,14.09-8.56,24.5l-81.35,80.82a45.93,45.93,0,0,1-14.37,10.41,59.69,59.69,0,0,1-17.43,5.51c-.41,0-1.63.1-3.67.3s-4.69.31-7.95.31q-11.62,0-37.62-4t-63.6-19.59q-37.62-15.61-85.33-46.84T156.06,421.87q-42.81-42.25-70.94-80.82T39.86,269.71Q22.73,237,14.17,210.32T2.55,164.4Q-.51,145.11.1,134.09t.61-12.24A59.41,59.41,0,0,1,6.22,104.4,45.73,45.73,0,0,1,16.62,90L98,8.57Q106.53,0,117.53,0A22.82,22.82,0,0,1,131.6,4.59,42.6,42.6,0,0,1,142,15.92l65.44,124.29a29.84,29.84,0,0,1,3.06,21.43,38.19,38.19,0,0,1-10.4,19.6l-30,30a10.27,10.27,0,0,0-2.14,4,15.16,15.16,0,0,0-.91,4.59q2.44,12.85,11,29.39,7.35,14.7,22.63,35.82t43.43,48.68q27.53,28.16,48.93,43.78t35.78,23q14.37,7.33,22,8.87l7.64,1.53a14.55,14.55,0,0,0,4-.91,10.22,10.22,0,0,0,4-2.15l34.87-35.51a37.43,37.43,0,0,1,25.68-9.8q10.41,0,16.52,3.68h.61l118,69.8Q575,443.92,577.47,456.15Z"/></svg>