<svg xmlns="http://www.w3.org/2000/svg" width="577.75" height="578"><path d="M577.47 456.15q1.85 14.09-8.56 24.5l-81.35 80.82a45.93 45.93 0 01-14.37 10.41 59.69 59.69 0 01-17.43 5.51c-.41 0-1.63.1-3.67.3s-4.69.31-7.95.31q-11.62 0-37.62-4t-63.6-19.59q-37.62-15.61-85.33-46.84t-101.53-85.7q-42.81-42.25-70.94-80.82t-45.26-71.34Q22.73 237 14.17 210.32T2.55 164.4Q-.51 145.11.1 134.09t.61-12.24a59.41 59.41 0 015.51-17.45A45.73 45.73 0 0116.62 90L98 8.57Q106.53 0 117.53 0a22.82 22.82 0 0114.07 4.59A42.6 42.6 0 01142 15.92l65.44 124.29a29.84 29.84 0 013.06 21.43 38.19 38.19 0 01-10.4 19.6l-30 30a10.27 10.27 0 00-2.14 4 15.16 15.16 0 00-.91 4.59q2.44 12.85 11 29.39 7.35 14.7 22.63 35.82t43.43 48.68q27.53 28.16 48.93 43.78t35.78 23q14.37 7.33 22 8.87l7.64 1.53a14.55 14.55 0 004-.91 10.22 10.22 0 004-2.15l34.87-35.51a37.43 37.43 0 0125.68-9.8q10.41 0 16.52 3.68h.61l118 69.8q12.86 7.91 15.33 20.14z" fill-rule="evenodd"/></svg>