<svg xmlns="http://www.w3.org/2000/svg" width="60" height="60"><path d="M1.54 28.91a7 7 0 01.58-3.42 1 1 0 011.88.82 4.68 4.68 0 00-.34 1.1A5.8 5.8 0 016 26.9a.75.75 0 01.16 0h.34a4.17 4.17 0 01.71.08 21.87 21.87 0 019.45-10.56A12.38 12.38 0 0116 12.5a12.52 12.52 0 0125 0 12.69 12.69 0 01-.31 2.76c.89.29 1.68.57 2.31.82 4.39-1.76 7.25-2.36 9.8-2.07a1.33 1.33 0 011.19 1.11 1.37 1.37 0 01-.76 1.47c-1.36.65-1.94 2.24-2.55 3.91-.15.42-.31.85-.48 1.27 2.61 2.71 3.09 4.89 3.56 8.13h1.26c3.19 0 4.98 2.23 4.98 6.1v3.61c0 3.94-1.84 6.29-4.92 6.29h-.62a16.68 16.68 0 01-3.19 5.1l1.38 3.45A4.06 4.06 0 0148.87 60h-6.75a2.06 2.06 0 01-1.92-1.3l-.37-.92a37.38 37.38 0 01-10.53 1.44 31.94 31.94 0 01-8.63-1.13A2.65 2.65 0 0118.12 60h-6A4.36 4.36 0 018 54.19l1.17-3.32A18.7 18.7 0 015 38.9v-.09a6 6 0 01-5-5.91 5.92 5.92 0 011.54-3.99zm17.23 28.57a22.31 22.31 0 01-8.08-4.94l-.82 2.31A2.37 2.37 0 0012.1 58h6a.65.65 0 00.63-.47zm32-2.32l-1.07-2.65a24.83 24.83 0 01-8 4.64l.36.85h6.75a2 2 0 001.72-.91 2.07 2.07 0 00.27-1.93zM18 12.5a10.63 10.63 0 00.64 3.61l.16.37a10.76 10.76 0 002.1 3.24c.12-.06.25-.09.38-.15.29-.13.59-.24.89-.35s.54-.22.83-.22.57-.15.86-.22c.52-.13 1-.23 1.57-.31.25 0 .5-.08.75-.1s.63 0 .94 0h1.67c.29 0 .57.05.85.09s.54.06.81.11.76.16 1.14.26l.5.12a16.67 16.67 0 011.63.58l.36.17q.64.28 1.26.63l.18.09a11.91 11.91 0 00.94-.94 1.71 1.71 0 01.11-.14 11 11 0 00.73-1v-.08a10.36 10.36 0 001.19-2.46l.11-.34a10.3 10.3 0 00.43-2.94 10.51 10.51 0 00-21 0zM9 27.7a5.17 5.17 0 01.57.48l.09.09a4.59 4.59 0 01.9 1.33v.08a4.15 4.15 0 01.23.76v.14a4.47 4.47 0 01.08.82 4.14 4.14 0 01-.09.87c0 .1-.05.19-.07.28a4.68 4.68 0 01-.17.53 2.8 2.8 0 01-.15.3 3.75 3.75 0 01-.24.44 2.64 2.64 0 01-.21.29 3.37 3.37 0 01-.3.36 3.07 3.07 0 01-.26.25l-.36.3-.3.2a4.36 4.36 0 01-.42.23l-.33.14a3.68 3.68 0 01-.47.15l-.36.08H7c-.09 1-.13 2-.13 3a16.64 16.64 0 004.81 11.91q.62.61 1.29 1.17l.33.27c.34.26.68.52 1 .76l.46.32c.46.29.92.58 1.41.84l.5.25c.36.19.73.37 1.12.54l.62.26c.45.19.92.36 1.39.52l.31.11a29.39 29.39 0 009 1.33 34.34 34.34 0 0011.36-1.86l.59-.21C47 53 51.21 49.26 52.82 44.58l.23-.68h2c2.41 0 2.92-2.33 2.92-4.3V36c0-4.1-2.2-4.1-2.92-4.1h-3L52 31c-.53-3.75-.79-5.63-3.59-8.32l-.52-.5.31-.65c.25-.54.47-1.13.7-1.75a11.31 11.31 0 012-3.85 25.64 25.64 0 00-7.42 2.11l-.38.15-.38-.15c-.61-.26-1.51-.58-2.53-.92a13.64 13.64 0 01-.7 1.44l-.06.1a10.14 10.14 0 01-.78 1.19l-.15.21c-.26.34-.55.67-.85 1-.08.07-.14.16-.22.23l-.19.19a15.17 15.17 0 011.57 1.35 1 1 0 01-1.42 1.41 13.09 13.09 0 00-2.1-1.71l-.16-.11q-.45-.28-.93-.54l-.39-.2c-.25-.13-.5-.25-.76-.36l-.31-.13c-.36-.14-.73-.27-1.1-.38l-.19-.05a10.2 10.2 0 00-1.09-.27h-.11a13.94 13.94 0 00-7.74.74h-.08a13.84 13.84 0 00-4.52 3 1 1 0 01-1.41 0 1 1 0 010-1.41 15.93 15.93 0 012.68-2.14c-.08-.09-.15-.19-.23-.29s-.27-.33-.4-.51-.24-.34-.36-.51l-.33-.37c-.11-.19-.23-.39-.33-.59a.83.83 0 01-.08-.12 19.82 19.82 0 00-8.38 9.41zm-5 3.7a2.5 2.5 0 002.13 2.47h.37A2.5 2.5 0 009 31.4a2.3 2.3 0 000-.4v-.12a1.83 1.83 0 00-.11-.33.76.76 0 000-.11 2.52 2.52 0 00-.48-.72l-.11-.1-.3-.22-.16-.11-.18-.1-.21-.11a2.6 2.6 0 00-.92-.18A2.5 2.5 0 004 31.4zm-2 1.5a4 4 0 003.07 3.88c0-.37.06-.74.09-1.1a4.49 4.49 0 01-3.08-3.53 3.82 3.82 0 00-.08.75zm25 21a1 1 0 011.13-.9 23.57 23.57 0 0012.24-1.94 1 1 0 011.32.52 1 1 0 01-.51 1.31 25.37 25.37 0 01-10.53 2.23q-1.32 0-2.7-.12a1 1 0 01-.95-1.09zm15-24.51a3.5 3.5 0 113.5 3.5 3.5 3.5 0 01-3.44-3.49zm2 0a1.5 1.5 0 101.5-1.5 1.5 1.5 0 00-1.44 1.51zM22.85 18.22a8.39 8.39 0 1114.08-6.15 8.3 8.3 0 01-3.26 6.62 1 1 0 01-.61.21 1 1 0 01-.61-1.79 6.39 6.39 0 10-8.24-.36 1 1 0 01-1.36 1.47z" fill-rule="evenodd"/></svg>