<svg xmlns="http://www.w3.org/2000/svg" width="295" height="294" viewBox="0 0 295 294"><defs><style>.a{fill-rule:evenodd;}</style></defs><title>wheelbarrow</title><path class="a" d="M252.18,208.24A43,43,0,1,1,220,223l-22.21-24.26h-.19L138,284a23.53,23.53,0,0,1-42.81-13.52,57.34,57.34,0,0,1,2-15.19l15.5-56.53h-11L44.59,79.6H0V70.07H50.57l16,33.35H78.38l32.05-46.68a68.06,68.06,0,0,1,56.1-29.55,66.9,66.9,0,0,1,26,5.38l16.84-16.88,11.9,11.91L248.81,0l6.73,6.74L228,34.34l11.89,11.91L225.38,60.76l29.3,42.66h26.05V113H265l-33.31,85.76h-21L227,216.53A42.49,42.49,0,0,1,252.18,208.24Zm-145.8,49.52a48.06,48.06,0,0,0-1.7,12.67,14,14,0,0,0,25.49,8.06l55.77-79.78H122.58Zm120-211.51L209.36,29.16,194.51,44a14.39,14.39,0,0,0-4.19,10.1V65.31h11.15a14.18,14.18,0,0,0,10.1-4.19Zm-7.88,21.36-.24.25a23.64,23.64,0,0,1-16.83,7H180.81V54.14A23.55,23.55,0,0,1,185.57,40a57.32,57.32,0,0,0-19-3.27,58.51,58.51,0,0,0-48.25,25.41L89.93,103.42h153.2Zm6.6,121.57L254.74,113H71.13l36.54,76.23H225.14Zm-6.27,61.94a33.36,33.36,0,1,0,14.55-27.54l9.88,10.79a18.65,18.65,0,0,1,8.88-2.31,19.14,19.14,0,1,1-15.94,8.71L226.41,230A33.19,33.19,0,0,0,218.87,251.12Zm29.8,3.22-5.53-6.05a9.49,9.49,0,1,0,9-6.7,9.9,9.9,0,0,0-2.05.23l5.56,6.08ZM114.19,122.48h114.2V132H114.19Zm-19,0h9.52V132H95.16Z"/></svg>