<svg xmlns="http://www.w3.org/2000/svg" width="295" height="294"><path d="M252.18 208.24A43 43 0 11220 223l-22.21-24.26h-.19L138 284a23.53 23.53 0 01-42.81-13.52 57.34 57.34 0 012-15.19l15.5-56.53h-11L44.59 79.6H0v-9.53h50.57l16 33.35h11.81l32.05-46.68a68.06 68.06 0 0156.1-29.55 66.9 66.9 0 0126 5.38l16.84-16.88 11.9 11.91L248.81 0l6.73 6.74L228 34.34l11.89 11.91-14.51 14.51 29.3 42.66h26.05V113H265l-33.31 85.76h-21L227 216.53a42.49 42.49 0 0125.18-8.29zm-145.8 49.52a48.06 48.06 0 00-1.7 12.67 14 14 0 0025.49 8.06l55.77-79.78h-63.36zm120-211.51l-17.02-17.09L194.51 44a14.39 14.39 0 00-4.19 10.1v11.21h11.15a14.18 14.18 0 0010.1-4.19zm-7.88 21.36l-.24.25a23.64 23.64 0 01-16.83 7h-20.62V54.14A23.55 23.55 0 01185.57 40a57.32 57.32 0 00-19-3.27 58.51 58.51 0 00-48.25 25.41l-28.39 41.28h153.2zm6.6 121.57L254.74 113H71.13l36.54 76.23h117.47zm-6.27 61.94a33.36 33.36 0 1014.55-27.54l9.88 10.79a18.65 18.65 0 018.88-2.31 19.14 19.14 0 11-15.94 8.71L226.41 230a33.19 33.19 0 00-7.54 21.12zm29.8 3.22l-5.53-6.05a9.49 9.49 0 109-6.7 9.9 9.9 0 00-2.05.23l5.56 6.08zM114.19 122.48h114.2V132h-114.2zm-19 0h9.52V132h-9.55z" fill-rule="evenodd"/></svg>