<?xml version="1.0" encoding="utf-8"?><svg xmlns="http://www.w3.org/2000/svg" xmlns:xlink="http://www.w3.org/1999/xlink"><symbol viewBox="0 0 19.35 30" id="icons--arrow_down" xmlns="http://www.w3.org/2000/svg"><path d="M10.64 29.64l8.23-7.26a1.48 1.48 0 0 0 .13-2.06 1.55 1.55 0 0 0-2.06-.12l-5.8 5.13V1.45a1.46 1.46 0 0 0-2.91 0v23.88L2.42 20.2a1.53 1.53 0 0 0-2.06.12 1.49 1.49 0 0 0 .12 2.06l8.23 7.26a1.57 1.57 0 0 0 1 .36 1.33 1.33 0 0 0 .93-.36z"/></symbol><symbol viewBox="0 0 24 24" id="icons--chat" xmlns="http://www.w3.org/2000/svg"><defs><style>.ba{fill:none;stroke:#000;stroke-linecap:round;stroke-linejoin:round;stroke-width:2px}</style></defs><path class="ba" d="M10.66 19a9 9 0 1 0-4.5-.83m0-.03C8.05 20.72 5 23 5 23a5.44 5.44 0 0 0 5.66-4M17 20.33a5.37 5.37 0 0 1-4-1.87m6-8.69A5.5 5.5 0 0 1 19.85 20m-2.75.54A3.32 3.32 0 0 0 20.56 23s-1.87-1.39-.71-3M6 8h8m-8 4h6"/></symbol><symbol viewBox="0 0 24 20" id="icons--cloud" xmlns="http://www.w3.org/2000/svg"><defs><style>.ca{fill:none;stroke:#000;stroke-linecap:round;stroke-linejoin:round;stroke-width:2px}</style></defs><path class="ca" d="M5 7a6 6 0 0 1 11.72-1.83m0 0A4.94 4.94 0 0 1 18 5a5 5 0 0 1 0 10M8 15H5m13 0h-2M5 15a4 4 0 0 1 0-8m7 12V9m0 0l-3 3m3-3l3 3"/></symbol><symbol viewBox="0 0 12.38 24" id="icons--facebook" xmlns="http://www.w3.org/2000/svg"><path d="M10.12 4h2.26V.17A30.58 30.58 0 0 0 9.08 0C5.83 0 3.6 2 3.6 5.64V9H0v4.27h3.6V24H8V13.27h3.45L12 9H8V6.06C8 4.83 8.34 4 10.12 4z"/></symbol><symbol viewBox="0 0 24 24" id="icons--game" xmlns="http://www.w3.org/2000/svg"><defs><style>.ea{fill:none;stroke:#000;stroke-miterlimit:10;stroke-width:2px}</style></defs><path class="ea" d="M1 5h22v9H1zm2-4h6v4H3zm12 0h6v4h-6zM1 14h22v9H1z"/></symbol><symbol viewBox="0 0 21.01 21.01" id="icons--instagram" xmlns="http://www.w3.org/2000/svg"><path d="M10.51 5.12a5.39 5.39 0 1 0 5.38 5.38 5.38 5.38 0 0 0-5.38-5.38zm0 8.89A3.51 3.51 0 1 1 14 10.5a3.51 3.51 0 0 1-3.49 3.5zm6.86-9.11a1.26 1.26 0 1 1-1.26-1.26 1.25 1.25 0 0 1 1.26 1.26zm3.57 1.27a6.24 6.24 0 0 0-1.7-4.4 6.28 6.28 0 0 0-4.4-1.7C13.11 0 7.91 0 6.17.07a6.24 6.24 0 0 0-4.4 1.7 6.25 6.25 0 0 0-1.7 4.4C0 7.9 0 13.1.07 14.83a6.24 6.24 0 0 0 1.7 4.41 6.27 6.27 0 0 0 4.4 1.69c1.74.1 6.94.1 8.67 0a6.23 6.23 0 0 0 4.4-1.69 6.29 6.29 0 0 0 1.7-4.41c.06-1.73.06-6.92 0-8.66zM18.7 16.7a3.59 3.59 0 0 1-2 2c-1.38.55-4.66.42-6.19.42s-4.82.13-6.19-.42a3.53 3.53 0 0 1-2-2c-.55-1.39-.42-4.7-.42-6.2s-.12-4.81.42-6.19a3.52 3.52 0 0 1 2-2c1.38-.54 4.68-.42 6.19-.42s4.81-.12 6.19.42a3.57 3.57 0 0 1 2 2c.55 1.38.42 4.67.42 6.19s.13 4.82-.42 6.2z"/></symbol><symbol viewBox="0 0 30.58 20.95" id="icons--mail" xmlns="http://www.w3.org/2000/svg"><defs><style>.ga{fill:none;stroke:#fff;stroke-linecap:round;stroke-linejoin:round;stroke-width:2.58px}</style></defs><path class="ga" d="M1.29 1.29h28v18.36h-28zm14 9.18l14-9.18m-14 9.18l-14-9.18"/></symbol><symbol viewBox="0 0 88 97.78" id="icons--media-control" xmlns="http://www.w3.org/2000/svg"><path d="M0 97.78V0l88 48.89z"/></symbol><symbol viewBox="0 0 24 20" id="icons--payment" xmlns="http://www.w3.org/2000/svg"><defs><style>.ia{fill:none;stroke:#000;stroke-linecap:round;stroke-linejoin:round;stroke-width:2px}</style></defs><path class="ia" d="M3 1a2 2 0 0 0 0 4M1 17a2 2 0 0 0 2 2M3 5h20v14H3M3 1h18v4M1 3v14"/><circle class="ia" cx="18" cy="12" r="1"/></symbol><symbol viewBox="0 0 24 24" id="icons--play" xmlns="http://www.w3.org/2000/svg"><defs><style>.ja{fill:none;stroke:#000;stroke-linecap:round;stroke-linejoin:round;stroke-width:2px}</style></defs><rect class="ja" x="1" y="1" width="22" height="22" rx="3"/><path class="ja" d="M9 8l7 4-7 4V8z"/></symbol><symbol viewBox="0 0 18 22.19" id="icons--secure" xmlns="http://www.w3.org/2000/svg"><defs><style>.ka{fill:none;stroke:#000;stroke-linecap:round;stroke-linejoin:round;stroke-width:2px}</style></defs><path class="ka" d="M9 1S4 3.19 1 3.19v7s0 6 8 11M9 1s5 2.19 8 2.19v7s0 6-8 11m0-20v20"/></symbol><symbol viewBox="0 0 24 19.49" id="icons--twitter" xmlns="http://www.w3.org/2000/svg"><path d="M21.53 4.86v.64a13.9 13.9 0 0 1-14 14A13.84 13.84 0 0 1 0 17.28a9.39 9.39 0 0 0 1.19.07 9.81 9.81 0 0 0 6.1-2.11 4.9 4.9 0 0 1-4.59-3.41 5.52 5.52 0 0 0 .92.08 5 5 0 0 0 1.3-.17A4.92 4.92 0 0 1 1 6.91v-.06a4.93 4.93 0 0 0 2.23.63A4.91 4.91 0 0 1 1 3.38 4.85 4.85 0 0 1 1.68.9a14 14 0 0 0 10.14 5.15 5.35 5.35 0 0 1-.12-1.13 4.92 4.92 0 0 1 8.51-3.37A9.64 9.64 0 0 0 23.33.37a4.93 4.93 0 0 1-2.16 2.71A9.64 9.64 0 0 0 24 2.31a10.5 10.5 0 0 1-2.47 2.55z"/></symbol><symbol viewBox="0 0 200 54.48" id="logo" xmlns="http://www.w3.org/2000/svg"><defs><style>.mc{fill:#fff}</style></defs><path d="M10.89 54.48L0 43.81h10.89v10.67zM38.94 0H4.7A4.72 4.72 0 0 0 0 4.7v39.11h38.94a4.72 4.72 0 0 0 4.7-4.7V4.7a4.72 4.72 0 0 0-4.7-4.7z"/><path class="mc" d="M31.79 31.79h-5.47l-5.77-8.19-2.91 3.22v5H13.1V11.67h4.54v9.14L26 11.67h5.26l-7.56 8.39zm47.47-5.13L85.48 37H77.7l-7.24-12.33-3.95 4.39v8H59.8V6.54h6.71v14l11-13.95h7.69L74.9 19.38zm31.05 6.18c.36-.12.64-.22.84-.31v4a7.79 7.79 0 0 1-3.9.93 6 6 0 0 1-3.74-1 4 4 0 0 1-1.51-2.82 9.49 9.49 0 0 1-7.64 3.82 10.19 10.19 0 0 1-5.55-1.38c-1.45-.92-2.18-2.66-2.18-5.24a6.25 6.25 0 0 1 1.8-4.84 9.71 9.71 0 0 1 5-2.24 47.54 47.54 0 0 1 8.26-.58v-1.49a3.23 3.23 0 0 0-1-2.44 4.28 4.28 0 0 0-3.09-.94 4.93 4.93 0 0 0-2.13.42 3.63 3.63 0 0 0-1.36 1.05 2 2 0 0 0-.46 1.15v.36h-6.22a5.31 5.31 0 0 1-.09-.8 5.22 5.22 0 0 1 1.27-3.42 8.26 8.26 0 0 1 3.53-2.36 14.89 14.89 0 0 1 5.2-.84h.93q4.8 0 7.29 1.89a6.13 6.13 0 0 1 2.49 5.17v10.49a1.71 1.71 0 0 0 .37 1.2 1.24 1.24 0 0 0 .91.4 3.1 3.1 0 0 0 .98-.18zm-8.62-6a18.29 18.29 0 0 0-6.29.82 2.81 2.81 0 0 0-2.06 2.69 2.39 2.39 0 0 0 .82 2.07 4.26 4.26 0 0 0 2.51.6A4.88 4.88 0 0 0 99 32.4a5.46 5.46 0 0 0 1.93-1.78 4.51 4.51 0 0 0 .78-2.58zm12.17-16.7h6.58V5h-6.58zm0 26.88h6.48V14.31h-6.48zm22.74-23.15a6.83 6.83 0 0 0-3.31.76 7.11 7.11 0 0 0-2.13 1.64 5.33 5.33 0 0 0-.91 1.38l-.8-3.34h-4.8V37h6.4V23a5.28 5.28 0 0 1 .82-3 2.69 2.69 0 0 1 2.38-1.23 2.85 2.85 0 0 1 2.4 1 3.86 3.86 0 0 1 .75 2.38v1h5.42c0-.18.07-.49.11-.93a11.85 11.85 0 0 0 .07-1.33 7.4 7.4 0 0 0-1.67-5.07 5.94 5.94 0 0 0-4.68-1.95zm29.57 5.2a11.84 11.84 0 0 1 1.49 5.93v1.29a11.84 11.84 0 0 1-1.44 5.95 9.75 9.75 0 0 1-4 3.87 12 12 0 0 1-5.69 1.33h-.71a12 12 0 0 1-5.68-1.33 9.69 9.69 0 0 1-4-3.87 11.84 11.84 0 0 1-1.44-5.95V25a11.84 11.84 0 0 1 1.44-5.95 9.69 9.69 0 0 1 4-3.87 12 12 0 0 1 5.68-1.33h.71a12 12 0 0 1 5.69 1.33 9.75 9.75 0 0 1 4 3.89zm-5.13 4.8a5.8 5.8 0 0 0-1.36-4.14 5.1 5.1 0 0 0-7.06 0 5.76 5.76 0 0 0-1.36 4.14v3.59a5.71 5.71 0 0 0 1.36 4.13 5.07 5.07 0 0 0 7.06 0 5.76 5.76 0 0 0 1.36-4.13zm24.5-.12a40.4 40.4 0 0 0-4.83-1 23.18 23.18 0 0 1-3.84-.84 1.6 1.6 0 0 1-1.22-1.56 1.63 1.63 0 0 1 1.13-1.46 7.06 7.06 0 0 1 3-.54q4.09 0 4.09 2.67h5.68s0-.14.05-.34a4.14 4.14 0 0 0 0-.64 4.62 4.62 0 0 0-1.28-3.18 8.63 8.63 0 0 0-3.4-2.17 12.81 12.81 0 0 0-4.47-.78h-.89a14.17 14.17 0 0 0-4.91.82 8.23 8.23 0 0 0-3.59 2.45 5.89 5.89 0 0 0-1.36 3.93 5.62 5.62 0 0 0 1.4 3.89 7.06 7.06 0 0 0 3.13 2 36 36 0 0 0 4.67 1.07 17.7 17.7 0 0 1 4 .93 1.84 1.84 0 0 1 1.28 1.78c0 .77-.46 1.33-1.4 1.69a9 9 0 0 1-3.17.53 7.6 7.6 0 0 1-3.42-.69 2.33 2.33 0 0 1-1.38-2.24v-.31h-5.69v.88a5.63 5.63 0 0 0 1.22 3.56 7.93 7.93 0 0 0 3.4 2.4 13.59 13.59 0 0 0 4.93.84h1.47a13.33 13.33 0 0 0 7.24-1.8c1.89-1.2 2.84-3.14 2.84-5.84a5.67 5.67 0 0 0-1.38-4.07 7.39 7.39 0 0 0-3.25-1.98zm7.92 6.74V37H200v-6.51z"/></symbol></svg>