<svg xmlns="http://www.w3.org/2000/svg" width="512" height="470" viewBox="0 0 512 470"><defs><style>.a{fill-rule:evenodd;}</style></defs><title>car</title><path class="a" d="M463.73,403.72c0,1,.08,2,.08,3a63.25,63.25,0,1,1-126.49,0c0-1,0-2,.08-3H174.6c.05,1,.08,2,.08,3a63.25,63.25,0,1,1-126.49,0c0-1,0-2,.08-3H0V42.18H114.45V0H265V42.18h54.21V84.36H423.71L512,229.45V403.72Zm-63.16,48.2a45.23,45.23,0,0,0,45.17-45.19,45.18,45.18,0,0,0-89.29-9.82,46.36,46.36,0,0,0-1.06,9.82A45.23,45.23,0,0,0,400.57,451.92Zm-289.14,0a45.23,45.23,0,0,0,45.18-45.19,45.18,45.18,0,0,0-89.29-9.82,46.36,46.36,0,0,0-1.06,9.82A45.23,45.23,0,0,0,111.43,451.92ZM78.31,60.26H18.07v66.28H78.31Zm18.07,0v66.28h54.21V60.26ZM247,18.08H132.52v24.1H247Zm-78.3,42.18v66.28h54.21V60.26Zm132.52,0H240.94v66.28h60.24Zm0,84.36H18.07V301.28h24.1V168.72H277.08V301.28h24.1ZM259,229V186.79H60.24V229ZM60.24,247.05v54.23H259V247.05ZM361.41,102.44H319.25V223h42.16Zm52.15,0H379.48V223H486.89ZM493.93,241H319.25v78.34H18.07v66.28H51.81a63.24,63.24,0,0,1,119.26,0H340.94a63.24,63.24,0,0,1,119.26,0h33.73ZM358.4,277.18h42.17v18.08H358.4Zm-247,108.46a21.09,21.09,0,1,1-21.08,21.09A21.11,21.11,0,0,1,111.43,385.64Zm289.14,0a21.09,21.09,0,1,1-21.09,21.09A21.11,21.11,0,0,1,400.57,385.64Z"/></svg>