<svg xmlns="http://www.w3.org/2000/svg" width="200" height="54.48" viewBox="0 0 200 54.48"><defs><style>.a{fill:#302356;}.b{fill:#6457a4;}.c{fill:#fff;}</style></defs><title>logo</title><polygon class="a" points="10.89 54.48 0 43.81 10.89 43.81 10.89 54.48"/><path class="b" d="M38.94,0H4.7A4.72,4.72,0,0,0,0,4.7V43.81H38.94a4.72,4.72,0,0,0,4.7-4.7V4.7A4.72,4.72,0,0,0,38.94,0Z"/><path class="c" d="M31.79,31.79H26.32L20.55,23.6l-2.91,3.22v5H13.1V11.67h4.54v9.14L26,11.67h5.26l-7.56,8.39Z"/><path class="c" d="M79.26,26.66,85.48,37H77.7L70.46,24.67l-3.95,4.39v8H59.8V6.54h6.71v14l11-13.95h7.69L74.9,19.38Zm31.05,6.18c.36-.12.64-.22.84-.31v4a7.79,7.79,0,0,1-3.9.93,6,6,0,0,1-3.74-1A4,4,0,0,1,102,33.64a9.49,9.49,0,0,1-7.64,3.82,10.19,10.19,0,0,1-5.55-1.38c-1.45-.92-2.18-2.66-2.18-5.24A6.25,6.25,0,0,1,88.43,26a9.71,9.71,0,0,1,5-2.24,47.54,47.54,0,0,1,8.26-.58V21.69a3.23,3.23,0,0,0-1-2.44,4.28,4.28,0,0,0-3.09-.94,4.93,4.93,0,0,0-2.13.42,3.63,3.63,0,0,0-1.36,1.05,2,2,0,0,0-.46,1.15v.36H87.43a5.31,5.31,0,0,1-.09-.8,5.22,5.22,0,0,1,1.27-3.42,8.26,8.26,0,0,1,3.53-2.36,14.89,14.89,0,0,1,5.2-.84h.93q4.8,0,7.29,1.89a6.13,6.13,0,0,1,2.49,5.17V31.42a1.71,1.71,0,0,0,.37,1.2,1.24,1.24,0,0,0,.91.4A3.1,3.1,0,0,0,110.31,32.84Zm-8.62-6a18.29,18.29,0,0,0-6.29.82,2.81,2.81,0,0,0-2.06,2.69,2.39,2.39,0,0,0,.82,2.07,4.26,4.26,0,0,0,2.51.6A4.88,4.88,0,0,0,99,32.4a5.46,5.46,0,0,0,1.93-1.78,4.51,4.51,0,0,0,.78-2.58Zm12.17-16.7h6.58V5h-6.58Zm0,26.88h6.48V14.31h-6.48Zm22.74-23.15a6.83,6.83,0,0,0-3.31.76,7.11,7.11,0,0,0-2.13,1.64,5.33,5.33,0,0,0-.91,1.38l-.8-3.34h-4.8V37h6.4V23a5.28,5.28,0,0,1,.82-3,2.69,2.69,0,0,1,2.38-1.23,2.85,2.85,0,0,1,2.4,1,3.86,3.86,0,0,1,.75,2.38v1h5.42c0-.18.07-.49.11-.93a11.85,11.85,0,0,0,.07-1.33,7.4,7.4,0,0,0-1.67-5.07A5.94,5.94,0,0,0,136.65,13.87Zm29.57,5.2A11.84,11.84,0,0,1,167.66,25v1.29a11.84,11.84,0,0,1-1.44,5.95,9.75,9.75,0,0,1-4,3.87,12,12,0,0,1-5.69,1.33h-.71a12,12,0,0,1-5.68-1.33,9.69,9.69,0,0,1-4-3.87,11.84,11.84,0,0,1-1.44-5.95V25a11.84,11.84,0,0,1,1.44-5.95,9.69,9.69,0,0,1,4-3.87,12,12,0,0,1,5.68-1.33h.71a12,12,0,0,1,5.69,1.33A9.75,9.75,0,0,1,166.22,19.07Zm-5.13,4.8a5.8,5.8,0,0,0-1.36-4.14,5.1,5.1,0,0,0-7.06,0,5.76,5.76,0,0,0-1.36,4.14v3.59a5.71,5.71,0,0,0,1.36,4.13,5.07,5.07,0,0,0,7.06,0,5.76,5.76,0,0,0,1.36-4.13Zm24.5-.12a40.4,40.4,0,0,0-4.83-1,23.18,23.18,0,0,1-3.84-.84,1.6,1.6,0,0,1-1.22-1.56,1.63,1.63,0,0,1,1.13-1.46,7.06,7.06,0,0,1,3-.54q4.09,0,4.09,2.67h5.68s0-.14.05-.34a4.14,4.14,0,0,0,0-.64,4.62,4.62,0,0,0-1.28-3.18,8.63,8.63,0,0,0-3.4-2.17,12.81,12.81,0,0,0-4.47-.78h-.89a14.17,14.17,0,0,0-4.91.82,8.23,8.23,0,0,0-3.59,2.45,5.89,5.89,0,0,0-1.36,3.93A5.62,5.62,0,0,0,171.1,25a7.06,7.06,0,0,0,3.13,2,36,36,0,0,0,4.67,1.07,17.7,17.7,0,0,1,4,.93,1.84,1.84,0,0,1,1.28,1.78c0,.77-.46,1.33-1.4,1.69a9,9,0,0,1-3.17.53,7.6,7.6,0,0,1-3.42-.69,2.33,2.33,0,0,1-1.38-2.24v-.31h-5.69l0,.88a5.63,5.63,0,0,0,1.22,3.56,7.93,7.93,0,0,0,3.4,2.4,13.59,13.59,0,0,0,4.93.84h1.47a13.33,13.33,0,0,0,7.24-1.8c1.89-1.2,2.84-3.14,2.84-5.84a5.67,5.67,0,0,0-1.38-4.07A7.39,7.39,0,0,0,185.59,23.75Zm7.92,6.74V37H200V30.49Z"/></svg>