<?xml version="1.0" encoding="utf-8"?><svg xmlns="http://www.w3.org/2000/svg" xmlns:xlink="http://www.w3.org/1999/xlink"><symbol fill="none" viewBox="0 0 105 28" id="icons--Logo" xmlns="http://www.w3.org/2000/svg"><path d="M104.204 20.76v-4.789H0v7.181h2.397v-4.789h99.416v4.789h2.391V20.76zm-4.4-8.136c-1.201 0-2.213-.271-3.036-.808a4.277 4.277 0 01-1.732-2.192l2.05-1.196c.474 1.237 1.405 1.855 2.79 1.855.669 0 1.16-.123 1.472-.363.311-.245.47-.547.47-.92 0-.43-.189-.761-.573-.996-.383-.236-1.063-.496-2.05-.772a13.072 13.072 0 01-1.38-.486 6.09 6.09 0 01-1.129-.649 2.667 2.667 0 01-.858-1.032c-.2-.42-.297-.905-.297-1.457 0-1.099.389-1.973 1.17-2.627C97.485.327 98.42 0 99.519 0c.981 0 1.845.24 2.591.72.746.481 1.329 1.15 1.743 2.004l-2.014 1.16c-.485-1.042-1.262-1.559-2.325-1.559-.496 0-.89.113-1.17.338a1.056 1.056 0 00-.425.874c0 .383.159.69.475.93.317.24.93.496 1.83.772.368.117.649.204.843.27.19.067.45.164.782.297.333.133.583.255.762.373.179.118.383.27.618.47.23.194.409.399.532.608.122.21.225.46.312.757.086.296.132.618.132.96 0 1.12-.408 2.014-1.221 2.674-.813.649-1.876.976-3.179.976zM7.477 1.42C6.68.635 5.7.24 4.528.24H0v2.24h4.528c.511 0 .93.174 1.268.521.337.348.5.787.5 1.319 0 .521-.168.955-.5 1.308-.338.353-.757.526-1.268.526H0v6.225h2.392V8.387h2.131c1.165 0 2.152-.394 2.949-1.18.797-.788 1.196-1.754 1.196-2.899.005-1.14-.394-2.105-1.19-2.887zM17.172.24h2.392v12.144h-2.392V.24zm13.983 9.849h4.63v2.29h-7.021V.234h2.392v9.854zm15.313 0h4.63v2.29h-7.022V.234h2.392v9.854zm21.072 2.294h2.6L65.874.24H62.91l-4.247 12.143h8.878zm-5.484-2.396l.684-2.03 1.666-4.962 1.667 4.963.674 2.029h-4.691zm22.758-2.183a4.036 4.036 0 001.702-1.446c.43-.644.639-1.34.639-2.09 0-1.11-.394-2.06-1.18-2.847C85.186.634 84.23.24 83.111.24h-4.855v2.238h4.855c.45 0 .838.174 1.16.521.322.348.486.772.486 1.268 0 .495-.164.925-.486 1.272-.322.353-.71.527-1.16.527h-4.855v6.311h2.392V8.162h1.82l2.447 4.216h2.586l-2.688-4.574z" fill="#fff"/><path d="M14.402 20.786v6.44h-.848V22.19l-2.106 3.506h-.112L9.23 22.202v5.023h-.853v-6.44h.966l2.05 3.405 2.043-3.404h.966zm14.556 5.586a3.22 3.22 0 01-2.366.976c-.93 0-1.723-.327-2.367-.976-.644-.65-.966-1.436-.966-2.366 0-.93.322-1.723.966-2.367.644-.649 1.431-.97 2.367-.97.935 0 1.722.321 2.366.97.644.65.971 1.436.971 2.367 0 .925-.322 1.717-.971 2.366zm-4.14-.583c.476.48 1.063.72 1.774.72.705 0 1.293-.24 1.773-.72s.71-1.073.71-1.778c0-.71-.24-1.309-.71-1.79-.475-.48-1.063-.72-1.773-.72-.706 0-1.293.24-1.774.72-.475.481-.715 1.08-.715 1.79.005.7.24 1.293.715 1.778zm14.816.629h2.78v.808h-3.633v-6.44h.853v5.632zm13.968-5.632c.88 0 1.605.312 2.188.935.582.624.869 1.385.869 2.285 0 .9-.292 1.666-.87 2.284-.577.624-1.308.936-2.187.936h-2.51v-6.44h2.51zm0 5.632c.655 0 1.191-.23 1.61-.69.42-.46.624-1.032.624-1.722 0-.685-.21-1.263-.624-1.723-.414-.46-.956-.69-1.61-.69h-1.656v4.82l1.656.005zm11.908-5.632h.854v6.44h-.854v-6.44zm14.06 0h.854v6.44h-.69l-3.312-4.81v4.81h-.853v-6.44h.69l3.311 4.804v-4.804zm16.263 3.25v.389c0 .838-.286 1.538-.864 2.09-.577.552-1.339.833-2.29.833-.98 0-1.793-.322-2.432-.971-.639-.65-.961-1.436-.961-2.366 0-.93.322-1.723.96-2.367.64-.644 1.447-.97 2.418-.97.593 0 1.14.142 1.636.429.496.286.879.659 1.15 1.13l-.736.434a2.096 2.096 0 00-.833-.844 2.412 2.412 0 00-1.227-.317c-.736 0-1.339.24-1.814.721-.476.48-.71 1.078-.71 1.789 0 .71.234 1.308.71 1.784.475.475 1.088.715 1.845.715.644 0 1.165-.158 1.564-.475.398-.317.639-.726.725-1.227h-2.366v-.772l3.225-.005z" fill="#fff"/></symbol><symbol fill="none" viewBox="0 0 34 18" id="icons--close" xmlns="http://www.w3.org/2000/svg"><path d="M33 1L1 17M1 1l32 16" stroke="#fff" stroke-width="2"/></symbol><symbol fill="none" viewBox="0 0 50 50" id="icons--facebook" xmlns="http://www.w3.org/2000/svg"><path fill-rule="evenodd" clip-rule="evenodd" d="M0 0v50h50V0H0zm33.077 13.76H29.17c-.774 0-1.555.8-1.555 1.395v3.985h5.456a75.61 75.61 0 01-.671 5.85h-4.813v17.318h-7.172v-17.32h-3.491v-5.827h3.491v-4.764c0-.872-.177-6.705 7.348-6.705h5.316v6.068z" fill="#fff"/></symbol><symbol fill="none" viewBox="0 0 50 50" id="icons--instagram" xmlns="http://www.w3.org/2000/svg"><path fill-rule="evenodd" clip-rule="evenodd" d="M33.575 11.461h-17.15a4.97 4.97 0 00-4.964 4.965v17.149a4.97 4.97 0 004.964 4.964h17.15a4.97 4.97 0 004.964-4.964v-17.15a4.97 4.97 0 00-4.964-4.964zM25 33.914c-4.915 0-8.914-3.999-8.914-8.914 0-4.915 4-8.914 8.914-8.914 4.915 0 8.914 4 8.914 8.914 0 4.915-3.999 8.914-8.914 8.914zm9.2-15.985a2.112 2.112 0 01-2.109-2.109c0-1.163.946-2.109 2.11-2.109 1.163 0 2.109.946 2.109 2.11a2.111 2.111 0 01-2.11 2.108z" fill="#fff"/><path fill-rule="evenodd" clip-rule="evenodd" d="M25 19.853A5.154 5.154 0 0019.852 25 5.155 5.155 0 0025 30.148 5.154 5.154 0 0030.147 25 5.153 5.153 0 0025 19.853z" fill="#fff"/><path fill-rule="evenodd" clip-rule="evenodd" d="M0 0v50h50V0H0zm42.306 33.575c0 4.815-3.916 8.73-8.731 8.73h-17.15c-4.814 0-8.73-3.915-8.73-8.73v-17.15c0-4.814 3.916-8.73 8.73-8.73h17.15c4.815 0 8.73 3.916 8.73 8.73v17.15z" fill="#fff"/></symbol><symbol fill="none" viewBox="0 0 32 18" id="icons--open" xmlns="http://www.w3.org/2000/svg"><path d="M32 1H0m32 8H0m32 8H0" stroke="#fff" stroke-width="2"/></symbol><symbol fill="none" viewBox="0 0 80 78" id="icons--services_icon_1" xmlns="http://www.w3.org/2000/svg"><path d="M42 11.011h-2.522V2.874L37 3.607V1.671L41.769 0H42v11.011z" fill="#000"/><path d="M80 27.949l-.02.02-2.92 3.653-.95 1.192L50 65.487l-8.6 10.761L40 78 30 65.487 3.89 32.814l-.95-1.192L.02 27.97 0 27.95h.04c.41-.33.83-.661 1.26-.981.24-.18.48-.37.73-.55A63.654 63.654 0 0139 13.943l1-.01 1 .01a63.654 63.654 0 0136.97 12.473c.25.18.49.37.73.55.43.321.85.651 1.26.982H80z" fill="#828282"/><path d="M40 61.984c-2.36 0-4.6.51-6.62 1.431L11.75 28.77 30.9 64.826c-.31.21-.61.43-.9.661l3.72 4.655L40 78l1.4-1.752 8.6-10.76a15.958 15.958 0 00-10-3.504zM77.947 19.17H80v1.637h-2.053v2.217h-1.894v-2.217H74V19.17h2.053v-2.152h1.894v2.152zM6 21.022H0V19.02h6v2.002zm35.5-7.088h-3v7.008h3v-7.008zM80 27.949l-.02.02-2.92 3.653-.95 1.192-1.95-1.532 3.81-4.865c.25.18.49.37.73.55.43.32.85.651 1.26.982H80zM5.84 31.282l-1.95 1.532-.95-1.192L.02 27.97 0 27.95h.04c.41-.33.83-.661 1.26-.981.24-.18.48-.37.73-.55l3.81 4.864z" fill="#000"/></symbol><symbol fill="none" viewBox="0 0 80 80" id="icons--services_icon_2" xmlns="http://www.w3.org/2000/svg"><path d="M40.07 10c-16.57 0-30 13.43-30 30s13.43 30 30 30 30-13.43 30-30-13.43-30-30-30zm0 45c-11.05 0-15-3.95-15-15s3.95-15 15-15 15 3.95 15 15-3.95 15-15 15z" fill="#828282"/><path d="M80 40H0m40 40V0" stroke="#000" stroke-width="2" stroke-miterlimit="10" stroke-dasharray="15 5"/><path d="M78.58 34.76C75.79 16.92 61.21 3 43.07 1.2" stroke="#000" stroke-width="1.5" stroke-miterlimit="10"/><path d="M80 29.67l-.78-.14-.9 5.17-2.63-4.53-.69.4L78.73 37 80 29.67z" fill="#000"/><path d="M1.56 45.24C4.35 63.08 18.93 77 37.07 78.8" stroke="#000" stroke-width="1.5" stroke-miterlimit="10"/><path d="M0 50.33l.78.14.9-5.17 2.63 4.53.69-.4L1.27 43 0 50.33z" fill="#000"/></symbol><symbol fill="none" viewBox="0 0 82 52" id="icons--services_icon_3" xmlns="http://www.w3.org/2000/svg"><path d="M81 1H1v50h80V1z" stroke="#000" stroke-width="2" stroke-miterlimit="10"/><path d="M81 40H52v11h29V40z" stroke="#000" stroke-width="2" stroke-miterlimit="10"/><path d="M38 7H12v17h26V7zm37 0H43v23h32V7zM38 27H12v17h26V27z" fill="#828282"/><path d="M59 42l3 5 11-19" stroke="#000" stroke-width="2" stroke-miterlimit="10"/></symbol><symbol fill="none" viewBox="0 0 80 70" id="icons--services_icon_4" xmlns="http://www.w3.org/2000/svg"><path d="M56.97 45L40 28.03 23.03 45H0v25h80V45H56.97z" fill="#828282"/><path d="M80 35H56.97L40 18.03 23.03 35H0" stroke="#000" stroke-width="3" stroke-miterlimit="10"/><path d="M22.5 0v22.74" stroke="#000" stroke-width="1.5" stroke-miterlimit="10"/><path d="M19.96 18.01l.75-.27 1.79 4.92 1.79-4.92.75.27L22.5 25l-2.54-6.99z" fill="#000"/><path d="M57.5 0v22.74" stroke="#000" stroke-width="1.5" stroke-miterlimit="10"/><path d="M54.96 18.01l.75-.27 1.79 4.92 1.79-4.92.75.27L57.5 25l-2.54-6.99z" fill="#000"/></symbol><symbol fill="none" viewBox="0 0 81 83" id="icons--services_icon_5" xmlns="http://www.w3.org/2000/svg"><path d="M55 54l-8 27H0l48-33 7 6z" fill="#828282"/><path d="M80 35L54.72 54.57l-6.64-6.65L80 1" stroke="#000" stroke-width="2" stroke-miterlimit="10"/><path d="M80 81H0" stroke="#000" stroke-width="3" stroke-miterlimit="10"/><path d="M49 61a1 1 0 100-2 1 1 0 000 2zm-2 7a1 1 0 100-2 1 1 0 000 2zm-11 8a1 1 0 100-2 1 1 0 000 2zm7-4a1 1 0 100-2 1 1 0 000 2zm-3-12a1 1 0 100-2 1 1 0 000 2zM26 71a1 1 0 100-2 1 1 0 000 2zm-5 7a1 1 0 100-2 1 1 0 000 2zm23.5-18a.5.5 0 100-1 .5.5 0 000 1zm-7 9a.5.5 0 100-1 .5.5 0 000 1zm-17 2a.5.5 0 100-1 .5.5 0 000 1zM31 70a1 1 0 100-2 1 1 0 000 2zm19.5-14a.5.5 0 100-1 .5.5 0 000 1zm-6 21a1.5 1.5 0 100-3 1.5 1.5 0 000 3zm-2-11a1.5 1.5 0 100-3 1.5 1.5 0 000 3zm-29 11a1.5 1.5 0 100-3 1.5 1.5 0 000 3zm19-13a1.5 1.5 0 100-3 1.5 1.5 0 000 3zm-4 14a1.5 1.5 0 100-3 1.5 1.5 0 000 3zm17-23a1.5 1.5 0 100-3 1.5 1.5 0 000 3z" fill="#000"/></symbol><symbol fill="none" viewBox="0 0 80 80" id="icons--services_icon_6" xmlns="http://www.w3.org/2000/svg"><path d="M70.5 9h-40v46h40V9zm-21 68h-40l21-22h40l-21 22z" fill="#828282"/><path d="M24.5 2.26V55h52.74" stroke="#000" stroke-width="1.5" stroke-miterlimit="10"/><path d="M21.96 6.99l.75.27 1.79-4.92 1.79 4.92.75-.27L24.5 0l-2.54 6.99zm50.55 50.55l-.27-.75L77.16 55l-4.92-1.79.27-.75L79.5 55l-6.99 2.54z" fill="#000"/><path d="M25 54.5L1.6 77.9" stroke="#000" stroke-width="1.5" stroke-miterlimit="10"/><path d="M3.14 72.76l.73.34-2.22 4.75 4.75-2.22.34.73L0 79.5l3.14-6.74zm73.35-27.83L77.55 43h2.353L78 46.405 80 50h-2.353l-1.137-2.062L75.392 50H73l2.02-3.595L73.118 43h2.372l1 1.93zM3.471 65.6L4.654 62H7l-2.88 7.477-.115.277C3.605 70.584 2.88 71 1.85 71c-.286 0-.591-.035-.915-.121v-1.42h.286c.305 0 .553-.034.705-.12a.73.73 0 00.363-.433l.171-.433L0 62h2.346l1.125 3.6zM16.77 5.316H20V7h-6V5.79l3.134-4.106h-3V0h5.79v1.173L16.77 5.316z" fill="#000"/></symbol><symbol fill="none" viewBox="0 0 50 50" id="icons--vk" xmlns="http://www.w3.org/2000/svg"><path fill-rule="evenodd" clip-rule="evenodd" d="M0 0v50h50V0H0zm37.483 27.662c1.148 1.12 2.362 2.174 3.392 3.412.455.547.886 1.112 1.214 1.745.466.909.044 1.903-.768 1.958l-5.04-.002c-1.302.107-2.339-.417-3.213-1.308-.696-.709-1.346-1.467-2.017-2.2a4.754 4.754 0 00-.906-.81c-.688-.445-1.286-.31-1.68.407-.4.731-.494 1.542-.53 2.356-.055 1.188-.414 1.498-1.606 1.555-2.55.118-4.969-.27-7.215-1.553-1.984-1.133-3.519-2.734-4.855-4.545-2.605-3.53-4.6-7.405-6.391-11.392-.405-.899-.11-1.38.879-1.398 1.647-.032 3.294-.028 4.939-.002.669.011 1.113.394 1.369 1.026.89 2.187 1.979 4.27 3.346 6.2.365.515.737 1.026 1.264 1.39.584.402 1.03.27 1.306-.384.175-.415.252-.857.288-1.301.131-1.52.147-3.042-.079-4.557-.14-.948-.675-1.56-1.62-1.74-.481-.091-.41-.268-.177-.544.407-.474.79-.77 1.548-.77h5.698c.898.175 1.1.58 1.222 1.483l.005 6.332c-.011.35.175 1.386.802 1.616.503.166.838-.239 1.14-.558 1.364-1.448 2.338-3.16 3.208-4.932.385-.778.718-1.587 1.041-2.397.239-.6.61-.894 1.286-.884l5.486.007c.161 0 .328 0 .487.026.923.16 1.177.558.89 1.461-.448 1.415-1.325 2.596-2.18 3.78-.917 1.266-1.892 2.488-2.802 3.761-.83 1.166-.765 1.752.27 2.762z" fill="#fff"/></symbol></svg>