<?xml version="1.0" encoding="utf-8"?><svg xmlns="http://www.w3.org/2000/svg" xmlns:xlink="http://www.w3.org/1999/xlink"><symbol viewBox="0 0 6.17 13" id="icons--arrow_left" xmlns="http://www.w3.org/2000/svg"><path class="aa" d="M5.67 13a.49.49 0 0 1-.35-.15L.73 8.27a2.51 2.51 0 0 1 0-3.54L5.32.15a.48.48 0 0 1 .7 0 .48.48 0 0 1 0 .7L1.44 5.44a1.49 1.49 0 0 0 0 2.12L6 12.15a.48.48 0 0 1 0 .7.47.47 0 0 1-.33.15z"/></symbol><symbol viewBox="0 0 6.17 13" id="icons--arrow_right" xmlns="http://www.w3.org/2000/svg"><path class="ba" d="M.5 0a.47.47 0 0 1 .35.15l4.59 4.58a2.51 2.51 0 0 1 0 3.54L.85 12.85a.48.48 0 0 1-.7 0 .48.48 0 0 1 0-.7l4.58-4.59a1.49 1.49 0 0 0 0-2.12L.15.85a.48.48 0 0 1 0-.7A.47.47 0 0 1 .5 0z"/></symbol><symbol viewBox="0 0 48 48" id="icons--behance" xmlns="http://www.w3.org/2000/svg"><defs><style>.ca{fill:#2d9ad2}.cb{fill:#fff}</style></defs><path class="ca" d="M48 24A24 24 0 1 1 24 0a24 24 0 0 1 24 24"/><path class="cb" d="M13.15 34h5.41s5.91-.22 5.91-6.2c0 0 .26-4.86-3.48-4.86 0 0 2.84-.22 2.84-3.72S21.51 14 18.56 14H9.12v20h4zm0-16.52h5.41s1.32 0 1.32 2-.77 2.33-1.65 2.33h-5.08zm0 7.39h5.41s2 0 2 2.69c0 2.29-1.46 2.53-2.23 2.54h-5.18zM32.36 19c-7.16 0-7.15 7.53-7.15 7.53S24.72 34 32.36 34c0 0 6.36.38 6.36-5.21h-3.27s.11 2.1-3 2.1a3.08 3.08 0 0 1-3.28-3.41h9.64S39.89 19 32.36 19m-3.21 5.89s.4-3 3.28-3 2.84 3 2.84 3zm-.8-9.74h7.68V17h-7.68z"/><path class="ca" d="M48 24A24 24 0 1 1 24 0a24 24 0 0 1 24 24"/><path class="cb" d="M13.15 34h5.41s5.91-.22 5.91-6.2c0 0 .26-4.86-3.48-4.86 0 0 2.84-.22 2.84-3.72S21.51 14 18.56 14H9.12v20h4zm0-16.52h5.41s1.32 0 1.32 2-.77 2.33-1.65 2.33h-5.08zm0 7.39h5.41s2 0 2 2.69c0 2.29-1.46 2.53-2.23 2.54h-5.18zM32.36 19c-7.16 0-7.15 7.53-7.15 7.53S24.72 34 32.36 34c0 0 6.36.38 6.36-5.21h-3.27s.11 2.1-3 2.1a3.08 3.08 0 0 1-3.28-3.41h9.64S39.89 19 32.36 19m-3.21 5.89s.4-3 3.28-3 2.84 3 2.84 3zm-.8-9.74h7.68V17h-7.68z"/><path class="ca" d="M48 24A24 24 0 1 1 24 0a24 24 0 0 1 24 24"/><path class="cb" d="M13.15 34h5.41s5.91-.22 5.91-6.2c0 0 .26-4.86-3.48-4.86 0 0 2.84-.22 2.84-3.72S21.51 14 18.56 14H9.12v20h4zm0-16.52h5.41s1.32 0 1.32 2-.77 2.33-1.65 2.33h-5.08zm0 7.39h5.41s2 0 2 2.69c0 2.29-1.46 2.53-2.23 2.54h-5.18zM32.36 19c-7.16 0-7.15 7.53-7.15 7.53S24.72 34 32.36 34c0 0 6.36.38 6.36-5.21h-3.27s.11 2.1-3 2.1a3.08 3.08 0 0 1-3.28-3.41h9.64S39.89 19 32.36 19m-3.21 5.89s.4-3 3.28-3 2.84 3 2.84 3zm-.8-9.74h7.68V17h-7.68z"/></symbol><symbol viewBox="0 0 97.75 97.75" id="icons--behancee" xmlns="http://www.w3.org/2000/svg"><path d="M39.337 38.729c0-4.611-3.137-4.611-3.137-4.611H23.294v9.894H35.4c2.092-.001 3.937-.67 3.937-5.283zm-3.136 12.117H23.294v11.85h12.311c1.852-.053 5.27-.633 5.27-5.76 0-6.152-4.674-6.09-4.674-6.09zm33.042-6.835c-6.849 0-7.804 6.835-7.804 6.835h14.565c.001 0 .088-6.835-6.761-6.835z"/><path d="M48.875 0C21.882 0 0 21.883 0 48.875S21.882 97.75 48.875 97.75 97.75 75.867 97.75 48.875 75.868 0 48.875 0zm10.656 28.848h18.294v5.46H59.531v-5.46zm-9.246 28.638c0 13.533-14.084 13.088-14.084 13.088H13.128V26.236H36.2c7.012 0 12.547 3.871 12.547 11.805 0 7.935-6.766 8.438-6.766 8.438 8.919 0 8.304 11.007 8.304 11.007zm19.045 6.993c7.37 0 7.109-4.77 7.109-4.77h7.803c0 12.659-15.172 11.792-15.172 11.792-18.207 0-17.036-16.95-17.036-16.95s-.014-17.034 17.034-17.034c17.947 0 15.434 19.245 15.434 19.245H61.527c0 8.239 7.803 7.717 7.803 7.717z"/></symbol><symbol viewBox="0 0 148.85 148.75" id="icons--cell-phone" xmlns="http://www.w3.org/2000/svg"><defs><clipPath id="ea"><path d="M0 0h149v149.01H0z"/></clipPath></defs><g clip-path="url(#ea)"><path d="M148.78 117.39a7.21 7.21 0 0 1-2.21 6.31l-21 20.79a11.54 11.54 0 0 1-3.7 2.68 15.15 15.15 0 0 1-4.49 1.42l-1 .08c-.52.05-1.2.08-2 .08a73.14 73.14 0 0 1-9.69-1 74 74 0 0 1-16.38-5 137.73 137.73 0 0 1-22-12.05q-12.28-8-26.15-22.06a171.88 171.88 0 0 1-18.28-20.8 148.44 148.44 0 0 1-11.61-18.43 98.93 98.93 0 0 1-6.62-15.28 80.43 80.43 0 0 1-3-11.82 38.32 38.32 0 0 1-.65-7.8q.15-2.84.15-3.15a15.45 15.45 0 0 1 1.45-4.49 11.9 11.9 0 0 1 2.68-3.71l21-20.95a6.94 6.94 0 0 1 5-2.21 5.84 5.84 0 0 1 3.62 1.18 10.71 10.71 0 0 1 2.68 2.92l16.86 32a7.66 7.66 0 0 1 .79 5.52 9.75 9.75 0 0 1-2.68 5l-7.72 7.72a2.64 2.64 0 0 0-.55 1 3.79 3.79 0 0 0-.28 1.23 28.35 28.35 0 0 0 2.84 7.56 68.78 68.78 0 0 0 5.83 9.22A103.43 103.43 0 0 0 62.9 85.88a104.4 104.4 0 0 0 12.6 11.26 72.7 72.7 0 0 0 9.22 5.91 25.06 25.06 0 0 0 5.67 2.29l2 .39a3.71 3.71 0 0 0 1-.24 2.53 2.53 0 0 0 1-.55l9-9.14a9.68 9.68 0 0 1 6.61-2.52 8.25 8.25 0 0 1 4.26 1h.15l30.42 18a8 8 0 0 1 3.94 5.2z"/></g></symbol><symbol viewBox="0 0 17 17" id="icons--circle_arrow_down" xmlns="http://www.w3.org/2000/svg"><defs><style>.fa{fill:#231815}</style></defs><path class="fa" d="M8.5 17A8.5 8.5 0 1 1 17 8.5 8.51 8.51 0 0 1 8.5 17zm0-16A7.5 7.5 0 1 0 16 8.5 7.5 7.5 0 0 0 8.5 1z"/><path class="fa" d="M8.5 10.58a1.33 1.33 0 0 1-.94-.39L5.65 8.28a.5.5 0 0 1 0-.71.48.48 0 0 1 .7 0l1.91 1.91a.34.34 0 0 0 .48 0l1.91-1.91a.48.48 0 0 1 .7 0 .5.5 0 0 1 0 .71l-1.91 1.91a1.33 1.33 0 0 1-.94.39z"/></symbol><symbol viewBox="0 0 60 60" id="icons--clock" xmlns="http://www.w3.org/2000/svg"><path d="M50.5 9.49a29 29 0 1 1-41 0 29 29 0 0 1 41 0z" stroke-linecap="round" stroke-linejoin="round" stroke-width="2"/><path stroke-linecap="round" stroke-linejoin="round" stroke-width="2" d="M30.03 6.75V30.5h18.1"/></symbol><symbol viewBox="0 0 57 47" id="icons--display" xmlns="http://www.w3.org/2000/svg"><path d="M56 33.6a3.22 3.22 0 0 1-3 3.4H4a3.22 3.22 0 0 1-3-3.4V4.4A3.22 3.22 0 0 1 4 1h49a3.22 3.22 0 0 1 3 3.4z" stroke-linejoin="bevel" stroke-width="2"/><path d="M.25 27h56.5v2H.25zM27.5 37h2v9h-2z"/><path d="M18 45h21v2H18z"/><circle cx="28.5" cy="32.5" r="1.5"/></symbol><symbol viewBox="0 0 48 48" id="icons--dribbble" xmlns="http://www.w3.org/2000/svg"><defs><style>.ia{fill:#f872a3}.ib{fill:#fff}</style></defs><path class="ia" d="M48 24A24 24 0 1 1 24 0a24 24 0 0 1 24 24"/><path class="ib" d="M37.82 18.16a14.61 14.61 0 0 0-1.38-2.55 15.53 15.53 0 0 0-1.83-2.22 16.24 16.24 0 0 0-2.22-1.83 15.3 15.3 0 0 0-2.55-1.38A15 15 0 0 0 21 9.31a14.83 14.83 0 0 0-2.82.87 15.71 15.71 0 0 0-2.55 1.38 15 15 0 0 0-4 4 15.3 15.3 0 0 0-1.38 2.55A14.83 14.83 0 0 0 9.31 21a15.1 15.1 0 0 0 .87 8.86 15.3 15.3 0 0 0 1.38 2.55 16.24 16.24 0 0 0 1.83 2.22 15.53 15.53 0 0 0 2.22 1.83A15.14 15.14 0 0 0 21 38.7a15 15 0 0 0 11.41-2.26 15 15 0 0 0 4-4 14.61 14.61 0 0 0 1.38-2.55A15.14 15.14 0 0 0 38.7 21a15.61 15.61 0 0 0-.88-2.82M24 11.19a12.76 12.76 0 0 1 8.46 3.2s-1.85 2.82-6.69 4.61A64.23 64.23 0 0 0 21 11.55a13.07 13.07 0 0 1 3-.36m-5.46 1.22a76.41 76.41 0 0 1 4.75 7.38 47 47 0 0 1-11.82 1.57 12.81 12.81 0 0 1 7.07-8.95m-4.07 20.15A12.76 12.76 0 0 1 11.19 24v-.4a47.41 47.41 0 0 0 13.15-1.83c.37.72.72 1.45 1 2.18a4.74 4.74 0 0 0-.5.15 20.27 20.27 0 0 0-10.42 8.45M24 36.81a12.77 12.77 0 0 1-7.87-2.71l-.29-.22.29.22c0-.06 2.49-5.37 10.05-8h.09A53.23 53.23 0 0 1 29 35.8a12.76 12.76 0 0 1-5 1m7.16-2.18a55.11 55.11 0 0 0-2.49-9.16 18.69 18.69 0 0 1 8 .56 12.87 12.87 0 0 1-5.49 8.6m-3.29-11.17c-.1-.22-.19-.44-.28-.66-.27-.63-.55-1.25-.85-1.86a16.44 16.44 0 0 0 7.14-5.07 12.79 12.79 0 0 1 2.91 8 29.79 29.79 0 0 0-8.92-.42"/><path class="ia" d="M48 24A24 24 0 1 1 24 0a24 24 0 0 1 24 24"/><path class="ib" d="M37.82 18.16a14.61 14.61 0 0 0-1.38-2.55 15.53 15.53 0 0 0-1.83-2.22 16.24 16.24 0 0 0-2.22-1.83 15.3 15.3 0 0 0-2.55-1.38A15 15 0 0 0 21 9.31a14.83 14.83 0 0 0-2.82.87 15.71 15.71 0 0 0-2.55 1.38 15 15 0 0 0-4 4 15.3 15.3 0 0 0-1.38 2.55A14.83 14.83 0 0 0 9.31 21a15.1 15.1 0 0 0 .87 8.86 15.3 15.3 0 0 0 1.38 2.55 16.24 16.24 0 0 0 1.83 2.22 15.53 15.53 0 0 0 2.22 1.83A15.14 15.14 0 0 0 21 38.7a15 15 0 0 0 11.41-2.26 15 15 0 0 0 4-4 14.61 14.61 0 0 0 1.38-2.55A15.14 15.14 0 0 0 38.7 21a15.61 15.61 0 0 0-.88-2.82M24 11.19a12.76 12.76 0 0 1 8.46 3.2s-1.85 2.82-6.69 4.61A64.23 64.23 0 0 0 21 11.55a13.07 13.07 0 0 1 3-.36m-5.46 1.22a76.41 76.41 0 0 1 4.75 7.38 47 47 0 0 1-11.82 1.57 12.81 12.81 0 0 1 7.07-8.95m-4.07 20.15A12.76 12.76 0 0 1 11.19 24v-.4a47.41 47.41 0 0 0 13.15-1.83c.37.72.72 1.45 1 2.18a4.74 4.74 0 0 0-.5.15 20.27 20.27 0 0 0-10.42 8.45M24 36.81a12.77 12.77 0 0 1-7.87-2.71l-.29-.22.29.22c0-.06 2.49-5.37 10.05-8h.09A53.23 53.23 0 0 1 29 35.8a12.76 12.76 0 0 1-5 1m7.16-2.18a55.11 55.11 0 0 0-2.49-9.16 18.69 18.69 0 0 1 8 .56 12.87 12.87 0 0 1-5.49 8.6m-3.29-11.17c-.1-.22-.19-.44-.28-.66-.27-.63-.55-1.25-.85-1.86a16.44 16.44 0 0 0 7.14-5.07 12.79 12.79 0 0 1 2.91 8 29.79 29.79 0 0 0-8.92-.42"/><path class="ia" d="M48 24A24 24 0 1 1 24 0a24 24 0 0 1 24 24"/><path class="ib" d="M37.82 18.16a14.61 14.61 0 0 0-1.38-2.55 15.53 15.53 0 0 0-1.83-2.22 16.24 16.24 0 0 0-2.22-1.83 15.3 15.3 0 0 0-2.55-1.38A15 15 0 0 0 21 9.31a14.83 14.83 0 0 0-2.82.87 15.71 15.71 0 0 0-2.55 1.38 15 15 0 0 0-4 4 15.3 15.3 0 0 0-1.38 2.55A14.83 14.83 0 0 0 9.31 21a15.1 15.1 0 0 0 .87 8.86 15.3 15.3 0 0 0 1.38 2.55 16.24 16.24 0 0 0 1.83 2.22 15.53 15.53 0 0 0 2.22 1.83A15.14 15.14 0 0 0 21 38.7a15 15 0 0 0 11.41-2.26 15 15 0 0 0 4-4 14.61 14.61 0 0 0 1.38-2.55A15.14 15.14 0 0 0 38.7 21a15.61 15.61 0 0 0-.88-2.82M24 11.19a12.76 12.76 0 0 1 8.46 3.2s-1.85 2.82-6.69 4.61A64.23 64.23 0 0 0 21 11.55a13.07 13.07 0 0 1 3-.36m-5.46 1.22a76.41 76.41 0 0 1 4.75 7.38 47 47 0 0 1-11.82 1.57 12.81 12.81 0 0 1 7.07-8.95m-4.07 20.15A12.76 12.76 0 0 1 11.19 24v-.4a47.41 47.41 0 0 0 13.15-1.83c.37.72.72 1.45 1 2.18a4.74 4.74 0 0 0-.5.15 20.27 20.27 0 0 0-10.42 8.45M24 36.81a12.77 12.77 0 0 1-7.87-2.71l-.29-.22.29.22c0-.06 2.49-5.37 10.05-8h.09A53.23 53.23 0 0 1 29 35.8a12.76 12.76 0 0 1-5 1m7.16-2.18a55.11 55.11 0 0 0-2.49-9.16 18.69 18.69 0 0 1 8 .56 12.87 12.87 0 0 1-5.49 8.6m-3.29-11.17c-.1-.22-.19-.44-.28-.66-.27-.63-.55-1.25-.85-1.86a16.44 16.44 0 0 0 7.14-5.07 12.79 12.79 0 0 1 2.91 8 29.79 29.79 0 0 0-8.92-.42"/></symbol><symbol viewBox="0 0 49.652 49.652" id="icons--dribbblee" xmlns="http://www.w3.org/2000/svg"><path d="M24.089 20.454c-2.305-4.097-4.769-7.435-4.945-7.674a13.342 13.342 0 0 0-7.351 9.301c.351.006 5.901.072 12.296-1.627zm-2.453-8.56c-.014.006-.028.009-.042.012l.04-.009.002-.003zm11.986 2.937a13.265 13.265 0 0 0-8.796-3.322c-1.082 0-2.132.132-3.139.375.2.264 2.701 3.587 4.979 7.771 5.026-1.886 6.924-4.772 6.956-4.824zm-6.528 12.175c-7.864 2.74-10.427 8.267-10.45 8.315a13.247 13.247 0 0 0 8.182 2.825c1.846 0 3.602-.378 5.2-1.058-.197-1.164-.973-5.242-2.846-10.11a.863.863 0 0 0-.086.028zm-1.346-2.076c.174-.057.35-.11.523-.159a41.35 41.35 0 0 0-1.08-2.265c-6.856 2.053-13.438 1.902-13.672 1.898-.005.14-.011.278-.011.42 0 3.422 1.291 6.541 3.411 8.901l-.005-.008c.001.004 3.646-6.464 10.834-8.787z"/><path d="M24.826 0C11.137 0 0 11.137 0 24.826c0 13.688 11.137 24.826 24.826 24.826 13.688 0 24.826-11.138 24.826-24.826C49.652 11.137 38.516 0 24.826 0zm15.278 27.969a15.686 15.686 0 0 1-.908 2.931 15.78 15.78 0 0 1-1.438 2.649 16.043 16.043 0 0 1-1.901 2.308 15.715 15.715 0 0 1-4.957 3.339c-.941.397-1.929.704-2.931.91a15.632 15.632 0 0 1-3.141.315 15.64 15.64 0 0 1-3.141-.315 15.72 15.72 0 0 1-2.931-.91 15.61 15.61 0 0 1-6.859-5.647 15.754 15.754 0 0 1-1.438-2.649 15.623 15.623 0 0 1-.91-2.931 15.706 15.706 0 0 1-.316-3.144A15.557 15.557 0 0 1 13.799 13.8a15.586 15.586 0 0 1 4.956-3.342 15.589 15.589 0 0 1 6.072-1.226 15.651 15.651 0 0 1 6.073 1.226c.926.392 1.815.873 2.649 1.438a15.617 15.617 0 0 1 4.209 4.211 15.62 15.62 0 0 1 1.438 2.647c.396.943.705 1.93.909 2.932.211 1.025.315 2.082.315 3.139 0 1.06-.106 2.115-.316 3.144z"/><path d="M29.676 26.36c1.748 4.8 2.457 8.709 2.592 9.514a13.332 13.332 0 0 0 5.709-8.933c-.276-.091-4.002-1.267-8.301-.581zm-1.987-4.723c.312.635.608 1.28.887 1.932.1.23.192.46.287.688 4.576-.574 9.084.396 9.274.437a13.246 13.246 0 0 0-3.026-8.326c-.023.035-2.16 3.123-7.422 5.269z"/></symbol><symbol viewBox="0 0 48 48" id="icons--facebook" xmlns="http://www.w3.org/2000/svg"><path d="M24 0a24 24 0 1 0 24 24A24 24 0 0 0 24 0zm6.45 24H26v15h-6V24h-3v-6h3v-2.71C20 12.83 21.14 9 26.29 9h4.63v5.14h-3.36a1.27 1.27 0 0 0-1.33 1.44V18H31z"/></symbol><symbol viewBox="0 0 48 48" id="icons--google" xmlns="http://www.w3.org/2000/svg"><defs><style>.la{fill:#f63d27}</style></defs><path class="la" d="M18.6 21.33a2.1 2.1 0 0 0 1.62-.74 4.32 4.32 0 0 0 .78-3.33c-.31-2.36-2-4.32-3.75-4.37h-.07a2.09 2.09 0 0 0-1.6.74 4.13 4.13 0 0 0-.76 3.26c.31 2.35 2 4.39 3.75 4.45zm1.93 7.11l-.53-.36a5.76 5.76 0 0 0-1.71-.26h-.07c-2.71 0-5.09 1.65-5.09 3.52 0 2 2 3.64 4.64 3.64 3.42 0 5.16-1.18 5.16-3.52a3.23 3.23 0 0 0-.08-.68c-.24-.91-1.07-1.48-2.32-2.34z"/><path class="la" d="M24 0a24 24 0 1 0 24 24A24 24 0 0 0 24 0zm-3 37.06a11.76 11.76 0 0 1-3.25.44 14.84 14.84 0 0 1-3.65-.44 7.06 7.06 0 0 1-4.62-3A3.86 3.86 0 0 1 9 32.19a4.71 4.71 0 0 1 .48-2c1.21-2.6 4.42-4.34 8-4.34h.11a3.14 3.14 0 0 1-.43-1.59 3.08 3.08 0 0 1 .11-.84A6.4 6.4 0 0 1 10.72 17c0-2.54 2-5 4.93-6a8 8 0 0 1 2.62-.45h8a.62.62 0 0 1 .59.43.61.61 0 0 1-.22.7l-1.78 1.3a.7.7 0 0 1-.37.11h-.64a6.18 6.18 0 0 1 1.31 4 6 6 0 0 1-2.49 4.66c-1.24 1-1.29 1.23-1.29 1.79a5.34 5.34 0 0 0 1.83 2 6.19 6.19 0 0 1 3 5.7c.01 2.57-2.03 4.9-5.21 5.82zm18-13.68a.63.63 0 0 1-.62.63h-4.53v4.53a.63.63 0 0 1-.62.63h-1.29a.63.63 0 0 1-.63-.63V24h-4.52a.63.63 0 0 1-.63-.63v-1.28a.63.63 0 0 1 .63-.63h4.52v-4.53a.63.63 0 0 1 .63-.63h1.29a.63.63 0 0 1 .62.63v4.53h4.53a.63.63 0 0 1 .62.63z"/></symbol><symbol viewBox="0 0 13 10" id="icons--hamburger" xmlns="http://www.w3.org/2000/svg"><defs><style>.ma{fill:#231815}</style></defs><path class="ma" d="M12.5 1H.5A.5.5 0 0 1 0 .5.5.5 0 0 1 .5 0h12a.5.5 0 0 1 .5.5.5.5 0 0 1-.5.5zm0 4.5H.5a.5.5 0 0 1 0-1h12a.5.5 0 0 1 0 1zm0 4.5H.5a.5.5 0 0 1 0-1h12a.5.5 0 0 1 0 1z"/></symbol><symbol viewBox="0 0 60 60" id="icons--info" xmlns="http://www.w3.org/2000/svg"><path d="M50.5 9.49a29 29 0 1 1-41 0 29 29 0 0 1 41 0zM30 26v20m0-20h-4m4 0h-4m8 20h-8" stroke-linecap="round" stroke-linejoin="round" stroke-width="2"/><circle cx="30" cy="16" r="3" stroke-linecap="round" stroke-linejoin="round" stroke-width="2"/></symbol><symbol viewBox="0 0 36 58" id="icons--measure" xmlns="http://www.w3.org/2000/svg"><defs><style>.oa{fill:none;stroke:#000;stroke-linecap:round;stroke-linejoin:round;stroke-width:2px}</style></defs><path class="oa" d="M7.76 5.15L5.51 1 3.25 5.15 1 9.3V57h9V9.3h.01L7.76 5.15z"/><path d="M1 10h9v2H1zm0 41h9v2H1z"/><path class="oa" d="M21 1h14v56H21z"/><path d="M26 8c0 .55-.32 1-.71 1h-3.58c-.39 0-.71-.45-.71-1s.32-1 .71-1h3.58c.39 0 .71.45.71 1zm2 7a1 1 0 0 1-1 1h-5a1 1 0 0 1-1-1 1 1 0 0 1 1-1h5a1 1 0 0 1 1 1zm-2 7c0 .55-.32 1-.71 1h-3.58c-.39 0-.71-.45-.71-1s.32-1 .71-1h3.58c.39 0 .71.45.71 1zm2 7a1 1 0 0 1-1 1h-5a1 1 0 0 1-1-1 1 1 0 0 1 1-1h5a1 1 0 0 1 1 1zm-2 7c0 .55-.32 1-.71 1h-3.58c-.39 0-.71-.45-.71-1s.32-1 .71-1h3.58c.39 0 .71.45.71 1zm2 7a1 1 0 0 1-1 1h-5a1 1 0 0 1-1-1 1 1 0 0 1 1-1h5a1 1 0 0 1 1 1zm-2 7c0 .55-.32 1-.71 1h-3.58c-.39 0-.71-.45-.71-1s.32-1 .71-1h3.58c.39 0 .71.45.71 1z"/></symbol><symbol viewBox="0 0 11.2 8" id="icons--message" xmlns="http://www.w3.org/2000/svg"><path d="M5.6 5.6L4.21 4.39l-4 3.39A.8.8 0 0 0 .8 8h9.59a.76.76 0 0 0 .55-.22L7 4.39z"/><path d="M10.94.22a.76.76 0 0 0-.55-.22H.8a.8.8 0 0 0-.55.22L5.6 4.8zM0 .7v6.65l3.87-3.29zm7.33 3.36l3.87 3.29V.7z"/></symbol><symbol viewBox="0 0 481.6 481.6" id="icons--monitor" xmlns="http://www.w3.org/2000/svg"><path d="M422.2 24.5H59.4C26.7 24.5 0 51.1 0 83.9V314c0 32.7 26.6 59.4 59.4 59.4h167.9v56.7h-83.7c-7.5 0-13.5 6-13.5 13.5s6 13.5 13.5 13.5H338c7.5 0 13.5-6 13.5-13.5s-6-13.5-13.5-13.5h-83.7v-56.7h167.9c32.7 0 59.4-26.6 59.4-59.4V83.9c0-32.8-26.6-59.4-59.4-59.4zm-362.8 27h362.9c17.8 0 32.4 14.5 32.4 32.4v192.3H27V83.9C27 66 41.5 51.5 59.4 51.5zm362.8 294.9H59.4C41.6 346.4 27 331.9 27 314v-10.8h427.6V314c0 17.8-14.5 32.4-32.4 32.4z"/></symbol><symbol viewBox="0 0 35 59" id="icons--phone" xmlns="http://www.w3.org/2000/svg"><rect x="1" y="1" width="33" height="57" rx="2.83" stroke-miterlimit="10" stroke-width="2"/><circle cx="17.5" cy="51.5" r="1.5"/><path d="M25 7a1 1 0 0 1-1 1H11a1 1 0 0 1-1-1 1 1 0 0 1 1-1h13a1 1 0 0 1 1 1z"/></symbol><symbol viewBox="0 0 54.59 57.17" id="icons--print" xmlns="http://www.w3.org/2000/svg"><defs><style>.sa{fill:none;stroke:#000;stroke-width:2px;stroke-linecap:round;stroke-linejoin:round}</style></defs><path class="sa" d="M12.51 1h29.56v12.72H12.51zm0 31.97h29.56v23.2H12.51z"/><path d="M50.61 13.72H4a3.07 3.07 0 0 0-3 3.15v25A3.07 3.07 0 0 0 4 45h8.53V33h29.54v12h8.54a3.07 3.07 0 0 0 3-3.15v-25a3.07 3.07 0 0 0-3-3.13z" stroke-miterlimit="10" stroke-width="2"/><circle cx="39.83" cy="21.67" r="1.5"/><circle cx="44.83" cy="21.67" r="1.5"/></symbol><symbol viewBox="0 0 487.381 487.381" id="icons--printer" xmlns="http://www.w3.org/2000/svg"><path d="M400.1 100.918h-9.871V11.646C390.229 5.215 385.014 0 378.582 0H108.804c-6.436 0-11.646 5.215-11.646 11.646v89.271h-9.877c-38.523 0-69.871 31.344-69.871 69.871v144.258c0 38.528 31.348 69.87 69.871 69.87h9.877v90.818c0 6.432 5.21 11.646 11.646 11.646h269.778c6.432 0 11.646-5.215 11.646-11.646v-90.818h9.871c38.523 0 69.871-31.342 69.871-69.87V170.789c.001-38.528-31.347-69.871-69.87-69.871zM120.449 23.291h246.489v77.627H120.449V23.291zm246.489 440.801H120.449V320.465h246.489v143.627zm79.744-149.046c0 25.687-20.896 46.581-46.582 46.581h-9.871v-41.162h25.186c6.436 0 11.645-5.214 11.645-11.646 0-6.43-5.209-11.645-11.645-11.645H75.421c-6.431 0-11.646 5.215-11.646 11.645 0 6.433 5.215 11.646 11.646 11.646h21.737v41.162h-9.877c-25.685 0-46.581-20.896-46.581-46.581V170.789c0-25.685 20.896-46.58 46.581-46.58H400.1c25.684 0 46.58 20.896 46.58 46.58v144.257h.002z"/><path d="M378.582 170.646c-8.771 0-15.893 7.119-15.893 15.893s7.119 15.893 15.893 15.893c8.775 0 15.895-7.118 15.895-15.893-.002-8.774-7.12-15.893-15.895-15.893zM147.618 360.734h192.146c6.432 0 11.646-5.213 11.646-11.646 0-6.43-5.215-11.645-11.646-11.645H147.618c-6.431 0-11.646 5.215-11.646 11.645 0 6.433 5.215 11.646 11.646 11.646zm0 43.192h192.146c6.432 0 11.646-5.217 11.646-11.646 0-6.432-5.215-11.645-11.646-11.645H147.618c-6.431 0-11.646 5.213-11.646 11.645s5.215 11.646 11.646 11.646z"/></symbol><symbol viewBox="0 0 512 512" id="icons--ruler" xmlns="http://www.w3.org/2000/svg"><path d="M504.843 72.607L439.386 7.15c-9.534-9.534-25.048-9.533-34.582 0L281.561 130.392a7.903 7.903 0 0 0 11.175 11.176L415.978 18.326c1.634-1.634 3.806-2.533 6.116-2.533s4.482.899 6.116 2.533l65.458 65.457a8.593 8.593 0 0 1 2.533 6.116c0 2.31-.9 4.482-2.533 6.115l-16.064 16.064-42.089-42.088a7.903 7.903 0 0 0-11.175 11.176l42.088 42.088-18.353 18.353-18.498-18.498a7.903 7.903 0 0 0-11.175 11.176l18.498 18.497-18.353 18.353-18.498-18.498a7.903 7.903 0 0 0-11.175 11.176l18.498 18.497-18.353 18.353-42.089-42.09a7.903 7.903 0 0 0-11.175 11.176l42.089 42.089-18.353 18.353-18.498-18.498a7.903 7.903 0 0 0-11.175 11.176l18.497 18.497-15.526 15.526-77.689-77.689 14.45-14.451a7.903 7.903 0 0 0-11.175-11.176l-14.451 14.451L98.156 22.264C88.018 12.126 74.539 6.543 60.202 6.543c-14.337.001-27.816 5.584-37.953 15.722C12.11 32.403 6.527 45.881 6.527 60.219c0 14.337 5.583 27.816 15.721 37.954l145.765 145.765L7.157 404.797c-9.534 9.535-9.534 25.048 0 34.583l65.457 65.458A24.294 24.294 0 0 0 89.905 512a24.294 24.294 0 0 0 17.291-7.162L268.054 343.98l11.457 11.457a7.903 7.903 0 0 0 11.175-11.176l-15.814-15.814a7.89 7.89 0 0 0-1.09-1.371 7.92 7.92 0 0 0-1.37-1.09L101.189 154.763l21.191-21.191 13.102 13.102c1.543 1.542 3.565 2.314 5.588 2.314s4.045-.772 5.588-2.314a7.903 7.903 0 0 0 0-11.176l-13.101-13.101 21.191-21.191 83.579 83.579a.1.1 0 0 0 .01.011l.011.01 88.081 88.081c.218.288.45.57.713.833s.544.495.832.713l117.268 117.268-21.191 21.191-118.316-118.316c-.071-.077-.135-.158-.21-.232l-47.182-47.183c-.078-.078-.163-.146-.243-.22l-83.343-83.342a7.903 7.903 0 0 0-11.175 11.176l249.291 249.291-21.192 21.191-75.096-75.097a7.903 7.903 0 0 0-11.175 11.176l80.684 80.684a7.984 7.984 0 0 0 2.728 1.778l95.478 37.069a12.824 12.824 0 0 0 13.707-2.891 12.822 12.822 0 0 0 2.88-13.707l-37.108-95.434a7.993 7.993 0 0 0-1.777-2.725L343.963 268.071l160.88-160.881c9.535-9.535 9.535-25.048 0-34.583zM256.882 332.805l-15.507 15.503-18.498-18.498a7.903 7.903 0 0 0-11.175 11.176l18.498 18.498-18.353 18.353-42.089-42.089a7.903 7.903 0 0 0-11.175 11.176l42.089 42.089-18.353 18.353-18.498-18.498a7.903 7.903 0 0 0-11.175 11.176l18.498 18.497-18.353 18.353-18.498-18.498a7.903 7.903 0 0 0-11.175 11.176l18.498 18.498-18.353 18.353-42.089-42.089a7.903 7.903 0 0 0-11.175 11.176l42.089 42.088-16.064 16.064c-1.634 1.634-3.806 2.534-6.116 2.534s-4.482-.9-6.116-2.534l-65.457-65.458c-3.372-3.372-3.372-8.859 0-12.231l160.857-160.858 77.69 77.69zM33.423 86.998c-14.766-14.766-14.766-38.792 0-53.558 14.766-14.767 38.792-14.767 53.558 0l24.976 24.976-53.558 53.558-24.976-24.976zm83.375 29.805l-.005.005-.005.005-26.774 26.774-20.439-20.439 53.558-53.558 20.439 20.439-26.774 26.774zm366.905 366.878l-77.864-30.229 47.601-47.601 30.263 77.83z"/></symbol><symbol viewBox="0 0 472.811 472.811" id="icons--smartphone" xmlns="http://www.w3.org/2000/svg"><path d="M358.75 0H114.061C97.555 0 84.128 13.428 84.128 29.934v412.944c0 16.505 13.428 29.934 29.934 29.934H358.75c16.506 0 29.934-13.428 29.934-29.934V29.934C388.683 13.428 375.256 0 358.75 0zM99.128 75.236h274.556v312.687H99.128V75.236zM114.061 15H358.75c8.234 0 14.934 6.699 14.934 14.934v35.302H99.128V29.934c0-8.235 6.699-14.934 14.933-14.934zM358.75 457.811H114.061c-8.234 0-14.934-6.699-14.934-14.934v-44.955h274.556v44.955c0 8.235-6.699 14.934-14.933 14.934z"/><path d="M236.406 404.552c-13.545 0-24.564 11.02-24.564 24.565s11.02 24.564 24.564 24.564 24.564-11.02 24.564-24.564-11.019-24.565-24.564-24.565zm0 39.129c-8.031 0-14.564-6.534-14.564-14.564 0-8.031 6.533-14.565 14.564-14.565s14.564 6.534 14.564 14.565c0 8.03-6.533 14.564-14.564 14.564zm-34-396.036h68a5 5 0 1 0 0-10h-68a5 5 0 1 0 0 10zm-17.997 0c1.31 0 2.6-.53 3.53-1.46.93-.94 1.47-2.22 1.47-3.54s-.54-2.6-1.47-3.54a5.034 5.034 0 0 0-3.53-1.46c-1.32 0-2.601.53-3.54 1.46-.93.93-1.46 2.22-1.46 3.54s.53 2.6 1.46 3.54c.93.93 2.22 1.46 3.54 1.46z"/></symbol><symbol viewBox="0 0 48 48" id="icons--twitter" xmlns="http://www.w3.org/2000/svg"><path d="M24 0a24 24 0 1 0 24 24A24 24 0 0 0 24 0zm11.93 18v.78A17.25 17.25 0 0 1 18.44 36 17.64 17.64 0 0 1 9 33.28a14.17 14.17 0 0 0 1.47.08 12.48 12.48 0 0 0 7.64-2.59 6.16 6.16 0 0 1-5.75-4.21 6.42 6.42 0 0 0 1.16.11 6.28 6.28 0 0 0 1.63-.21 6.09 6.09 0 0 1-4.94-5.94v-.08a6.24 6.24 0 0 0 2.79.76 6 6 0 0 1-2.73-5 5.93 5.93 0 0 1 .83-3.05 17.55 17.55 0 0 0 12.69 6.33 5.73 5.73 0 0 1-.16-1.38 6.1 6.1 0 0 1 6.14-6.1 6.21 6.21 0 0 1 4.49 1.91 12.12 12.12 0 0 0 3.91-1.47 6.07 6.07 0 0 1-2.7 3.35 12.28 12.28 0 0 0 3.53-.95A12.38 12.38 0 0 1 35.93 18z"/></symbol></svg>