<svg width="50" height="50" fill="none" xmlns="http://www.w3.org/2000/svg"><path fill-rule="evenodd" clip-rule="evenodd" d="M33.575 11.461h-17.15a4.97 4.97 0 00-4.964 4.965v17.149a4.97 4.97 0 004.964 4.964h17.15a4.97 4.97 0 004.964-4.964v-17.15a4.97 4.97 0 00-4.964-4.964zM25 33.914c-4.915 0-8.914-3.999-8.914-8.914 0-4.915 4-8.914 8.914-8.914 4.915 0 8.914 4 8.914 8.914 0 4.915-3.999 8.914-8.914 8.914zm9.2-15.985a2.112 2.112 0 01-2.109-2.109c0-1.163.946-2.109 2.11-2.109 1.163 0 2.109.946 2.109 2.11a2.111 2.111 0 01-2.11 2.108z" fill="#fff"/><path fill-rule="evenodd" clip-rule="evenodd" d="M25 19.853A5.154 5.154 0 0019.852 25 5.155 5.155 0 0025 30.148 5.154 5.154 0 0030.147 25 5.153 5.153 0 0025 19.853z" fill="#fff"/><path fill-rule="evenodd" clip-rule="evenodd" d="M0 0v50h50V0H0zm42.306 33.575c0 4.815-3.916 8.73-8.731 8.73h-17.15c-4.814 0-8.73-3.915-8.73-8.73v-17.15c0-4.814 3.916-8.73 8.73-8.73h17.15c4.815 0 8.73 3.916 8.73 8.73v17.15z" fill="#fff"/></svg>