<svg width="105" height="28" fill="none" xmlns="http://www.w3.org/2000/svg"><path d="M104.204 20.76v-4.789H0v7.181h2.397v-4.789h99.416v4.789h2.391V20.76zm-4.4-8.136c-1.201 0-2.213-.271-3.036-.808a4.277 4.277 0 01-1.732-2.192l2.05-1.196c.474 1.237 1.405 1.855 2.79 1.855.669 0 1.16-.123 1.472-.363.311-.245.47-.547.47-.92 0-.43-.189-.761-.573-.996-.383-.236-1.063-.496-2.05-.772a13.072 13.072 0 01-1.38-.486 6.09 6.09 0 01-1.129-.649 2.667 2.667 0 01-.858-1.032c-.2-.42-.297-.905-.297-1.457 0-1.099.389-1.973 1.17-2.627C97.485.327 98.42 0 99.519 0c.981 0 1.845.24 2.591.72.746.481 1.329 1.15 1.743 2.004l-2.014 1.16c-.485-1.042-1.262-1.559-2.325-1.559-.496 0-.89.113-1.17.338a1.056 1.056 0 00-.425.874c0 .383.159.69.475.93.317.24.93.496 1.83.772.368.117.649.204.843.27.19.067.45.164.782.297.333.133.583.255.762.373.179.118.383.27.618.47.23.194.409.399.532.608.122.21.225.46.312.757.086.296.132.618.132.96 0 1.12-.408 2.014-1.221 2.674-.813.649-1.876.976-3.179.976zM7.477 1.42C6.68.635 5.7.24 4.528.24H0v2.24h4.528c.511 0 .93.174 1.268.521.337.348.5.787.5 1.319 0 .521-.168.955-.5 1.308-.338.353-.757.526-1.268.526H0v6.225h2.392V8.387h2.131c1.165 0 2.152-.394 2.949-1.18.797-.788 1.196-1.754 1.196-2.899.005-1.14-.394-2.105-1.19-2.887zM17.172.24h2.392v12.144h-2.392V.24zm13.983 9.849h4.63v2.29h-7.021V.234h2.392v9.854zm15.313 0h4.63v2.29h-7.022V.234h2.392v9.854zm21.072 2.294h2.6L65.874.24H62.91l-4.247 12.143h8.878zm-5.484-2.396l.684-2.03 1.666-4.962 1.667 4.963.674 2.029h-4.691zm22.758-2.183a4.036 4.036 0 001.702-1.446c.43-.644.639-1.34.639-2.09 0-1.11-.394-2.06-1.18-2.847C85.186.634 84.23.24 83.111.24h-4.855v2.238h4.855c.45 0 .838.174 1.16.521.322.348.486.772.486 1.268 0 .495-.164.925-.486 1.272-.322.353-.71.527-1.16.527h-4.855v6.311h2.392V8.162h1.82l2.447 4.216h2.586l-2.688-4.574z" fill="#fff"/><path d="M14.402 20.786v6.44h-.848V22.19l-2.106 3.506h-.112L9.23 22.202v5.023h-.853v-6.44h.966l2.05 3.405 2.043-3.404h.966zm14.556 5.586a3.22 3.22 0 01-2.366.976c-.93 0-1.723-.327-2.367-.976-.644-.65-.966-1.436-.966-2.366 0-.93.322-1.723.966-2.367.644-.649 1.431-.97 2.367-.97.935 0 1.722.321 2.366.97.644.65.971 1.436.971 2.367 0 .925-.322 1.717-.971 2.366zm-4.14-.583c.476.48 1.063.72 1.774.72.705 0 1.293-.24 1.773-.72s.71-1.073.71-1.778c0-.71-.24-1.309-.71-1.79-.475-.48-1.063-.72-1.773-.72-.706 0-1.293.24-1.774.72-.475.481-.715 1.08-.715 1.79.005.7.24 1.293.715 1.778zm14.816.629h2.78v.808h-3.633v-6.44h.853v5.632zm13.968-5.632c.88 0 1.605.312 2.188.935.582.624.869 1.385.869 2.285 0 .9-.292 1.666-.87 2.284-.577.624-1.308.936-2.187.936h-2.51v-6.44h2.51zm0 5.632c.655 0 1.191-.23 1.61-.69.42-.46.624-1.032.624-1.722 0-.685-.21-1.263-.624-1.723-.414-.46-.956-.69-1.61-.69h-1.656v4.82l1.656.005zm11.908-5.632h.854v6.44h-.854v-6.44zm14.06 0h.854v6.44h-.69l-3.312-4.81v4.81h-.853v-6.44h.69l3.311 4.804v-4.804zm16.263 3.25v.389c0 .838-.286 1.538-.864 2.09-.577.552-1.339.833-2.29.833-.98 0-1.793-.322-2.432-.971-.639-.65-.961-1.436-.961-2.366 0-.93.322-1.723.96-2.367.64-.644 1.447-.97 2.418-.97.593 0 1.14.142 1.636.429.496.286.879.659 1.15 1.13l-.736.434a2.096 2.096 0 00-.833-.844 2.412 2.412 0 00-1.227-.317c-.736 0-1.339.24-1.814.721-.476.48-.71 1.078-.71 1.789 0 .71.234 1.308.71 1.784.475.475 1.088.715 1.845.715.644 0 1.165-.158 1.564-.475.398-.317.639-.726.725-1.227h-2.366v-.772l3.225-.005z" fill="#fff"/></svg>