<svg width="80" height="80" fill="none" xmlns="http://www.w3.org/2000/svg"><path d="M40.07 10c-16.57 0-30 13.43-30 30s13.43 30 30 30 30-13.43 30-30-13.43-30-30-30zm0 45c-11.05 0-15-3.95-15-15s3.95-15 15-15 15 3.95 15 15-3.95 15-15 15z" fill="#828282"/><path d="M80 40H0m40 40V0" stroke="#000" stroke-width="2" stroke-miterlimit="10" stroke-dasharray="15 5"/><path d="M78.58 34.76C75.79 16.92 61.21 3 43.07 1.2" stroke="#000" stroke-width="1.5" stroke-miterlimit="10"/><path d="M80 29.67l-.78-.14-.9 5.17-2.63-4.53-.69.4L78.73 37 80 29.67z" fill="#000"/><path d="M1.56 45.24C4.35 63.08 18.93 77 37.07 78.8" stroke="#000" stroke-width="1.5" stroke-miterlimit="10"/><path d="M0 50.33l.78.14.9-5.17 2.63 4.53.69-.4L1.27 43 0 50.33z" fill="#000"/></svg>