<svg width="81" height="83" fill="none" xmlns="http://www.w3.org/2000/svg"><path d="M55 54l-8 27H0l48-33 7 6z" fill="#828282"/><path d="M80 35L54.72 54.57l-6.64-6.65L80 1" stroke="#000" stroke-width="2" stroke-miterlimit="10"/><path d="M80 81H0" stroke="#000" stroke-width="3" stroke-miterlimit="10"/><path d="M49 61a1 1 0 100-2 1 1 0 000 2zm-2 7a1 1 0 100-2 1 1 0 000 2zm-11 8a1 1 0 100-2 1 1 0 000 2zm7-4a1 1 0 100-2 1 1 0 000 2zm-3-12a1 1 0 100-2 1 1 0 000 2zM26 71a1 1 0 100-2 1 1 0 000 2zm-5 7a1 1 0 100-2 1 1 0 000 2zm23.5-18a.5.5 0 100-1 .5.5 0 000 1zm-7 9a.5.5 0 100-1 .5.5 0 000 1zm-17 2a.5.5 0 100-1 .5.5 0 000 1zM31 70a1 1 0 100-2 1 1 0 000 2zm19.5-14a.5.5 0 100-1 .5.5 0 000 1zm-6 21a1.5 1.5 0 100-3 1.5 1.5 0 000 3zm-2-11a1.5 1.5 0 100-3 1.5 1.5 0 000 3zm-29 11a1.5 1.5 0 100-3 1.5 1.5 0 000 3zm19-13a1.5 1.5 0 100-3 1.5 1.5 0 000 3zm-4 14a1.5 1.5 0 100-3 1.5 1.5 0 000 3zm17-23a1.5 1.5 0 100-3 1.5 1.5 0 000 3z" fill="#000"/></svg>