<svg width="80" height="80" fill="none" xmlns="http://www.w3.org/2000/svg"><path d="M70.5 9h-40v46h40V9zm-21 68h-40l21-22h40l-21 22z" fill="#828282"/><path d="M24.5 2.26V55h52.74" stroke="#000" stroke-width="1.5" stroke-miterlimit="10"/><path d="M21.96 6.99l.75.27 1.79-4.92 1.79 4.92.75-.27L24.5 0l-2.54 6.99zm50.55 50.55l-.27-.75L77.16 55l-4.92-1.79.27-.75L79.5 55l-6.99 2.54z" fill="#000"/><path d="M25 54.5L1.6 77.9" stroke="#000" stroke-width="1.5" stroke-miterlimit="10"/><path d="M3.14 72.76l.73.34-2.22 4.75 4.75-2.22.34.73L0 79.5l3.14-6.74zm73.35-27.83L77.55 43h2.353L78 46.405 80 50h-2.353l-1.137-2.062L75.392 50H73l2.02-3.595L73.118 43h2.372l1 1.93zM3.471 65.6L4.654 62H7l-2.88 7.477-.115.277C3.605 70.584 2.88 71 1.85 71c-.286 0-.591-.035-.915-.121v-1.42h.286c.305 0 .553-.034.705-.12a.73.73 0 00.363-.433l.171-.433L0 62h2.346l1.125 3.6zM16.77 5.316H20V7h-6V5.79l3.134-4.106h-3V0h5.79v1.173L16.77 5.316z" fill="#000"/></svg>