<svg width="80" height="78" fill="none" xmlns="http://www.w3.org/2000/svg"><path d="M42 11.011h-2.522V2.874L37 3.607V1.671L41.769 0H42v11.011z" fill="#000"/><path d="M80 27.949l-.02.02-2.92 3.653-.95 1.192L50 65.487l-8.6 10.761L40 78 30 65.487 3.89 32.814l-.95-1.192L.02 27.97 0 27.95h.04c.41-.33.83-.661 1.26-.981.24-.18.48-.37.73-.55A63.654 63.654 0 0139 13.943l1-.01 1 .01a63.654 63.654 0 0136.97 12.473c.25.18.49.37.73.55.43.321.85.651 1.26.982H80z" fill="#828282"/><path d="M40 61.984c-2.36 0-4.6.51-6.62 1.431L11.75 28.77 30.9 64.826c-.31.21-.61.43-.9.661l3.72 4.655L40 78l1.4-1.752 8.6-10.76a15.958 15.958 0 00-10-3.504zM77.947 19.17H80v1.637h-2.053v2.217h-1.894v-2.217H74V19.17h2.053v-2.152h1.894v2.152zM6 21.022H0V19.02h6v2.002zm35.5-7.088h-3v7.008h3v-7.008zM80 27.949l-.02.02-2.92 3.653-.95 1.192-1.95-1.532 3.81-4.865c.25.18.49.37.73.55.43.32.85.651 1.26.982H80zM5.84 31.282l-1.95 1.532-.95-1.192L.02 27.97 0 27.95h.04c.41-.33.83-.661 1.26-.981.24-.18.48-.37.73-.55l3.81 4.864z" fill="#000"/></svg>