<svg width="50" height="50" fill="none" xmlns="http://www.w3.org/2000/svg"><path fill-rule="evenodd" clip-rule="evenodd" d="M0 0v50h50V0H0zm37.483 27.662c1.148 1.12 2.362 2.174 3.392 3.412.455.547.886 1.112 1.214 1.745.466.909.044 1.903-.768 1.958l-5.04-.002c-1.302.107-2.339-.417-3.213-1.308-.696-.709-1.346-1.467-2.017-2.2a4.754 4.754 0 00-.906-.81c-.688-.445-1.286-.31-1.68.407-.4.731-.494 1.542-.53 2.356-.055 1.188-.414 1.498-1.606 1.555-2.55.118-4.969-.27-7.215-1.553-1.984-1.133-3.519-2.734-4.855-4.545-2.605-3.53-4.6-7.405-6.391-11.392-.405-.899-.11-1.38.879-1.398 1.647-.032 3.294-.028 4.939-.002.669.011 1.113.394 1.369 1.026.89 2.187 1.979 4.27 3.346 6.2.365.515.737 1.026 1.264 1.39.584.402 1.03.27 1.306-.384.175-.415.252-.857.288-1.301.131-1.52.147-3.042-.079-4.557-.14-.948-.675-1.56-1.62-1.74-.481-.091-.41-.268-.177-.544.407-.474.79-.77 1.548-.77h5.698c.898.175 1.1.58 1.222 1.483l.005 6.332c-.011.35.175 1.386.802 1.616.503.166.838-.239 1.14-.558 1.364-1.448 2.338-3.16 3.208-4.932.385-.778.718-1.587 1.041-2.397.239-.6.61-.894 1.286-.884l5.486.007c.161 0 .328 0 .487.026.923.16 1.177.558.89 1.461-.448 1.415-1.325 2.596-2.18 3.78-.917 1.266-1.892 2.488-2.802 3.761-.83 1.166-.765 1.752.27 2.762z" fill="#fff"/></svg>