<svg height="640pt" viewBox="-20 -99 640 640" width="640pt" xmlns="http://www.w3.org/2000/svg"><path d="M179.25 211c35.691 0 64.625-28.938 64.625-64.625 0-35.691-28.934-64.625-64.625-64.625s-64.625 28.934-64.625 64.625c.047 35.672 28.953 64.578 64.625 64.625zm0-104.125c21.883 0 39.625 17.738 39.625 39.625 0 21.883-17.742 39.625-39.625 39.625-21.887 0-39.625-17.742-39.625-39.625.008-21.883 17.742-39.617 39.625-39.625zm0 128A96.985 96.985 0 00109 264.25c-18.75 19.125-29 45.125-29 73.375.02 6.895 5.605 12.48 12.5 12.5H266c6.895-.02 12.48-5.605 12.5-12.5 0-28.25-10.25-54.25-29-73.375a96.979 96.979 0 00-70.25-29.375zm-73.375 90.25a76.468 76.468 0 0121-43.375 73.64 73.64 0 01104.75 0 76.824 76.824 0 0121 43.375zm0 0"/><path d="M537.5-5.25h-475C27.988-5.234.016 22.738 0 57.25v317.5c.016 34.512 27.988 62.484 62.5 62.5h475c34.512-.016 62.484-27.988 62.5-62.5V57.25c-.016-34.512-27.988-62.484-62.5-62.5zm37.5 380c-.059 20.684-16.816 37.441-37.5 37.5h-475c-20.684-.059-37.441-16.816-37.5-37.5V57.25c.059-20.684 16.816-37.441 37.5-37.5h475c20.684.059 37.441 16.816 37.5 37.5zm0 0"/><path d="M506.75 203.5H361.125c-6.902 0-12.5 5.594-12.5 12.5s5.598 12.5 12.5 12.5H506.75c6.902 0 12.5-5.594 12.5-12.5s-5.598-12.5-12.5-12.5zm0 80H361.125c-6.902 0-12.5 5.594-12.5 12.5s5.598 12.5 12.5 12.5H506.75c6.902 0 12.5-5.594 12.5-12.5s-5.598-12.5-12.5-12.5zm0-160H361.125c-6.902 0-12.5 5.594-12.5 12.5s5.598 12.5 12.5 12.5H506.75c6.902 0 12.5-5.594 12.5-12.5s-5.598-12.5-12.5-12.5zm0 0"/></svg>