<svg width="46" height="62" fill="none" xmlns="http://www.w3.org/2000/svg"><path d="M2.386 55.255v5.223c.152.055.314.087.484.087h39.468v-5.31l-19.976-1.436-19.976 1.436z" fill="#9AD7FF"/><path d="M42.338 49.944H2.87c-.17 0-.332.032-.484.087v5.224h39.952v-5.31z" fill="#C2E7FF"/><path d="M6.745 55.255a5.31 5.31 0 00-4.36-5.224c-.552.2-.95.73-.95 1.349v7.75c0 .619.398 1.148.95 1.348a5.31 5.31 0 004.36-5.223z" fill="#4EB9FF"/><path d="M2.153 0A2.153 2.153 0 000 2.153V51.38l10.046-1.436 5.741-24.972L10.047 0H2.152z" fill="#FFC0D5"/><path d="M42.338 2.87L34.301 0H10.046v49.944h30.857l4.305-12.343V10.908l-2.87-8.037z" fill="#FF755C"/><path d="M33.942 25.717h-12.63a1.435 1.435 0 010-2.87h12.63a1.435 1.435 0 010 2.87zm2.297-5.741H19.016a1.435 1.435 0 010-2.87h17.222a1.435 1.435 0 010 2.87z" fill="#FFC0D5"/><path d="M45.208 49.944L34.301 48.51l10.907-10.907v12.342zm0-49.944v10.907L34.301 0h10.907z" fill="#FFCE47"/><path d="M43.773 59.13H2.87v-7.75h40.903a1.435 1.435 0 000-2.87H2.87A2.874 2.874 0 000 51.38v7.75A2.874 2.874 0 002.87 62h40.903a1.435 1.435 0 000-2.87z" fill="#FF4181"/></svg>