<svg width="258" height="77" fill="none" xmlns="http://www.w3.org/2000/svg"><path d="M86.095 63c2.01 0 2.955-1.32 2.955-2.715 0-1.29-.825-2.28-1.905-2.445.975-.21 1.71-1.05 1.71-2.295 0-1.17-.9-2.55-2.97-2.55H79.81V63h6.285zm-.915-6.315h-2.34v-1.17h2.34c.315 0 .6.225.6.57 0 .36-.285.6-.6.6zm.09 3.795h-2.43v-1.275h2.43c.435 0 .705.285.705.645 0 .375-.27.63-.705.63zM97.094 63v-4.38c0-2.415-1.755-3.045-3.555-3.045-1.095 0-2.445.315-3.42 1.095l.915 1.665c.57-.435 1.335-.705 2.01-.705.885 0 1.35.39 1.35.9v.75c-.39-.495-1.245-.795-2.19-.795-1.08 0-2.49.51-2.49 2.31 0 1.65 1.41 2.385 2.49 2.385.9 0 1.785-.36 2.19-.87V63h2.7zm-3.765-1.575c-.45 0-.945-.135-.945-.585 0-.45.495-.6.945-.6.42 0 .885.135 1.065.39v.405c-.18.255-.645.39-1.065.39zm14.499-5.67v4.905h-1.92v-4.905h-2.7v4.905h-1.92v-4.905h-2.7V63h11.94v-7.245h-2.7zM118.92 63v-4.38c0-2.415-1.755-3.045-3.555-3.045-1.095 0-2.445.315-3.42 1.095l.915 1.665c.57-.435 1.335-.705 2.01-.705.885 0 1.35.39 1.35.9v.75c-.39-.495-1.245-.795-2.19-.795-1.08 0-2.49.51-2.49 2.31 0 1.65 1.41 2.385 2.49 2.385.9 0 1.785-.36 2.19-.87V63h2.7zm-3.765-1.575c-.45 0-.945-.135-.945-.585 0-.45.495-.6.945-.6.42 0 .885.135 1.065.39v.405c-.18.255-.645.39-1.065.39zM128.347 63v-4.905h1.905v-2.34h-6.54v2.34h1.935V63h2.7zm5.458 0l2.325-3.435V63h2.7v-7.245h-2.73l-2.175 3.225v-3.225h-2.7V63h2.58zm14.136 0v-7.245h-7.605V63h2.7v-4.905h2.205V63h2.7zm5.076.18c2.58 0 4.08-1.785 4.08-3.81 0-2.025-1.5-3.795-4.08-3.795-2.565 0-4.065 1.77-4.065 3.795s1.5 3.81 4.065 3.81zm0-2.385c-.825 0-1.29-.615-1.29-1.425 0-.795.465-1.41 1.29-1.41.84 0 1.305.615 1.305 1.41 0 .81-.465 1.425-1.305 1.425zm10.967-5.04h-5.88V63h2.7v-4.905h3.18v-2.34zm5.716 7.425c1.8 0 3.18-1.32 3.18-3.81 0-2.475-1.38-3.795-3.18-3.795-.75 0-1.455.255-2.04.945v-.765h-2.7V65.76h2.7v-3.525c.6.69 1.29.945 2.04.945zm-.93-2.385c-.345 0-.87-.195-1.11-.495v-1.845c.255-.315.765-.495 1.11-.495.72 0 1.35.51 1.35 1.41 0 .915-.63 1.425-1.35 1.425zM180.766 63v-4.38c0-2.415-1.755-3.045-3.555-3.045-1.095 0-2.445.315-3.42 1.095l.915 1.665c.57-.435 1.335-.705 2.01-.705.885 0 1.35.39 1.35.9v.75c-.39-.495-1.245-.795-2.19-.795-1.08 0-2.49.51-2.49 2.31 0 1.65 1.41 2.385 2.49 2.385.9 0 1.785-.36 2.19-.87V63h2.7zm-3.765-1.575c-.45 0-.945-.135-.945-.585 0-.45.495-.6.945-.6.42 0 .885.135 1.065.39v.405c-.18.255-.645.39-1.065.39zm7.704-5.85c-1.665 0-2.94 1.32-2.94 3.81 0 2.475 1.275 3.795 2.94 3.795.705 0 1.35-.255 1.89-.945v3.525h2.7v-3.525c.555.69 1.185.945 1.89.945 1.665 0 2.94-1.32 2.94-3.81 0-2.475-1.275-3.795-2.94-3.795-.705 0-1.35.255-1.89.945v-3.525h-2.7v3.525c-.555-.69-1.185-.945-1.89-.945zm.93 2.385c.3 0 .75.195.96.495V60.3c-.225.315-.66.495-.96.495-.615 0-1.155-.51-1.155-1.41 0-.915.54-1.425 1.155-1.425zm4.62 2.835c-.3 0-.75-.195-.96-.495v-1.845c.225-.315.66-.495.96-.495.615 0 1.155.51 1.155 1.41 0 .915-.54 1.425-1.155 1.425zM197.716 63l2.325-3.435V63h2.7v-7.245h-2.73l-2.175 3.225v-3.225h-2.7V63h2.58zm9.366 0l1.005-2.16h1.065V63h2.7v-7.245h-4.98c-1.74 0-2.775 1.17-2.775 2.535 0 1.395.87 2.04 1.41 2.28L204.082 63h3zm.3-4.275c-.33 0-.555-.18-.555-.435 0-.24.225-.42.555-.42h1.77v.855h-1.77z" fill="#3A4047"/><path d="M89.288 44V33.92h7.392c7.488 0 11.52-4.992 11.52-10.944 0-6-4.032-10.992-11.52-10.992H79.592V44h9.696zm6.144-18.528h-6.144v-5.04h6.144c1.632 0 2.928.816 2.928 2.544 0 1.68-1.296 2.496-2.928 2.496zM140.029 44l-5.808-11.328c2.544-1.248 5.76-4.176 5.76-9.696 0-6-4.032-10.992-11.52-10.992h-17.088V44h9.696V33.92h3.504L128.989 44h11.04zm-13.056-18.528h-5.904v-5.04h5.904c1.632 0 3.168.768 3.168 2.496 0 1.776-1.536 2.544-3.168 2.544zM153.601 44V11.984h-9.696V44h9.696zm35.979 0V11.984h-9.696v15.168l-11.136-15.168h-9.984V44h9.696V27.776L180.268 44h9.312zm21.744 0V20.432h8.544v-8.448h-26.832v8.448h8.592V44h9.696zm36.275 0v-8.448h-14.592v-3.504h14.256V23.6h-14.256v-3.168h14.592v-8.448h-24.288V44h24.288z" fill="#1AB0CE"/><path d="M22.332 40.455c0-12.45 10-22.545 22.334-22.545C57.002 17.91 67 28.004 67 40.455 67 52.906 57.002 63 44.666 63c-12.334 0-22.334-10.094-22.334-22.545z" fill="#4FC2E9"/><path d="M0 40.455C0 28.005 9.998 17.91 22.332 17.91c12.335 0 22.334 10.094 22.334 22.545C44.666 52.906 34.668 63 22.332 63 9.998 63 0 52.906 0 40.455z" fill="#EC87C0"/><path d="M33.5 20.926a22.577 22.577 0 00-11.168 19.53A22.572 22.572 0 0033.5 59.982a22.575 22.575 0 0011.166-19.527A22.58 22.58 0 0033.5 20.926z" fill="#5D9CEC"/><path d="M33.5 46.09c-12.336 0-22.334-10.093-22.334-22.543C11.166 11.095 21.164 1 33.5 1c12.334 0 22.332 10.095 22.332 22.547 0 12.45-9.998 22.543-22.332 22.543z" fill="#FFCE54"/><path d="M22.332 40.455c0 .917.057 1.82.162 2.713A22.061 22.061 0 0033.5 46.09c12.334 0 22.332-10.093 22.332-22.543 0-.919-.055-1.824-.16-2.712a22.074 22.074 0 00-11.006-2.925c-12.334 0-22.334 10.094-22.334 22.545z" fill="#A0D468"/><path d="M22.332 17.91a22.068 22.068 0 00-11.005 2.924 22.83 22.83 0 00-.161 2.713c0 12.45 9.998 22.543 22.334 22.543 4.001 0 7.757-1.06 11.004-2.923a22.89 22.89 0 00.162-2.712c0-12.45-9.998-22.545-22.334-22.545z" fill="#ED5564"/><path d="M34.134 46.082c.167-.004.335-.012.503-.02.018 0 .037 0 .057-.005a16.27 16.27 0 00.577-.037c.161-.012.323-.025.484-.041l.1-.012c.138-.017.272-.03.407-.046.043-.008.086-.012.129-.016.156-.021.31-.046.464-.066.045-.009.092-.017.137-.021l.364-.062.141-.025.44-.086c.055-.009.11-.021.166-.034l.327-.074a13.326 13.326 0 00.566-.136l.194-.05c.096-.024.192-.053.288-.078.088-.025.178-.05.266-.078.098-.025.194-.054.29-.087.072-.02.146-.045.217-.066.082-.029.166-.054.248-.083.112-.037.225-.074.337-.115l.213-.075.237-.086a3.4 3.4 0 00.198-.079c.131-.05.262-.099.393-.152.053-.025.108-.046.161-.07.086-.034.172-.07.256-.108.035-.016.07-.029.104-.045.16-.07.32-.14.477-.215l.133-.062a28.54 28.54 0 001.49-.78c.002-.004.004-.004.006-.004.107-.892.162-1.796.162-2.713A22.58 22.58 0 0033.5 20.927a22.577 22.577 0 00-11.168 19.528c0 .917.057 1.821.161 2.713l.027.012c.174.1.35.198.527.293l.113.062c.274.145.55.28.83.413.045.025.09.045.135.066l.464.21.117.05c.084.037.167.074.253.108.055.024.11.045.166.07.127.053.257.103.386.152.068.025.133.054.2.079a114.745 114.745 0 00.453.16c.11.042.223.08.335.116.082.03.166.054.25.083.07.025.143.045.216.066.096.033.192.062.29.09l.264.075c.096.025.192.054.29.079l.195.05a14.432 14.432 0 00.564.135l.327.075c.056.012.113.024.168.033l.438.086.14.025.367.062c.045.004.09.013.134.02.156.021.31.046.465.067.043.004.088.008.13.016.136.017.27.03.405.046l.103.012a18.064 18.064 0 00.607.05c.151.012.302.02.454.028a.27.27 0 00.057.005c.168.008.335.016.503.02.04 0 .08 0 .12.004.17.004.342.004.514.004s.341 0 .51-.004c.042-.004.083-.004.124-.004z" fill="#434A54"/></svg>