<svg width="62" height="62" fill="none" xmlns="http://www.w3.org/2000/svg"><path d="M20.666 5.877l4.407 28.061L20.666 62 0 56.123V0l20.666 5.877zm41.334 0V62l-20.667-5.877-2.938-28.061L41.333 0 62 5.877z" fill="#85C250"/><path d="M41.333 0v56.123L20.666 62V5.877L41.333 0z" fill="#C9D467"/><path d="M14.79 54.452c-.133 0-.268-.018-.403-.056L5.475 51.86a1.47 1.47 0 11.804-2.826l8.912 2.535a1.47 1.47 0 01-.401 2.882zm0-7.346c-.133 0-.268-.018-.403-.056l-8.912-2.534a1.47 1.47 0 01.804-2.827l8.912 2.535a1.47 1.47 0 01-.401 2.882zm0-7.346a1.47 1.47 0 01-.403-.056L5.475 37.17a1.47 1.47 0 01.804-2.827l8.912 2.535a1.47 1.47 0 01-.401 2.882zM5.877 9.017V28.41l8.912 2.535V11.552L5.877 9.017z" fill="#174461"/><path d="M26.542 13.021a1.47 1.47 0 01-.401-2.883l8.913-2.534a1.47 1.47 0 01.804 2.826l-8.913 2.535a1.47 1.47 0 01-.403.056zm0 41.431a1.47 1.47 0 01-.401-2.882l8.913-2.535a1.47 1.47 0 01.804 2.827l-8.913 2.534c-.135.038-.27.056-.403.056zm0-7.346a1.47 1.47 0 01-.401-2.882l8.913-2.535a1.47 1.47 0 01.804 2.827l-8.913 2.534c-.135.038-.27.056-.403.056zm0-7.346a1.47 1.47 0 01-.401-2.882l8.913-2.535a1.47 1.47 0 01.804 2.827l-8.913 2.534a1.47 1.47 0 01-.403.056zm0-7.346a1.47 1.47 0 01-.401-2.882l8.913-2.535a1.47 1.47 0 01.804 2.827l-8.913 2.534c-.135.038-.27.056-.403.056z" fill="#fff"/><path d="M56.124 13.021c-.133 0-.268-.018-.403-.056l-8.913-2.535a1.47 1.47 0 01.804-2.826l8.913 2.535a1.47 1.47 0 01-.401 2.882zm0 7.346c-.133 0-.268-.018-.403-.056l-8.913-2.535a1.47 1.47 0 01.804-2.826l8.913 2.534a1.47 1.47 0 01-.401 2.883zm0 7.346a1.47 1.47 0 01-.403-.056l-8.913-2.535a1.47 1.47 0 01.804-2.826l8.913 2.534a1.47 1.47 0 01-.401 2.883zm-8.914 3.342v19.393l8.913 2.535V33.59l-8.913-2.535z" fill="#174461"/></svg>