<svg xmlns="http://www.w3.org/2000/svg" width="25" height="40" viewBox="0 0 25 40"><g><g><path d="M25 3.1v33.687c0 1.77-1.462 3.207-3.26 3.207H3.269c-1.799 0-3.26-1.438-3.26-3.207V3.1c0-1.77 1.461-3.209 3.26-3.209h18.47c1.8 0 3.26 1.439 3.26 3.209zM9.516 2.845c0 .438.358.791.804.791h4.367a.796.796 0 0 0 .804-.79v-.023a.796.796 0 0 0-.804-.791h-4.367a.796.796 0 0 0-.804.791zm4.753 34.21c0-.957-.793-1.738-1.766-1.738-.972 0-1.766.781-1.766 1.738s.794 1.737 1.766 1.737c.973 0 1.766-.78 1.766-1.737zm8.013-30.745a.54.54 0 0 0-.543-.535H3.269a.54.54 0 0 0-.543.535v27.269a.54.54 0 0 0 .543.534h18.47a.54.54 0 0 0 .544-.534zM20.11 18.066v.01c0 .294-.24.53-.538.53H5.437a.533.533 0 0 1-.538-.53v-.01c0-.292.24-.53.538-.53h14.135c.298 0 .538.238.538.53zm0-8.55v1.605a.539.539 0 0 1-.543.534h-1.63a.539.539 0 0 1-.543-.534V9.517a.54.54 0 0 1 .544-.535h1.63c.299 0 .542.24.542.535zm-7.062 1.605V9.517a.54.54 0 0 1 .543-.534h1.63c.3 0 .542.24.542.534v1.604a.539.539 0 0 1-.542.535h-1.63c-.3 0-.544-.24-.543-.535zm7.062 10.154v.01c0 .293-.24.53-.538.53H5.437a.533.533 0 0 1-.538-.53v-.01c0-.293.24-.53.538-.53h14.135c.298 0 .538.237.538.53zM4.899 14.869v-.01c0-.293.24-.53.538-.53h9.246c.297 0 .538.237.538.53v.01c0 .293-.241.53-.538.53H5.437a.534.534 0 0 1-.538-.53zm15.21 9.614v.01c0 .293-.24.53-.537.53H5.437a.533.533 0 0 1-.538-.53v-.01c0-.293.24-.53.538-.53h14.135c.298 0 .538.237.538.53zM4.9 11.121V9.517c0-.295.243-.534.543-.534h1.63c.299 0 .543.24.543.534v1.604a.54.54 0 0 1-.543.535h-1.63c-.3 0-.543-.24-.543-.535zm4.346 0V9.517a.54.54 0 0 1 .543-.534h1.63c.3 0 .543.24.543.534v1.604a.539.539 0 0 1-.543.535h-1.63c-.3 0-.543-.24-.543-.535zM20.11 30.899v.011c0 .292-.24.53-.538.53H5.437a.533.533 0 0 1-.538-.53v-.01c0-.294.24-.53.538-.53h14.135c.298 0 .538.236.538.53zm0-3.208v.01c0 .293-.24.53-.538.53H5.437a.533.533 0 0 1-.538-.53v-.01c0-.292.24-.53.538-.53h14.135c.298 0 .538.238.538.53z"/><path fill="#636363" d="M25 3.1v33.687c0 1.77-1.462 3.207-3.26 3.207H3.269c-1.799 0-3.26-1.438-3.26-3.207V3.1c0-1.77 1.461-3.209 3.26-3.209h18.47c1.8 0 3.26 1.439 3.26 3.209zM9.516 2.845c0 .438.358.791.804.791h4.367a.796.796 0 0 0 .804-.79v-.023a.796.796 0 0 0-.804-.791h-4.367a.796.796 0 0 0-.804.791zm4.753 34.21c0-.957-.793-1.738-1.766-1.738-.972 0-1.766.781-1.766 1.738s.794 1.737 1.766 1.737c.973 0 1.766-.78 1.766-1.737zm8.013-30.745a.54.54 0 0 0-.543-.535H3.269a.54.54 0 0 0-.543.535v27.269a.54.54 0 0 0 .543.534h18.47a.54.54 0 0 0 .544-.534zM20.11 18.066v.01c0 .294-.24.53-.538.53H5.437a.533.533 0 0 1-.538-.53v-.01c0-.292.24-.53.538-.53h14.135c.298 0 .538.238.538.53zm0-8.55v1.605a.539.539 0 0 1-.543.534h-1.63a.539.539 0 0 1-.543-.534V9.517a.54.54 0 0 1 .544-.535h1.63c.299 0 .542.24.542.535zm-7.062 1.605V9.517a.54.54 0 0 1 .543-.534h1.63c.3 0 .542.24.542.534v1.604a.539.539 0 0 1-.542.535h-1.63c-.3 0-.544-.24-.543-.535zm7.062 10.154v.01c0 .293-.24.53-.538.53H5.437a.533.533 0 0 1-.538-.53v-.01c0-.293.24-.53.538-.53h14.135c.298 0 .538.237.538.53zM4.899 14.869v-.01c0-.293.24-.53.538-.53h9.246c.297 0 .538.237.538.53v.01c0 .293-.241.53-.538.53H5.437a.534.534 0 0 1-.538-.53zm15.21 9.614v.01c0 .293-.24.53-.537.53H5.437a.533.533 0 0 1-.538-.53v-.01c0-.293.24-.53.538-.53h14.135c.298 0 .538.237.538.53zM4.9 11.121V9.517c0-.295.243-.534.543-.534h1.63c.299 0 .543.24.543.534v1.604a.54.54 0 0 1-.543.535h-1.63c-.3 0-.543-.24-.543-.535zm4.346 0V9.517a.54.54 0 0 1 .543-.534h1.63c.3 0 .543.24.543.534v1.604a.539.539 0 0 1-.543.535h-1.63c-.3 0-.543-.24-.543-.535zM20.11 30.899v.011c0 .292-.24.53-.538.53H5.437a.533.533 0 0 1-.538-.53v-.01c0-.294.24-.53.538-.53h14.135c.298 0 .538.236.538.53zm0-3.208v.01c0 .293-.24.53-.538.53H5.437a.533.533 0 0 1-.538-.53v-.01c0-.292.24-.53.538-.53h14.135c.298 0 .538.238.538.53z"/></g></g></svg>