<svg xmlns="http://www.w3.org/2000/svg" width="15" height="15" viewBox="0 0 15 15"><g><g><path d="M14.278 13.235a1 1 0 0 1-.31.733 1 1 0 0 1-.732.31.967.967 0 0 1-.734-.31l-2.794-2.786a5.577 5.577 0 0 1-3.25 1.01c-.778 0-1.52-.15-2.23-.452a5.733 5.733 0 0 1-1.832-1.222 5.734 5.734 0 0 1-1.223-1.833 5.636 5.636 0 0 1-.452-2.229c0-.777.151-1.52.452-2.228a5.733 5.733 0 0 1 1.223-1.833 5.74 5.74 0 0 1 1.833-1.223A5.644 5.644 0 0 1 6.457.72c.777 0 1.52.151 2.229.452a5.74 5.74 0 0 1 1.833 1.223c.513.513.92 1.124 1.222 1.833.301.709.452 1.451.452 2.228a5.578 5.578 0 0 1-1.01 3.25l2.794 2.795a.998.998 0 0 1 .301.734zm-4.17-6.779c0-1.005-.358-1.864-1.072-2.578-.715-.715-1.574-1.072-2.579-1.072-1.005 0-1.864.357-2.578 1.072-.715.714-1.072 1.573-1.072 2.578s.357 1.864 1.072 2.579c.714.714 1.573 1.07 2.578 1.07s1.864-.356 2.579-1.07c.714-.715 1.071-1.574 1.071-2.579z"/><path fill="#fff" d="M14.278 13.235a1 1 0 0 1-.31.733 1 1 0 0 1-.732.31.967.967 0 0 1-.734-.31l-2.794-2.786a5.577 5.577 0 0 1-3.25 1.01c-.778 0-1.52-.15-2.23-.452a5.733 5.733 0 0 1-1.832-1.222 5.734 5.734 0 0 1-1.223-1.833 5.636 5.636 0 0 1-.452-2.229c0-.777.151-1.52.452-2.228a5.733 5.733 0 0 1 1.223-1.833 5.74 5.74 0 0 1 1.833-1.223A5.644 5.644 0 0 1 6.457.72c.777 0 1.52.151 2.229.452a5.74 5.74 0 0 1 1.833 1.223c.513.513.92 1.124 1.222 1.833.301.709.452 1.451.452 2.228a5.578 5.578 0 0 1-1.01 3.25l2.794 2.795a.998.998 0 0 1 .301.734zm-4.17-6.779c0-1.005-.358-1.864-1.072-2.578-.715-.715-1.574-1.072-2.579-1.072-1.005 0-1.864.357-2.578 1.072-.715.714-1.072 1.573-1.072 2.578s.357 1.864 1.072 2.579c.714.714 1.573 1.07 2.578 1.07s1.864-.356 2.579-1.07c.714-.715 1.071-1.574 1.071-2.579z"/></g></g></svg>