<svg xmlns="http://www.w3.org/2000/svg" width="14" height="14" viewBox="0 0 14 14"><g><g><path d="M12.967 6.202l-2.57 2.57a3.633 3.633 0 0 1-5.14 0 3.597 3.597 0 0 1-.552-.733L5.9 6.844c.056-.056.127-.09.194-.128.082.282.226.55.448.771.709.71 1.862.708 2.57 0l2.569-2.569a1.819 1.819 0 0 0 0-2.57 1.82 1.82 0 0 0-2.57 0l-.913.915A4.557 4.557 0 0 0 5.88 3.01l1.947-1.947a3.635 3.635 0 0 1 5.14 5.14zM8.49 10.68l-1.948 1.947a3.635 3.635 0 0 1-5.14-5.14l2.57-2.569a3.633 3.633 0 0 1 5.14 0c.223.223.399.473.551.733L8.47 6.844c-.057.057-.126.09-.193.128a1.798 1.798 0 0 0-.45-.77 1.819 1.819 0 0 0-2.569 0l-2.57 2.57a1.82 1.82 0 0 0 0 2.57 1.82 1.82 0 0 0 2.57 0l.915-.914c.74.288 1.54.366 2.318.252z"/><path fill="#fff" d="M12.967 6.202l-2.57 2.57a3.633 3.633 0 0 1-5.14 0 3.597 3.597 0 0 1-.552-.733L5.9 6.844c.056-.056.127-.09.194-.128.082.282.226.55.448.771.709.71 1.862.708 2.57 0l2.569-2.569a1.819 1.819 0 0 0 0-2.57 1.82 1.82 0 0 0-2.57 0l-.913.915A4.557 4.557 0 0 0 5.88 3.01l1.947-1.947a3.635 3.635 0 0 1 5.14 5.14zM8.49 10.68l-1.948 1.947a3.635 3.635 0 0 1-5.14-5.14l2.57-2.569a3.633 3.633 0 0 1 5.14 0c.223.223.399.473.551.733L8.47 6.844c-.057.057-.126.09-.193.128a1.798 1.798 0 0 0-.45-.77 1.819 1.819 0 0 0-2.569 0l-2.57 2.57a1.82 1.82 0 0 0 0 2.57 1.82 1.82 0 0 0 2.57 0l.915-.914c.74.288 1.54.366 2.318.252z"/></g></g></svg>