<svg xmlns="http://www.w3.org/2000/svg" width="48" height="48" viewBox="0 0 48 48">
  <defs>
    <style>
      .a {
        fill: #2d9ad2;
      }

      .b {
        fill: #fff;
      }
    </style>
  </defs>
  <title>behance</title>
  <g>
    <path class="a" d="M48,24A24,24,0,1,1,24,0,24,24,0,0,1,48,24"/>
    <path class="b" d="M13.15,34h5.41s5.91-.22,5.91-6.2c0,0,.26-4.86-3.48-4.86,0,0,2.84-.22,2.84-3.72S21.51,14,18.56,14H9.12V34h4Zm0-16.52h5.41s1.32,0,1.32,2-.77,2.33-1.65,2.33H13.15Zm0,7.39h5.41s2,0,2,2.69c0,2.29-1.46,2.53-2.23,2.54H13.15Z"/>
    <path class="b" d="M32.36,19c-7.16,0-7.15,7.53-7.15,7.53S24.72,34,32.36,34c0,0,6.36.38,6.36-5.21H35.45s.11,2.1-3,2.1a3.08,3.08,0,0,1-3.28-3.41h9.64S39.89,19,32.36,19m-3.21,5.89s.4-3,3.28-3,2.84,3,2.84,3Z"/>
    <rect class="b" x="28.35" y="15.15" width="7.68" height="1.85"/>
    <path class="a" d="M48,24A24,24,0,1,1,24,0,24,24,0,0,1,48,24"/>
    <path class="b" d="M13.15,34h5.41s5.91-.22,5.91-6.2c0,0,.26-4.86-3.48-4.86,0,0,2.84-.22,2.84-3.72S21.51,14,18.56,14H9.12V34h4Zm0-16.52h5.41s1.32,0,1.32,2-.77,2.33-1.65,2.33H13.15Zm0,7.39h5.41s2,0,2,2.69c0,2.29-1.46,2.53-2.23,2.54H13.15Z"/>
    <path class="b" d="M32.36,19c-7.16,0-7.15,7.53-7.15,7.53S24.72,34,32.36,34c0,0,6.36.38,6.36-5.21H35.45s.11,2.1-3,2.1a3.08,3.08,0,0,1-3.28-3.41h9.64S39.89,19,32.36,19m-3.21,5.89s.4-3,3.28-3,2.84,3,2.84,3Z"/>
    <rect class="b" x="28.35" y="15.15" width="7.68" height="1.85"/>
    <path class="a" d="M48,24A24,24,0,1,1,24,0,24,24,0,0,1,48,24"/>
    <path class="b" d="M13.15,34h5.41s5.91-.22,5.91-6.2c0,0,.26-4.86-3.48-4.86,0,0,2.84-.22,2.84-3.72S21.51,14,18.56,14H9.12V34h4Zm0-16.52h5.41s1.32,0,1.32,2-.77,2.33-1.65,2.33H13.15Zm0,7.39h5.41s2,0,2,2.69c0,2.29-1.46,2.53-2.23,2.54H13.15Z"/>
    <path class="b" d="M32.36,19c-7.16,0-7.15,7.53-7.15,7.53S24.72,34,32.36,34c0,0,6.36.38,6.36-5.21H35.45s.11,2.1-3,2.1a3.08,3.08,0,0,1-3.28-3.41h9.64S39.89,19,32.36,19m-3.21,5.89s.4-3,3.28-3,2.84,3,2.84,3Z"/>
    <rect class="b" x="28.35" y="15.15" width="7.68" height="1.85"/>
  </g>
</svg>
