<svg xmlns="http://www.w3.org/2000/svg" width="17" height="17" viewBox="0 0 17 17">
  <defs>
    <style>
      .a {
        fill: #231815;
      }
    </style>
  </defs>
  <title>circle_arrow_down</title>
  <g>
    <path class="a" d="M8.5,17A8.5,8.5,0,1,1,17,8.5,8.51,8.51,0,0,1,8.5,17Zm0-16A7.5,7.5,0,1,0,16,8.5,7.5,7.5,0,0,0,8.5,1Z"/>
    <path class="a" d="M8.5,10.58a1.33,1.33,0,0,1-.94-.39L5.65,8.28a.5.5,0,0,1,0-.71.48.48,0,0,1,.7,0L8.26,9.48a.34.34,0,0,0,.48,0l1.91-1.91a.48.48,0,0,1,.7,0,.5.5,0,0,1,0,.71L9.44,10.19A1.33,1.33,0,0,1,8.5,10.58Z"/>
  </g>
</svg>
