<svg xmlns="http://www.w3.org/2000/svg" width="48" height="48" viewBox="0 0 48 48">
  <defs>
    <style>
      .a {
        fill: #f872a3;
      }

      .b {
        fill: #fff;
      }
    </style>
  </defs>
  <title>dribbble</title>
  <g>
    <path class="a" d="M48,24A24,24,0,1,1,24,0,24,24,0,0,1,48,24"/>
    <path class="b" d="M37.82,18.16a14.61,14.61,0,0,0-1.38-2.55,15.53,15.53,0,0,0-1.83-2.22,16.24,16.24,0,0,0-2.22-1.83,15.3,15.3,0,0,0-2.55-1.38A15,15,0,0,0,21,9.31a14.83,14.83,0,0,0-2.82.87,15.71,15.71,0,0,0-2.55,1.38,15,15,0,0,0-4,4,15.3,15.3,0,0,0-1.38,2.55A14.83,14.83,0,0,0,9.31,21a15.1,15.1,0,0,0,.87,8.86,15.3,15.3,0,0,0,1.38,2.55,16.24,16.24,0,0,0,1.83,2.22,15.53,15.53,0,0,0,2.22,1.83A15.14,15.14,0,0,0,21,38.7a15,15,0,0,0,11.41-2.26,15,15,0,0,0,4-4,14.61,14.61,0,0,0,1.38-2.55A15.14,15.14,0,0,0,38.7,21a15.61,15.61,0,0,0-.88-2.82M24,11.19a12.76,12.76,0,0,1,8.46,3.2S30.61,17.21,25.77,19A64.23,64.23,0,0,0,21,11.55a13.07,13.07,0,0,1,3-.36m-3.07.37h0m-2.39.85a76.41,76.41,0,0,1,4.75,7.38,47,47,0,0,1-11.82,1.57,12.81,12.81,0,0,1,7.07-8.95M14.47,32.56A12.76,12.76,0,0,1,11.19,24c0-.14,0-.27,0-.4a47.41,47.41,0,0,0,13.15-1.83c.37.72.72,1.45,1,2.18a4.74,4.74,0,0,0-.5.15,20.27,20.27,0,0,0-10.42,8.45h0M24,36.81a12.77,12.77,0,0,1-7.87-2.71h0l-.29-.22.29.22c0-.06,2.49-5.37,10.05-8l.09,0A53.23,53.23,0,0,1,29,35.8a12.76,12.76,0,0,1-5,1m7.16-2.18a55.11,55.11,0,0,0-2.49-9.16,18.69,18.69,0,0,1,8,.56,12.87,12.87,0,0,1-5.49,8.6M27.89,23.45c-.1-.22-.19-.44-.28-.66-.27-.63-.55-1.25-.85-1.86a16.44,16.44,0,0,0,7.14-5.07,12.79,12.79,0,0,1,2.91,8,29.79,29.79,0,0,0-8.92-.42"/>
    <path class="a" d="M48,24A24,24,0,1,1,24,0,24,24,0,0,1,48,24"/>
    <path class="b" d="M37.82,18.16a14.61,14.61,0,0,0-1.38-2.55,15.53,15.53,0,0,0-1.83-2.22,16.24,16.24,0,0,0-2.22-1.83,15.3,15.3,0,0,0-2.55-1.38A15,15,0,0,0,21,9.31a14.83,14.83,0,0,0-2.82.87,15.71,15.71,0,0,0-2.55,1.38,15,15,0,0,0-4,4,15.3,15.3,0,0,0-1.38,2.55A14.83,14.83,0,0,0,9.31,21a15.1,15.1,0,0,0,.87,8.86,15.3,15.3,0,0,0,1.38,2.55,16.24,16.24,0,0,0,1.83,2.22,15.53,15.53,0,0,0,2.22,1.83A15.14,15.14,0,0,0,21,38.7a15,15,0,0,0,11.41-2.26,15,15,0,0,0,4-4,14.61,14.61,0,0,0,1.38-2.55A15.14,15.14,0,0,0,38.7,21a15.61,15.61,0,0,0-.88-2.82M24,11.19a12.76,12.76,0,0,1,8.46,3.2S30.61,17.21,25.77,19A64.23,64.23,0,0,0,21,11.55a13.07,13.07,0,0,1,3-.36m-3.07.37h0m-2.39.85a76.41,76.41,0,0,1,4.75,7.38,47,47,0,0,1-11.82,1.57,12.81,12.81,0,0,1,7.07-8.95M14.47,32.56A12.76,12.76,0,0,1,11.19,24c0-.14,0-.27,0-.4a47.41,47.41,0,0,0,13.15-1.83c.37.72.72,1.45,1,2.18a4.74,4.74,0,0,0-.5.15,20.27,20.27,0,0,0-10.42,8.45h0M24,36.81a12.77,12.77,0,0,1-7.87-2.71h0l-.29-.22.29.22c0-.06,2.49-5.37,10.05-8l.09,0A53.23,53.23,0,0,1,29,35.8a12.76,12.76,0,0,1-5,1m7.16-2.18a55.11,55.11,0,0,0-2.49-9.16,18.69,18.69,0,0,1,8,.56,12.87,12.87,0,0,1-5.49,8.6M27.89,23.45c-.1-.22-.19-.44-.28-.66-.27-.63-.55-1.25-.85-1.86a16.44,16.44,0,0,0,7.14-5.07,12.79,12.79,0,0,1,2.91,8,29.79,29.79,0,0,0-8.92-.42"/>
    <path class="a" d="M48,24A24,24,0,1,1,24,0,24,24,0,0,1,48,24"/>
    <path class="b" d="M37.82,18.16a14.61,14.61,0,0,0-1.38-2.55,15.53,15.53,0,0,0-1.83-2.22,16.24,16.24,0,0,0-2.22-1.83,15.3,15.3,0,0,0-2.55-1.38A15,15,0,0,0,21,9.31a14.83,14.83,0,0,0-2.82.87,15.71,15.71,0,0,0-2.55,1.38,15,15,0,0,0-4,4,15.3,15.3,0,0,0-1.38,2.55A14.83,14.83,0,0,0,9.31,21a15.1,15.1,0,0,0,.87,8.86,15.3,15.3,0,0,0,1.38,2.55,16.24,16.24,0,0,0,1.83,2.22,15.53,15.53,0,0,0,2.22,1.83A15.14,15.14,0,0,0,21,38.7a15,15,0,0,0,11.41-2.26,15,15,0,0,0,4-4,14.61,14.61,0,0,0,1.38-2.55A15.14,15.14,0,0,0,38.7,21a15.61,15.61,0,0,0-.88-2.82M24,11.19a12.76,12.76,0,0,1,8.46,3.2S30.61,17.21,25.77,19A64.23,64.23,0,0,0,21,11.55a13.07,13.07,0,0,1,3-.36m-3.07.37h0m-2.39.85a76.41,76.41,0,0,1,4.75,7.38,47,47,0,0,1-11.82,1.57,12.81,12.81,0,0,1,7.07-8.95M14.47,32.56A12.76,12.76,0,0,1,11.19,24c0-.14,0-.27,0-.4a47.41,47.41,0,0,0,13.15-1.83c.37.72.72,1.45,1,2.18a4.74,4.74,0,0,0-.5.15,20.27,20.27,0,0,0-10.42,8.45h0M24,36.81a12.77,12.77,0,0,1-7.87-2.71h0l-.29-.22.29.22c0-.06,2.49-5.37,10.05-8l.09,0A53.23,53.23,0,0,1,29,35.8a12.76,12.76,0,0,1-5,1m7.16-2.18a55.11,55.11,0,0,0-2.49-9.16,18.69,18.69,0,0,1,8,.56,12.87,12.87,0,0,1-5.49,8.6M27.89,23.45c-.1-.22-.19-.44-.28-.66-.27-.63-.55-1.25-.85-1.86a16.44,16.44,0,0,0,7.14-5.07,12.79,12.79,0,0,1,2.91,8,29.79,29.79,0,0,0-8.92-.42"/>
  </g>
</svg>
