<svg xmlns="http://www.w3.org/2000/svg" width="48" height="48" viewBox="0 0 48 48">
  <defs>
    <style>
      .a {
        fill: #f63d27;
      }
    </style>
  </defs>
  <title>google</title>
  <g>
    <path class="a" d="M18.6,21.33h0a2.1,2.1,0,0,0,1.62-.74A4.32,4.32,0,0,0,21,17.26c-.31-2.36-2-4.32-3.75-4.37h-.07a2.09,2.09,0,0,0-1.6.74,4.13,4.13,0,0,0-.76,3.26c.31,2.35,2,4.39,3.75,4.45Z"/>
    <path class="a" d="M20.53,28.44,20,28.08a5.76,5.76,0,0,0-1.71-.26h-.07c-2.71,0-5.09,1.65-5.09,3.52,0,2,2,3.64,4.64,3.64,3.42,0,5.16-1.18,5.16-3.52a3.23,3.23,0,0,0-.08-.68C22.61,29.87,21.78,29.3,20.53,28.44Z"/>
    <path class="a" d="M24,0A24,24,0,1,0,48,24,24,24,0,0,0,24,0ZM21,37.06a11.76,11.76,0,0,1-3.25.44,14.84,14.84,0,0,1-3.65-.44,7.06,7.06,0,0,1-4.62-3A3.86,3.86,0,0,1,9,32.19a4.71,4.71,0,0,1,.48-2c1.21-2.6,4.42-4.34,8-4.34h.11a3.14,3.14,0,0,1-.43-1.59,3.08,3.08,0,0,1,.11-.84A6.4,6.4,0,0,1,10.72,17c0-2.54,2-5,4.93-6a8,8,0,0,1,2.62-.45h8a.62.62,0,0,1,.59.43.61.61,0,0,1-.22.7l-1.78,1.3a.7.7,0,0,1-.37.11h-.64a6.18,6.18,0,0,1,1.31,4,6,6,0,0,1-2.49,4.66c-1.24,1-1.29,1.23-1.29,1.79a5.34,5.34,0,0,0,1.83,2,6.19,6.19,0,0,1,3,5.7C26.22,33.81,24.18,36.14,21,37.06ZM39,23.38a.63.63,0,0,1-.62.63H33.85v4.53a.63.63,0,0,1-.62.63H31.94a.63.63,0,0,1-.63-.63V24H26.79a.63.63,0,0,1-.63-.63V22.09a.63.63,0,0,1,.63-.63h4.52V16.93a.63.63,0,0,1,.63-.63h1.29a.63.63,0,0,1,.62.63v4.53h4.53a.63.63,0,0,1,.62.63Z"/>
  </g>
</svg>
