<svg xmlns="http://www.w3.org/2000/svg" width="36" height="58" viewBox="0 0 36 58">
  <defs>
    <style>
      .a {
        fill: none;
        stroke: #000;
        stroke-linecap: round;
        stroke-linejoin: round;
        stroke-width: 2px;
      }
    </style>
  </defs>
  <title>measure</title>
  <g>
    <polygon class="a" points="7.76 5.15 5.51 1 3.25 5.15 1 9.3 1 9.3 1 57 10 57 10 9.3 10.01 9.3 7.76 5.15"/>
    <rect x="1" y="10" width="9" height="2"/>
    <rect x="1" y="51" width="9" height="2"/>
    <g>
      <rect class="a" x="21" y="1" width="14" height="56"/>
      <path d="M26,8c0,.55-.32,1-.71,1H21.71C21.32,9,21,8.55,21,8h0c0-.55.32-1,.71-1h3.58c.39,0,.71.45.71,1Z"/>
      <path d="M28,15a1,1,0,0,1-1,1H22a1,1,0,0,1-1-1h0a1,1,0,0,1,1-1h5a1,1,0,0,1,1,1Z"/>
      <path d="M26,22c0,.55-.32,1-.71,1H21.71c-.39,0-.71-.45-.71-1h0c0-.55.32-1,.71-1h3.58c.39,0,.71.45.71,1Z"/>
      <path d="M28,29a1,1,0,0,1-1,1H22a1,1,0,0,1-1-1h0a1,1,0,0,1,1-1h5a1,1,0,0,1,1,1Z"/>
      <path d="M26,36c0,.55-.32,1-.71,1H21.71c-.39,0-.71-.45-.71-1h0c0-.55.32-1,.71-1h3.58c.39,0,.71.45.71,1Z"/>
      <path d="M28,43a1,1,0,0,1-1,1H22a1,1,0,0,1-1-1h0a1,1,0,0,1,1-1h5a1,1,0,0,1,1,1Z"/>
      <path d="M26,50c0,.55-.32,1-.71,1H21.71c-.39,0-.71-.45-.71-1h0c0-.55.32-1,.71-1h3.58c.39,0,.71.45.71,1Z"/>
    </g>
  </g>
</svg>
