<svg xmlns="http://www.w3.org/2000/svg" width="48" height="48" viewBox="0 0 48 48">
  <defs>
    <style>
      .a {
        fill: #2daae1;
      }
    </style>
  </defs>
  <title>twitter</title>
  <path class="a" d="M24,0A24,24,0,1,0,48,24,24,24,0,0,0,24,0ZM35.93,18c0,.26,0,.52,0,.78A17.25,17.25,0,0,1,18.44,36,17.64,17.64,0,0,1,9,33.28a14.17,14.17,0,0,0,1.47.08,12.48,12.48,0,0,0,7.64-2.59,6.16,6.16,0,0,1-5.75-4.21,6.42,6.42,0,0,0,1.16.11,6.28,6.28,0,0,0,1.63-.21,6.09,6.09,0,0,1-4.94-5.94v-.08A6.24,6.24,0,0,0,13,21.2a6,6,0,0,1-2.73-5,5.93,5.93,0,0,1,.83-3.05,17.55,17.55,0,0,0,12.69,6.33,5.73,5.73,0,0,1-.16-1.38A6.1,6.1,0,0,1,29.77,12a6.21,6.21,0,0,1,4.49,1.91,12.12,12.12,0,0,0,3.91-1.47,6.07,6.07,0,0,1-2.7,3.35A12.28,12.28,0,0,0,39,14.84,12.38,12.38,0,0,1,35.93,18Z"/>
</svg>
