<?xml version="1.0" encoding="utf-8"?><svg xmlns="http://www.w3.org/2000/svg" xmlns:xlink="http://www.w3.org/1999/xlink"><symbol viewBox="0 0 512 470" id="icons--car" xmlns="http://www.w3.org/2000/svg"><path d="M463.73 403.72c0 1 .08 2 .08 3a63.25 63.25 0 11-126.49 0c0-1 0-2 .08-3H174.6c.05 1 .08 2 .08 3a63.25 63.25 0 11-126.49 0c0-1 0-2 .08-3H0V42.18h114.45V0H265v42.18h54.21v42.18h104.5L512 229.45v174.27zm-63.16 48.2a45.23 45.23 0 0045.17-45.19 45.18 45.18 0 00-89.29-9.82 46.36 46.36 0 00-1.06 9.82 45.23 45.23 0 0045.18 45.19zm-289.14 0a45.23 45.23 0 0045.18-45.19 45.18 45.18 0 00-89.29-9.82 46.36 46.36 0 00-1.06 9.82 45.23 45.23 0 0045.17 45.19zM78.31 60.26H18.07v66.28h60.24zm18.07 0v66.28h54.21V60.26zM247 18.08H132.52v24.1H247zm-78.3 42.18v66.28h54.21V60.26zm132.52 0h-60.28v66.28h60.24zm0 84.36H18.07v156.66h24.1V168.72h234.91v132.56h24.1zM259 229v-42.21H60.24V229zM60.24 247.05v54.23H259v-54.23zm301.17-144.61h-42.16V223h42.16zm52.15 0h-34.08V223h107.41zM493.93 241H319.25v78.34H18.07v66.28h33.74a63.24 63.24 0 01119.26 0h169.87a63.24 63.24 0 01119.26 0h33.73zM358.4 277.18h42.17v18.08H358.4zm-247 108.46a21.09 21.09 0 11-21.08 21.09 21.11 21.11 0 0121.11-21.09zm289.14 0a21.09 21.09 0 11-21.09 21.09 21.11 21.11 0 0121.12-21.09z" fill-rule="evenodd"/></symbol><symbol viewBox="0 0 38 40" id="icons--logo" xmlns="http://www.w3.org/2000/svg"><path fill-rule="evenodd" d="M36.657 34.401h1.12c.123 0 .223.102.223.228v1.144c0 .126-.1.228-.223.228H25.692a.226.226 0 01-.223-.228v-1.144c0-.126.1-.228.223-.228h1.12a.226.226 0 00.224-.228V32.23c0-.126-.1-.228-.224-.228h-1.12a.226.226 0 01-.223-.228v-1.143c0-.126.1-.229.223-.229h12.085c.123 0 .223.103.223.229v1.143c0 .126-.1.228-.223.228h-1.12a.226.226 0 00-.223.228v1.943c0 .126.1.228.223.228zm.574-4.798h-.515a.218.218 0 01-.146-.056l-3.6-3.167a.218.218 0 00-.216-.044 2.84 2.84 0 01-.948.168c-.317 0-.632-.076-.922-.214a.219.219 0 00-.235.029l-3.905 3.233a.22.22 0 01-.141.051l-.454-.005c-.235-.002-.338-.304-.156-.455l3.982-3.296a.228.228 0 00.045-.303c-.248-.37-.406-.841-.406-1.422 0-.442.351-.8.783-.8.432 0 .783.358.783.8 0 .11.011.205.031.286.039.162.23.226.357.121l.002-.002a.386.386 0 01.502.008l.172.151a.22.22 0 00.282.009c.172-.138.289-.357.289-.707 0-.723-.702-.898-.834-.923a.798.798 0 01-.654-.79v-2.042c0-.125-.1-.228-.223-.228h-.463a.224.224 0 01-.219-.183l-1.006-5.142a.226.226 0 01.219-.273h.686a.226.226 0 00.223-.228V9.535c0-.238-.313-.317-.421-.105l-8.952 17.594a.235.235 0 00-.025.105v.646c0 .126-.1.228-.223.228h-2.686a.226.226 0 00-.224.228v1.144a.225.225 0 01-.223.228H6.489a.226.226 0 01-.223-.228v-1.144c0-.126-.1-.228-.223-.228H1.79a.226.226 0 01-.223-.228v-14.74c0-.126.1-.227.223-.227h11.301c.123 0 .223.101.223.227v7.428l-.886 2.434a.228.228 0 00.21.308h1.243c.072 0 .14-.036.182-.096L30.258.066a.22.22 0 01.297-.062l3.246 2a.23.23 0 01.079.308l-.957 1.713a.23.23 0 00-.029.112v10.042c0 .126.1.228.223.228h.676c.135 0 .24.123.221.26L33.3 19.81a.225.225 0 01-.221.195h-.185v1.549c0 .086.046.164.121.203.67.349 1.367 1.041 1.367 2.23 0 .741-.248 1.307-.626 1.713a.231.231 0 00.016.33l3.605 3.172c.157.138.061.401-.146.401zM10.182 16.235c0-.126-.1-.229-.224-.229H4.923a.227.227 0 00-.224.229v4.342c0 .126.1.228.224.228h5.035a.226.226 0 00.224-.228v-4.342zm7.608 3.882l-1.514 2.108a.231.231 0 00.069.332l3.374 1.987c.189.112.406-.091.314-.293l-1.861-4.096a.22.22 0 00-.382-.038zm1.883-1.152l1.545 3.763a.221.221 0 00.4.024l1.042-1.877a.232.232 0 00-.065-.298l-2.586-1.886c-.183-.133-.422.062-.336.274zm1.718-3.829l-1.302 1.83-.01.014 2.614 1.737c.182.121.408-.068.33-.274l-1.243-3.256a.222.222 0 00-.389-.051zm1.608-.89l1.188 3.25c.068.185.319.2.408.024l.898-1.79a.232.232 0 00-.072-.292l-2.087-1.46c-.179-.125-.411.06-.335.268zm2.43-4.248a.221.221 0 00-.402-.082l-1.259 1.874a.232.232 0 00.064.321l1.892 1.237c.167.109.379-.041.339-.239l-.634-3.111zm.976-1.336l.649 3.012a.222.222 0 00.414.059l1.008-1.912a.231.231 0 00-.075-.299l-1.656-1.1c-.167-.111-.382.041-.34.24zm2.533-4.238a.222.222 0 00-.412-.065l-1.109 1.965a.232.232 0 00.073.306l1.79 1.177c.168.111.382-.042.339-.241l-.681-3.142zm2.89-.905l-1.497-1.005c-.165-.111-.379.035-.342.233l.537 2.868c.04.211.319.254.417.063l.96-1.863a.229.229 0 00-.075-.296zm.283 2.983c0-.238-.312-.317-.421-.107l-.337.649a.23.23 0 00-.026.106v7.029c0 .126.1.228.224.228h.336a.226.226 0 00.224-.228V6.502zm-12.14 24.7c2.326 0 3.525 1.125 3.525 2.799v3.375c0 1.749-1.151 2.624-3.525 2.624H2.742C1.012 40 0 38.825 0 36.601v-2.372c0-1.671 1.328-3.027 2.965-3.027h17.006zM3.133 36.573c0 .126.1.228.223.228H20.14a.226.226 0 00.223-.228v-1.944c0-.126-.1-.228-.223-.228H3.356a.226.226 0 00-.223.228v1.944z"/></symbol><symbol viewBox="0 0 38 40" id="icons--logo_light" xmlns="http://www.w3.org/2000/svg"><path fill-rule="evenodd" d="M36.657 34.401h1.12c.123 0 .223.102.223.228v1.144c0 .126-.1.228-.223.228H25.692a.226.226 0 01-.223-.228v-1.144c0-.126.1-.228.223-.228h1.12a.226.226 0 00.224-.228V32.23c0-.126-.1-.228-.224-.228h-1.12a.226.226 0 01-.223-.228v-1.143c0-.126.1-.229.223-.229h12.085c.123 0 .223.103.223.229v1.143c0 .126-.1.228-.223.228h-1.12a.226.226 0 00-.223.228v1.943c0 .126.1.228.223.228zm.574-4.798h-.515a.218.218 0 01-.146-.056l-3.6-3.167a.218.218 0 00-.216-.044 2.84 2.84 0 01-.948.168c-.317 0-.632-.076-.922-.214a.219.219 0 00-.235.029l-3.905 3.233a.22.22 0 01-.141.051l-.454-.005c-.235-.002-.338-.304-.156-.455l3.982-3.296a.228.228 0 00.045-.303c-.248-.37-.406-.841-.406-1.422 0-.442.351-.8.783-.8.432 0 .783.358.783.8 0 .11.011.205.031.286.039.162.23.226.357.121l.002-.002a.386.386 0 01.502.008l.172.151a.22.22 0 00.282.009c.172-.138.289-.357.289-.707 0-.723-.702-.898-.834-.923a.798.798 0 01-.654-.79v-2.042c0-.125-.1-.228-.223-.228h-.463a.224.224 0 01-.219-.183l-1.006-5.142a.226.226 0 01.219-.273h.686a.226.226 0 00.223-.228V9.535c0-.238-.313-.317-.421-.105l-8.952 17.594a.235.235 0 00-.025.105v.646c0 .126-.1.228-.223.228h-2.686a.226.226 0 00-.224.228v1.144a.225.225 0 01-.223.228H6.489a.226.226 0 01-.223-.228v-1.144c0-.126-.1-.228-.223-.228H1.79a.226.226 0 01-.223-.228v-14.74c0-.126.1-.227.223-.227h11.301c.123 0 .223.101.223.227v7.428l-.886 2.434a.228.228 0 00.21.308h1.243c.072 0 .14-.036.182-.096L30.258.066a.22.22 0 01.297-.062l3.246 2a.23.23 0 01.079.308l-.957 1.713a.23.23 0 00-.029.112v10.042c0 .126.1.228.223.228h.676c.135 0 .24.123.221.26L33.3 19.81a.225.225 0 01-.221.195h-.185v1.549c0 .086.046.164.121.203.67.349 1.367 1.041 1.367 2.23 0 .741-.248 1.307-.626 1.713a.231.231 0 00.016.33l3.605 3.172c.157.138.061.401-.146.401zM10.182 16.235c0-.126-.1-.229-.224-.229H4.923a.227.227 0 00-.224.229v4.342c0 .126.1.228.224.228h5.035a.226.226 0 00.224-.228v-4.342zm7.608 3.882l-1.514 2.108a.231.231 0 00.069.332l3.374 1.987c.189.112.406-.091.314-.293l-1.861-4.096a.22.22 0 00-.382-.038zm1.883-1.152l1.545 3.763a.221.221 0 00.4.024l1.042-1.877a.232.232 0 00-.065-.298l-2.586-1.886c-.183-.133-.422.062-.336.274zm1.718-3.829l-1.302 1.83-.01.014 2.614 1.737c.182.121.408-.068.33-.274l-1.243-3.256a.222.222 0 00-.389-.051zm1.608-.89l1.188 3.25c.068.185.319.2.408.024l.898-1.79a.232.232 0 00-.072-.292l-2.087-1.46c-.179-.125-.411.06-.335.268zm2.43-4.248a.221.221 0 00-.402-.082l-1.259 1.874a.232.232 0 00.064.321l1.892 1.237c.167.109.379-.041.339-.239l-.634-3.111zm.976-1.336l.649 3.012a.222.222 0 00.414.059l1.008-1.912a.231.231 0 00-.075-.299l-1.656-1.1c-.167-.111-.382.041-.34.24zm2.533-4.238a.222.222 0 00-.412-.065l-1.109 1.965a.232.232 0 00.073.306l1.79 1.177c.168.111.382-.042.339-.241l-.681-3.142zm2.89-.905l-1.497-1.005c-.165-.111-.379.035-.342.233l.537 2.868c.04.211.319.254.417.063l.96-1.863a.229.229 0 00-.075-.296zm.283 2.983c0-.238-.312-.317-.421-.107l-.337.649a.23.23 0 00-.026.106v7.029c0 .126.1.228.224.228h.336a.226.226 0 00.224-.228V6.502zm-12.14 24.7c2.326 0 3.525 1.125 3.525 2.799v3.375c0 1.749-1.151 2.624-3.525 2.624H2.742C1.012 40 0 38.825 0 36.601v-2.372c0-1.671 1.328-3.027 2.965-3.027h17.006zM3.133 36.573c0 .126.1.228.223.228H20.14a.226.226 0 00.223-.228v-1.944c0-.126-.1-.228-.223-.228H3.356a.226.226 0 00-.223.228v1.944z"/></symbol><symbol viewBox="0 0 309 467" id="icons--mark" xmlns="http://www.w3.org/2000/svg"><path d="M154.5 0C69.31 0 0 69.29 0 154.47c0 34.31 21.91 90.24 67 171 31.88 57.11 63.24 104.73 64.55 106.73l23 34.81 23-34.81c1.32-2 32.68-49.62 64.56-106.73 45.07-80.75 67-136.68 67-171C309 69.29 239.69 0 154.5 0zm0 233.5a80.07 80.07 0 1180.08-80.07 80.08 80.08 0 01-80.08 80.07z"/></symbol><symbol viewBox="0 0 309 467" id="icons--mark_black" xmlns="http://www.w3.org/2000/svg"><path d="M154.5 0C69.31 0 0 69.29 0 154.47c0 34.31 21.91 90.24 67 171 31.88 57.11 63.24 104.73 64.55 106.73l23 34.81 23-34.81c1.32-2 32.68-49.62 64.56-106.73 45.07-80.75 67-136.68 67-171C309 69.29 239.69 0 154.5 0zm0 233.5a80.07 80.07 0 1180.08-80.07 80.08 80.08 0 01-80.08 80.07z"/></symbol><symbol viewBox="0 0 14 10" id="icons--message" xmlns="http://www.w3.org/2000/svg"><path d="M9.17 5.08L14 .88v8.31zM.32.27A1 1 0 011 0h12a1 1 0 01.69.27L7 6zM0 9.19V.88l4.83 4.2zM7 7l1.73-1.52 4.95 4.25A1 1 0 0113 10H1a1 1 0 01-.69-.27l4.96-4.25z" fill-rule="evenodd"/></symbol><symbol viewBox="0 0 577.75 578" id="icons--phone" xmlns="http://www.w3.org/2000/svg"><path d="M577.47 456.15q1.85 14.09-8.56 24.5l-81.35 80.82a45.93 45.93 0 01-14.37 10.41 59.69 59.69 0 01-17.43 5.51c-.41 0-1.63.1-3.67.3s-4.69.31-7.95.31q-11.62 0-37.62-4t-63.6-19.59q-37.62-15.61-85.33-46.84t-101.53-85.7q-42.81-42.25-70.94-80.82t-45.26-71.34Q22.73 237 14.17 210.32T2.55 164.4Q-.51 145.11.1 134.09t.61-12.24a59.41 59.41 0 015.51-17.45A45.73 45.73 0 0116.62 90L98 8.57Q106.53 0 117.53 0a22.82 22.82 0 0114.07 4.59A42.6 42.6 0 01142 15.92l65.44 124.29a29.84 29.84 0 013.06 21.43 38.19 38.19 0 01-10.4 19.6l-30 30a10.27 10.27 0 00-2.14 4 15.16 15.16 0 00-.91 4.59q2.44 12.85 11 29.39 7.35 14.7 22.63 35.82t43.43 48.68q27.53 28.16 48.93 43.78t35.78 23q14.37 7.33 22 8.87l7.64 1.53a14.55 14.55 0 004-.91 10.22 10.22 0 004-2.15l34.87-35.51a37.43 37.43 0 0125.68-9.8q10.41 0 16.52 3.68h.61l118 69.8q12.86 7.91 15.33 20.14z" fill-rule="evenodd"/></symbol><symbol viewBox="0 0 60 60" id="icons--piggy-bank" xmlns="http://www.w3.org/2000/svg"><path d="M1.54 28.91a7 7 0 01.58-3.42 1 1 0 011.88.82 4.68 4.68 0 00-.34 1.1A5.8 5.8 0 016 26.9a.75.75 0 01.16 0h.34a4.17 4.17 0 01.71.08 21.87 21.87 0 019.45-10.56A12.38 12.38 0 0116 12.5a12.52 12.52 0 0125 0 12.69 12.69 0 01-.31 2.76c.89.29 1.68.57 2.31.82 4.39-1.76 7.25-2.36 9.8-2.07a1.33 1.33 0 011.19 1.11 1.37 1.37 0 01-.76 1.47c-1.36.65-1.94 2.24-2.55 3.91-.15.42-.31.85-.48 1.27 2.61 2.71 3.09 4.89 3.56 8.13h1.26c3.19 0 4.98 2.23 4.98 6.1v3.61c0 3.94-1.84 6.29-4.92 6.29h-.62a16.68 16.68 0 01-3.19 5.1l1.38 3.45A4.06 4.06 0 0148.87 60h-6.75a2.06 2.06 0 01-1.92-1.3l-.37-.92a37.38 37.38 0 01-10.53 1.44 31.94 31.94 0 01-8.63-1.13A2.65 2.65 0 0118.12 60h-6A4.36 4.36 0 018 54.19l1.17-3.32A18.7 18.7 0 015 38.9v-.09a6 6 0 01-5-5.91 5.92 5.92 0 011.54-3.99zm17.23 28.57a22.31 22.31 0 01-8.08-4.94l-.82 2.31A2.37 2.37 0 0012.1 58h6a.65.65 0 00.63-.47zm32-2.32l-1.07-2.65a24.83 24.83 0 01-8 4.64l.36.85h6.75a2 2 0 001.72-.91 2.07 2.07 0 00.27-1.93zM18 12.5a10.63 10.63 0 00.64 3.61l.16.37a10.76 10.76 0 002.1 3.24c.12-.06.25-.09.38-.15.29-.13.59-.24.89-.35s.54-.22.83-.22.57-.15.86-.22c.52-.13 1-.23 1.57-.31.25 0 .5-.08.75-.1s.63 0 .94 0h1.67c.29 0 .57.05.85.09s.54.06.81.11.76.16 1.14.26l.5.12a16.67 16.67 0 011.63.58l.36.17q.64.28 1.26.63l.18.09a11.91 11.91 0 00.94-.94 1.71 1.71 0 01.11-.14 11 11 0 00.73-1v-.08a10.36 10.36 0 001.19-2.46l.11-.34a10.3 10.3 0 00.43-2.94 10.51 10.51 0 00-21 0zM9 27.7a5.17 5.17 0 01.57.48l.09.09a4.59 4.59 0 01.9 1.33v.08a4.15 4.15 0 01.23.76v.14a4.47 4.47 0 01.08.82 4.14 4.14 0 01-.09.87c0 .1-.05.19-.07.28a4.68 4.68 0 01-.17.53 2.8 2.8 0 01-.15.3 3.75 3.75 0 01-.24.44 2.64 2.64 0 01-.21.29 3.37 3.37 0 01-.3.36 3.07 3.07 0 01-.26.25l-.36.3-.3.2a4.36 4.36 0 01-.42.23l-.33.14a3.68 3.68 0 01-.47.15l-.36.08H7c-.09 1-.13 2-.13 3a16.64 16.64 0 004.81 11.91q.62.61 1.29 1.17l.33.27c.34.26.68.52 1 .76l.46.32c.46.29.92.58 1.41.84l.5.25c.36.19.73.37 1.12.54l.62.26c.45.19.92.36 1.39.52l.31.11a29.39 29.39 0 009 1.33 34.34 34.34 0 0011.36-1.86l.59-.21C47 53 51.21 49.26 52.82 44.58l.23-.68h2c2.41 0 2.92-2.33 2.92-4.3V36c0-4.1-2.2-4.1-2.92-4.1h-3L52 31c-.53-3.75-.79-5.63-3.59-8.32l-.52-.5.31-.65c.25-.54.47-1.13.7-1.75a11.31 11.31 0 012-3.85 25.64 25.64 0 00-7.42 2.11l-.38.15-.38-.15c-.61-.26-1.51-.58-2.53-.92a13.64 13.64 0 01-.7 1.44l-.06.1a10.14 10.14 0 01-.78 1.19l-.15.21c-.26.34-.55.67-.85 1-.08.07-.14.16-.22.23l-.19.19a15.17 15.17 0 011.57 1.35 1 1 0 01-1.42 1.41 13.09 13.09 0 00-2.1-1.71l-.16-.11q-.45-.28-.93-.54l-.39-.2c-.25-.13-.5-.25-.76-.36l-.31-.13c-.36-.14-.73-.27-1.1-.38l-.19-.05a10.2 10.2 0 00-1.09-.27h-.11a13.94 13.94 0 00-7.74.74h-.08a13.84 13.84 0 00-4.52 3 1 1 0 01-1.41 0 1 1 0 010-1.41 15.93 15.93 0 012.68-2.14c-.08-.09-.15-.19-.23-.29s-.27-.33-.4-.51-.24-.34-.36-.51l-.33-.37c-.11-.19-.23-.39-.33-.59a.83.83 0 01-.08-.12 19.82 19.82 0 00-8.38 9.41zm-5 3.7a2.5 2.5 0 002.13 2.47h.37A2.5 2.5 0 009 31.4a2.3 2.3 0 000-.4v-.12a1.83 1.83 0 00-.11-.33.76.76 0 000-.11 2.52 2.52 0 00-.48-.72l-.11-.1-.3-.22-.16-.11-.18-.1-.21-.11a2.6 2.6 0 00-.92-.18A2.5 2.5 0 004 31.4zm-2 1.5a4 4 0 003.07 3.88c0-.37.06-.74.09-1.1a4.49 4.49 0 01-3.08-3.53 3.82 3.82 0 00-.08.75zm25 21a1 1 0 011.13-.9 23.57 23.57 0 0012.24-1.94 1 1 0 011.32.52 1 1 0 01-.51 1.31 25.37 25.37 0 01-10.53 2.23q-1.32 0-2.7-.12a1 1 0 01-.95-1.09zm15-24.51a3.5 3.5 0 113.5 3.5 3.5 3.5 0 01-3.44-3.49zm2 0a1.5 1.5 0 101.5-1.5 1.5 1.5 0 00-1.44 1.51zM22.85 18.22a8.39 8.39 0 1114.08-6.15 8.3 8.3 0 01-3.26 6.62 1 1 0 01-.61.21 1 1 0 01-.61-1.79 6.39 6.39 0 10-8.24-.36 1 1 0 01-1.36 1.47z" fill-rule="evenodd"/></symbol><symbol viewBox="0 0 295 294" id="icons--wheelbarrow" xmlns="http://www.w3.org/2000/svg"><path d="M252.18 208.24A43 43 0 11220 223l-22.21-24.26h-.19L138 284a23.53 23.53 0 01-42.81-13.52 57.34 57.34 0 012-15.19l15.5-56.53h-11L44.59 79.6H0v-9.53h50.57l16 33.35h11.81l32.05-46.68a68.06 68.06 0 0156.1-29.55 66.9 66.9 0 0126 5.38l16.84-16.88 11.9 11.91L248.81 0l6.73 6.74L228 34.34l11.89 11.91-14.51 14.51 29.3 42.66h26.05V113H265l-33.31 85.76h-21L227 216.53a42.49 42.49 0 0125.18-8.29zm-145.8 49.52a48.06 48.06 0 00-1.7 12.67 14 14 0 0025.49 8.06l55.77-79.78h-63.36zm120-211.51l-17.02-17.09L194.51 44a14.39 14.39 0 00-4.19 10.1v11.21h11.15a14.18 14.18 0 0010.1-4.19zm-7.88 21.36l-.24.25a23.64 23.64 0 01-16.83 7h-20.62V54.14A23.55 23.55 0 01185.57 40a57.32 57.32 0 00-19-3.27 58.51 58.51 0 00-48.25 25.41l-28.39 41.28h153.2zm6.6 121.57L254.74 113H71.13l36.54 76.23h117.47zm-6.27 61.94a33.36 33.36 0 1014.55-27.54l9.88 10.79a18.65 18.65 0 018.88-2.31 19.14 19.14 0 11-15.94 8.71L226.41 230a33.19 33.19 0 00-7.54 21.12zm29.8 3.22l-5.53-6.05a9.49 9.49 0 109-6.7 9.9 9.9 0 00-2.05.23l5.56 6.08zM114.19 122.48h114.2V132h-114.2zm-19 0h9.52V132h-9.55z" fill-rule="evenodd"/></symbol></svg>