<svg xmlns="http://www.w3.org/2000/svg" width="24" height="19.49" viewBox="0 0 24 19.49"><title>twitter</title><path d="M21.53,4.86c0,.21,0,.42,0,.64a13.9,13.9,0,0,1-14,14A13.84,13.84,0,0,1,0,17.28a9.39,9.39,0,0,0,1.19.07,9.81,9.81,0,0,0,6.1-2.11A4.9,4.9,0,0,1,2.7,11.83a5.52,5.52,0,0,0,.92.08,5,5,0,0,0,1.3-.17A4.92,4.92,0,0,1,1,6.91V6.85a4.93,4.93,0,0,0,2.23.63A4.91,4.91,0,0,1,1,3.38,4.85,4.85,0,0,1,1.68.9,14,14,0,0,0,11.82,6.05a5.35,5.35,0,0,1-.12-1.13,4.92,4.92,0,0,1,8.51-3.37A9.64,9.64,0,0,0,23.33.37a4.93,4.93,0,0,1-2.16,2.71A9.64,9.64,0,0,0,24,2.31,10.5,10.5,0,0,1,21.53,4.86Z"/></svg>