<svg width="50" height="50" viewBox="0 0 50 50" fill="none" xmlns="http://www.w3.org/2000/svg">
<path fill-rule="evenodd" clip-rule="evenodd" d="M33.5748 11.4614H16.4255C13.6885 11.4614 11.4613 13.6885 11.4613 16.4256V33.5748C11.4613 36.3123 13.6885 38.5395 16.4255 38.5395H33.5748C36.3121 38.5395 38.5393 36.3123 38.5393 33.5748V16.4256C38.5393 13.6886 36.3121 11.4614 33.5748 11.4614ZM24.9998 33.9142C20.0851 33.9142 16.086 29.9151 16.086 24.9999C16.086 20.0852 20.0851 16.0862 24.9998 16.0862C29.915 16.0862 33.9141 20.0852 33.9141 24.9999C33.9141 29.9151 29.915 33.9142 24.9998 33.9142ZM34.2009 17.9294C33.0373 17.9294 32.0911 16.9833 32.0911 15.8204C32.0911 14.6573 33.0373 13.7112 34.2009 13.7112C35.3638 13.7112 36.3099 14.6573 36.3099 15.8204C36.3099 16.9834 35.3638 17.9294 34.2009 17.9294Z" fill="white"/>
<path fill-rule="evenodd" clip-rule="evenodd" d="M24.9997 19.8533C22.1625 19.8533 19.8521 22.1626 19.8521 24.9998C19.8521 27.8382 22.1625 30.1481 24.9997 30.1481C27.838 30.1481 30.1468 27.8382 30.1468 24.9998C30.1468 22.1626 27.838 19.8533 24.9997 19.8533Z" fill="white"/>
<path fill-rule="evenodd" clip-rule="evenodd" d="M0 0V50H50V0H0ZM42.3055 33.5746C42.3055 38.3896 38.3896 42.3055 33.5747 42.3055H16.4254C11.611 42.3055 7.69451 38.3896 7.69451 33.5746V16.4254C7.69451 11.611 11.611 7.69451 16.4254 7.69451H33.5747C38.3896 7.69451 42.3055 11.611 42.3055 16.4254V33.5746Z" fill="white"/>
</svg>
