<svg width="105" height="28" viewBox="0 0 105 28" fill="none" xmlns="http://www.w3.org/2000/svg">
<path d="M104.204 20.7603V18.3633V15.9714H101.813H0V18.3633V20.7603V23.1521H2.39698V21.9562V18.3633H101.813V20.7603V23.1521H104.204V20.7603Z" fill="white"/>
<path d="M99.804 12.6237C98.603 12.6237 97.591 12.3528 96.7682 11.8162C95.9454 11.2796 95.3678 10.5487 95.0356 9.62368L97.0851 8.42774C97.5604 9.66456 98.4906 10.283 99.8756 10.283C100.545 10.283 101.036 10.1603 101.348 9.9201C101.659 9.67478 101.818 9.37324 101.818 9.00015C101.818 8.57084 101.629 8.23864 101.245 8.00354C100.862 7.76844 100.182 7.50779 99.1958 7.23181C98.6541 7.06826 98.1941 6.90983 97.8159 6.74628C97.4377 6.58274 97.0646 6.36808 96.6864 6.09721C96.3082 5.82634 96.0271 5.4788 95.8278 5.06482C95.6285 4.64573 95.5314 4.16021 95.5314 3.60824C95.5314 2.50941 95.9198 1.63546 96.7018 0.981275C97.4837 0.32709 98.419 0 99.5178 0C100.499 0 101.363 0.240207 102.109 0.720624C102.855 1.20104 103.438 1.87056 103.852 2.72407L101.838 3.88422C101.353 2.84162 100.576 2.32542 99.5127 2.32542C99.017 2.32542 98.6234 2.43786 98.3423 2.66274C98.0561 2.88761 97.9181 3.17893 97.9181 3.53668C97.9181 3.92 98.0766 4.22665 98.3935 4.46686C98.7103 4.70707 99.3236 4.96261 100.223 5.23859C100.591 5.35614 100.872 5.44303 101.066 5.50947C101.256 5.57591 101.516 5.67301 101.848 5.80589C102.181 5.93877 102.431 6.06143 102.61 6.17898C102.789 6.29653 102.993 6.44985 103.228 6.64917C103.458 6.84339 103.637 7.04782 103.76 7.25736C103.882 7.46691 103.985 7.71734 104.072 8.01377C104.158 8.31019 104.204 8.63217 104.204 8.9746C104.204 10.0939 103.796 10.9883 102.983 11.6476C102.17 12.2966 101.107 12.6237 99.804 12.6237Z" fill="white"/>
<path d="M7.47713 1.42084C6.67984 0.633772 5.69856 0.240234 4.52818 0.240234H0V2.47878H4.52818C5.03927 2.47878 5.45836 2.65254 5.79567 3.00008C6.13298 3.34761 6.29653 3.78715 6.29653 4.31867C6.29653 4.83997 6.12787 5.27439 5.79567 5.62704C5.45836 5.97969 5.03927 6.15346 4.52818 6.15346H0V12.3784H2.39186V8.38688H4.52308C5.68834 8.38688 6.67473 7.99335 7.47202 7.20628C8.26931 6.41922 8.66795 5.45327 8.66795 4.30845C8.67306 3.16874 8.27442 2.20279 7.47713 1.42084Z" fill="white"/>
<path d="M17.1724 0.240234H19.5642V12.3835H17.1724V0.240234Z" fill="white"/>
<path d="M31.1555 10.0888H35.7859V12.3784H28.7637V0.235107H31.1555V10.0888Z" fill="white"/>
<path d="M46.4675 10.0888H51.0979V12.3784H44.0757V0.235107H46.4675V10.0888Z" fill="white"/>
<path d="M67.5395 12.3835H70.1409L65.8734 0.240234H62.9091L58.662 12.3835H61.2481H67.5395ZM62.0556 9.98657L62.7404 7.95757L64.4065 2.99497L66.0727 7.95757L66.7473 9.98657H62.0556Z" fill="white"/>
<path d="M84.814 7.80425C85.5193 7.48226 86.0866 6.99674 86.5159 6.35789C86.9452 5.71393 87.1548 5.01885 87.1548 4.26756C87.1548 3.15851 86.7612 2.2079 85.9742 1.42084C85.1871 0.633772 84.2314 0.240234 83.1121 0.240234H78.2568V2.47878H83.1121C83.5619 2.47878 83.9503 2.65254 84.2723 3.00008C84.5942 3.34761 84.7578 3.77181 84.7578 4.26756C84.7578 4.76331 84.5942 5.19262 84.2723 5.54016C83.9503 5.8928 83.5619 6.06657 83.1121 6.06657H78.2568V12.3784H80.6487V8.162H82.4682L84.9162 12.3784H87.5023L84.814 7.80425Z" fill="white"/>
<path d="M14.4024 20.7859V27.2255H13.554V22.1914L11.4483 25.6974H11.3359L9.23021 22.2016V27.2255H8.37671V20.7859H9.34265L11.3921 24.1897L13.4364 20.7859H14.4024Z" fill="white"/>
<path d="M28.958 26.3719C28.3089 27.021 27.5218 27.3481 26.5917 27.3481C25.6615 27.3481 24.8693 27.021 24.2253 26.3719C23.5814 25.7228 23.2594 24.9357 23.2594 24.0056C23.2594 23.0754 23.5814 22.2832 24.2253 21.6393C24.8693 20.9902 25.6564 20.6682 26.5917 20.6682C27.5269 20.6682 28.314 20.9902 28.958 21.6393C29.6019 22.2883 29.929 23.0754 29.929 24.0056C29.929 24.9306 29.607 25.7228 28.958 26.3719ZM24.8182 25.7893C25.2935 26.2697 25.8813 26.5099 26.5917 26.5099C27.2969 26.5099 27.8847 26.2697 28.3651 25.7893C28.8455 25.3088 29.0755 24.716 29.0755 24.0107C29.0755 23.3003 28.8353 22.7023 28.3651 22.2219C27.8898 21.7415 27.3021 21.5013 26.5917 21.5013C25.8864 21.5013 25.2986 21.7415 24.8182 22.2219C24.3429 22.7023 24.1027 23.3003 24.1027 24.0107C24.1078 24.7109 24.3429 25.3037 24.8182 25.7893Z" fill="white"/>
<path d="M39.6344 26.418H42.4147V27.2255H38.7809V20.7859H39.6344V26.418Z" fill="white"/>
<path d="M53.6023 20.7859C54.4814 20.7859 55.2071 21.0977 55.7897 21.7212C56.3724 22.3447 56.6586 23.1062 56.6586 24.0057C56.6586 24.9052 56.3673 25.6718 55.7897 26.2902C55.2122 26.9138 54.4814 27.2255 53.6023 27.2255H51.0929V20.7859H53.6023ZM53.6023 26.418C54.2565 26.418 54.7931 26.188 55.2122 25.7281C55.6313 25.2681 55.8357 24.6957 55.8357 24.0057C55.8357 23.3209 55.6262 22.7433 55.2122 22.2834C54.7982 21.8234 54.2565 21.5934 53.6023 21.5934H51.9464V26.4129L53.6023 26.418Z" fill="white"/>
<path d="M65.5105 20.7859H66.364V27.2255H65.5105V20.7859Z" fill="white"/>
<path d="M79.5704 20.7859H80.4239V27.2255H79.7339L76.4221 22.4162V27.2255H75.5686V20.7859H76.2586L79.5704 25.5901V20.7859Z" fill="white"/>
<path d="M95.833 24.0363V24.4247C95.833 25.2629 95.5468 25.963 94.9692 26.515C94.3917 27.067 93.6302 27.3481 92.6796 27.3481C91.6983 27.3481 90.8857 27.0261 90.2468 26.377C89.608 25.7279 89.286 24.9409 89.286 24.0107C89.286 23.0805 89.608 22.2884 90.2468 21.6444C90.8857 21.0004 91.6932 20.6733 92.6643 20.6733C93.2571 20.6733 93.804 20.8164 94.2997 21.1026C94.7955 21.3889 95.1788 21.7619 95.4497 22.2321L94.7137 22.6666C94.5297 22.319 94.2537 22.0379 93.8806 21.8233C93.5075 21.6086 93.0987 21.5064 92.654 21.5064C91.9181 21.5064 91.315 21.7466 90.8397 22.227C90.3644 22.7074 90.1293 23.3054 90.1293 24.0158C90.1293 24.7262 90.3644 25.3242 90.8397 25.7995C91.315 26.2748 91.9283 26.515 92.6847 26.515C93.3287 26.515 93.85 26.3566 94.2486 26.0397C94.6473 25.7228 94.8875 25.314 94.9744 24.8131H92.608V24.0414L95.833 24.0363Z" fill="white"/>
</svg>
