<svg width="80" height="78" viewBox="0 0 80 78" fill="none" xmlns="http://www.w3.org/2000/svg">
<path d="M42 11.0113H39.4776V2.87383L37 3.60741V1.67136L41.7687 0H42V11.0113Z" fill="black"/>
<path d="M80 27.9486L79.98 27.9687L77.06 31.6224L76.11 32.8136L50 65.4871L41.4 76.2482L40 78L30 65.4871L3.89 32.8136L2.94 31.6224L0.02 27.9687L0 27.9486H0.04C0.45 27.6183 0.87 27.288 1.3 26.9676C1.54 26.7875 1.78 26.5973 2.03 26.4171C12.39 18.7592 25.17 14.1545 39 13.9443L40 13.9343L41 13.9443C54.83 14.1545 67.61 18.7592 77.97 26.4171C78.22 26.5973 78.46 26.7875 78.7 26.9676C79.13 27.288 79.55 27.6183 79.96 27.9486H80Z" fill="#828282"/>
<path d="M40 61.9836C37.64 61.9836 35.4 62.4941 33.38 63.415L11.75 28.7695L30.9 64.8265C30.59 65.0367 30.29 65.2569 30 65.4872L33.72 70.1419L40 78L41.4 76.2482L50 65.4872C47.26 63.2949 43.78 61.9836 40 61.9836Z" fill="black"/>
<path d="M77.9471 19.1694H80V20.8074H77.9471V23.0236H76.0529V20.8074H74V19.1694H76.0529V17.0175H77.9471V19.1694Z" fill="black"/>
<path d="M6 21.0216H0V19.0195H6V21.0216Z" fill="black"/>
<path d="M41.5 13.9343H38.5V20.9415H41.5V13.9343Z" fill="black"/>
<path d="M80 27.9486L79.98 27.9686L77.06 31.6224L76.11 32.8136L74.16 31.282L77.97 26.4171C78.22 26.5972 78.46 26.7874 78.7 26.9676C79.13 27.2879 79.55 27.6183 79.96 27.9486H80Z" fill="black"/>
<path d="M5.84 31.282L3.89 32.8136L2.94 31.6224L0.02 27.9686L0 27.9486H0.04C0.45 27.6183 0.87 27.2879 1.3 26.9676C1.54 26.7874 1.78 26.5972 2.03 26.4171L5.84 31.282Z" fill="black"/>
</svg>
