<svg width="80" height="80" viewBox="0 0 80 80" fill="none" xmlns="http://www.w3.org/2000/svg">
<path d="M70.5 9H30.5V55H70.5V9Z" fill="#828282"/>
<path d="M49.5 77H9.5L30.5 55H70.5L49.5 77Z" fill="#828282"/>
<path d="M24.5 2.26001V55H77.24" stroke="black" stroke-width="1.5" stroke-miterlimit="10"/>
<path d="M21.96 6.99L22.71 7.26L24.5 2.34L26.29 7.26L27.04 6.99L24.5 0L21.96 6.99Z" fill="black"/>
<path d="M72.51 57.54L72.24 56.79L77.16 55L72.24 53.21L72.51 52.46L79.5 55L72.51 57.54Z" fill="black"/>
<path d="M25 54.5L1.60001 77.9" stroke="black" stroke-width="1.5" stroke-miterlimit="10"/>
<path d="M3.14 72.76L3.87 73.1L1.65 77.85L6.4 75.63L6.74 76.36L0 79.5L3.14 72.76Z" fill="black"/>
<path d="M76.4902 44.9297L77.549 43H79.902L78 46.4054L80 50H77.6471L76.5098 47.9378L75.3922 50H73L75.0196 46.4054L73.1177 43H75.4902L76.4902 44.9297Z" fill="black"/>
<path d="M3.47139 65.6L4.65395 62H7L4.11989 69.4769L4.00545 69.7538C3.6049 70.5846 2.88011 71 1.85014 71C1.56403 71 1.25886 70.9654 0.934605 70.8788V69.4596H1.22071C1.52589 69.4596 1.77384 69.425 1.92643 69.3385C2.09809 69.2519 2.21253 69.1135 2.28883 68.9058L2.46049 68.4731L0 62H2.34605L3.47139 65.6Z" fill="black"/>
<path d="M16.7707 5.31622H20V7H14V5.78919L17.1338 1.68378H14.1338V0H19.9236V1.17297L16.7707 5.31622Z" fill="black"/>
</svg>
