<svg width="81" height="83" viewBox="0 0 81 83" fill="none" xmlns="http://www.w3.org/2000/svg">
<path d="M55 54L47 81H0L48 48L55 54Z" fill="#828282"/>
<path d="M80 35L54.72 54.57L48.08 47.92L80 1" stroke="black" stroke-width="2" stroke-miterlimit="10"/>
<path d="M80 81H48.74H3.69H0" stroke="black" stroke-width="3" stroke-miterlimit="10"/>
<path d="M49 61C49.5523 61 50 60.5523 50 60C50 59.4477 49.5523 59 49 59C48.4477 59 48 59.4477 48 60C48 60.5523 48.4477 61 49 61Z" fill="black"/>
<path d="M47 68C47.5523 68 48 67.5523 48 67C48 66.4477 47.5523 66 47 66C46.4477 66 46 66.4477 46 67C46 67.5523 46.4477 68 47 68Z" fill="black"/>
<path d="M36 76C36.5523 76 37 75.5523 37 75C37 74.4477 36.5523 74 36 74C35.4477 74 35 74.4477 35 75C35 75.5523 35.4477 76 36 76Z" fill="black"/>
<path d="M43 72C43.5523 72 44 71.5523 44 71C44 70.4477 43.5523 70 43 70C42.4477 70 42 70.4477 42 71C42 71.5523 42.4477 72 43 72Z" fill="black"/>
<path d="M40 60C40.5523 60 41 59.5523 41 59C41 58.4477 40.5523 58 40 58C39.4477 58 39 58.4477 39 59C39 59.5523 39.4477 60 40 60Z" fill="black"/>
<path d="M26 71C26.5523 71 27 70.5523 27 70C27 69.4477 26.5523 69 26 69C25.4477 69 25 69.4477 25 70C25 70.5523 25.4477 71 26 71Z" fill="black"/>
<path d="M21 78C21.5523 78 22 77.5523 22 77C22 76.4477 21.5523 76 21 76C20.4477 76 20 76.4477 20 77C20 77.5523 20.4477 78 21 78Z" fill="black"/>
<path d="M44.5 60C44.7761 60 45 59.7761 45 59.5C45 59.2239 44.7761 59 44.5 59C44.2239 59 44 59.2239 44 59.5C44 59.7761 44.2239 60 44.5 60Z" fill="black"/>
<path d="M37.5 69C37.7761 69 38 68.7761 38 68.5C38 68.2239 37.7761 68 37.5 68C37.2239 68 37 68.2239 37 68.5C37 68.7761 37.2239 69 37.5 69Z" fill="black"/>
<path d="M20.5 71C20.7761 71 21 70.7761 21 70.5C21 70.2239 20.7761 70 20.5 70C20.2239 70 20 70.2239 20 70.5C20 70.7761 20.2239 71 20.5 71Z" fill="black"/>
<path d="M31 70C31.5523 70 32 69.5523 32 69C32 68.4477 31.5523 68 31 68C30.4477 68 30 68.4477 30 69C30 69.5523 30.4477 70 31 70Z" fill="black"/>
<path d="M50.5 56C50.7761 56 51 55.7761 51 55.5C51 55.2239 50.7761 55 50.5 55C50.2239 55 50 55.2239 50 55.5C50 55.7761 50.2239 56 50.5 56Z" fill="black"/>
<path d="M44.5 77C45.3284 77 46 76.3284 46 75.5C46 74.6716 45.3284 74 44.5 74C43.6716 74 43 74.6716 43 75.5C43 76.3284 43.6716 77 44.5 77Z" fill="black"/>
<path d="M42.5 66C43.3284 66 44 65.3284 44 64.5C44 63.6716 43.3284 63 42.5 63C41.6716 63 41 63.6716 41 64.5C41 65.3284 41.6716 66 42.5 66Z" fill="black"/>
<path d="M13.5 77C14.3284 77 15 76.3284 15 75.5C15 74.6716 14.3284 74 13.5 74C12.6716 74 12 74.6716 12 75.5C12 76.3284 12.6716 77 13.5 77Z" fill="black"/>
<path d="M32.5 64C33.3284 64 34 63.3284 34 62.5C34 61.6716 33.3284 61 32.5 61C31.6716 61 31 61.6716 31 62.5C31 63.3284 31.6716 64 32.5 64Z" fill="black"/>
<path d="M28.5 78C29.3284 78 30 77.3284 30 76.5C30 75.6716 29.3284 75 28.5 75C27.6716 75 27 75.6716 27 76.5C27 77.3284 27.6716 78 28.5 78Z" fill="black"/>
<path d="M45.5 55C46.3284 55 47 54.3284 47 53.5C47 52.6716 46.3284 52 45.5 52C44.6716 52 44 52.6716 44 53.5C44 54.3284 44.6716 55 45.5 55Z" fill="black"/>
</svg>
