<svg width="50" height="50" viewBox="0 0 50 50" fill="none" xmlns="http://www.w3.org/2000/svg">
<path fill-rule="evenodd" clip-rule="evenodd" d="M0 0V50H50V0H0ZM37.4833 27.6623C38.6311 28.7821 39.8448 29.8364 40.8751 31.0743C41.3302 31.6213 41.7608 32.1856 42.0889 32.8195C42.5547 33.7276 42.1325 34.7225 41.3213 34.7774L36.2801 34.7752C34.9789 34.8821 33.942 34.3575 33.0675 33.4673C32.3721 32.7585 31.7221 31.9998 31.0508 31.2669C30.7776 30.9652 30.4887 30.683 30.1454 30.4579C29.4567 30.0116 28.8593 30.1471 28.4657 30.8644C28.0654 31.5951 27.9713 32.4063 27.9344 33.2199C27.8796 34.4075 27.5212 34.7181 26.3292 34.7753C23.7789 34.8934 21.3602 34.5059 19.114 33.2221C17.1302 32.0895 15.5951 30.4881 14.2586 28.6775C11.654 25.1474 9.65912 21.2719 7.86802 17.2848C7.46319 16.3863 7.7589 15.9047 8.74703 15.8874C10.3943 15.8548 12.0409 15.8588 13.6858 15.8852C14.3549 15.8964 14.7989 16.2788 15.0548 16.9109C15.9451 19.0984 17.034 21.1801 18.4008 23.1116C18.7664 23.6256 19.1381 24.1374 19.6649 24.5002C20.2489 24.9027 20.6952 24.7712 20.9706 24.1173C21.1458 23.7019 21.2225 23.2601 21.2595 22.816C21.3904 21.2959 21.4062 19.7742 21.1805 18.2586C21.0405 17.3112 20.5048 16.6987 19.5602 16.5196C19.0787 16.4277 19.1509 16.2508 19.3827 15.9747C19.7898 15.5005 20.1727 15.2048 20.9314 15.2048H26.6289C27.5275 15.3801 27.729 15.7848 27.8511 16.688L27.8556 23.0198C27.8449 23.3697 28.0309 24.406 28.6585 24.6356C29.1612 24.8019 29.496 24.397 29.7978 24.0779C31.1623 22.63 32.1359 20.9179 33.0059 19.1464C33.3911 18.3676 33.7237 17.5586 34.0474 16.7489C34.2858 16.1498 34.6576 15.8547 35.3334 15.8654L40.8187 15.8721C40.9804 15.8721 41.1468 15.8721 41.3064 15.8984C42.229 16.0579 42.4827 16.456 42.196 17.3591C41.7481 18.774 40.8708 19.9553 40.0158 21.1384C39.0992 22.4048 38.124 23.627 37.2142 24.9002C36.3832 26.066 36.4487 26.6522 37.4833 27.6623Z" fill="white"/>
</svg>
