<?xml version="1.0" encoding="utf-8"?><svg xmlns="http://www.w3.org/2000/svg" xmlns:xlink="http://www.w3.org/1999/xlink"><symbol viewBox="0 0 9 16" id="icons--arrow_left" xmlns="http://www.w3.org/2000/svg"><path d="M.293 8.754l6.41 6.447a1.04 1.04 0 001.477 0 1.055 1.055 0 000-1.485L2.508 8.012 8.18 2.308a1.055 1.055 0 000-1.485 1.04 1.04 0 00-1.476 0L.293 7.27a1.052 1.052 0 000 1.485z"/><path d="M.293 8.754l6.41 6.447a1.04 1.04 0 001.477 0 1.055 1.055 0 000-1.485L2.508 8.012 8.18 2.308a1.055 1.055 0 000-1.485 1.04 1.04 0 00-1.476 0L.293 7.27a1.052 1.052 0 000 1.485z"/></symbol><symbol viewBox="0 0 30 30" id="icons--arrow_left_all" xmlns="http://www.w3.org/2000/svg"><path d="M3 0h24a3 3 0 013 3v24a3 3 0 01-3 3H3a3 3 0 01-3-3V3a3 3 0 013-3z" opacity=".3"/><path d="M9.293 15.754l6.41 6.447a1.04 1.04 0 001.477 0 1.055 1.055 0 000-1.485l-5.672-5.704 5.672-5.704a1.055 1.055 0 000-1.485 1.04 1.04 0 00-1.476 0L9.293 14.27a1.052 1.052 0 000 1.485z"/><path d="M9.293 15.754l6.41 6.447a1.04 1.04 0 001.477 0 1.055 1.055 0 000-1.485l-5.672-5.704 5.672-5.704a1.055 1.055 0 000-1.485 1.04 1.04 0 00-1.476 0L9.293 14.27a1.052 1.052 0 000 1.485z"/></symbol><symbol viewBox="0 0 22 16" id="icons--camera" xmlns="http://www.w3.org/2000/svg"><path d="M16.999 8.905a3.264 3.264 0 01-3.258 3.263 3.265 3.265 0 01-3.26-3.263c0-1.8 1.463-3.262 3.26-3.262a3.263 3.263 0 013.258 3.262zm4.99-4.33v8.506a2.914 2.914 0 01-2.908 2.913H2.919A2.915 2.915 0 01.01 13.08V4.576a2.914 2.914 0 012.653-2.901c.13-.556.492-.935.924-.935h2.097c.43 0 .789.374.922.922H9.57l1.437-1.66h4.911l1.77 1.66h1.393a2.914 2.914 0 012.908 2.914zM2.641 6.514a.55.55 0 10-1.1 0v5.807a.55.55 0 001.1 0zM5.95 3.471a.58.58 0 00-.58-.58H3.878a.58.58 0 00-.58.58v.342c0 .32.26.58.58.58h1.49c.32 0 .581-.26.581-.58zm12.44 5.434a4.657 4.657 0 00-4.648-4.655 4.658 4.658 0 00-4.65 4.655 4.658 4.658 0 004.65 4.655 4.657 4.657 0 004.648-4.655z"/><path d="M16.999 8.905a3.264 3.264 0 01-3.258 3.263 3.265 3.265 0 01-3.26-3.263c0-1.8 1.463-3.262 3.26-3.262a3.263 3.263 0 013.258 3.262zm4.99-4.33v8.506a2.914 2.914 0 01-2.908 2.913H2.919A2.915 2.915 0 01.01 13.08V4.576a2.914 2.914 0 012.653-2.901c.13-.556.492-.935.924-.935h2.097c.43 0 .789.374.922.922H9.57l1.437-1.66h4.911l1.77 1.66h1.393a2.914 2.914 0 012.908 2.914zM2.641 6.514a.55.55 0 10-1.1 0v5.807a.55.55 0 001.1 0zM5.95 3.471a.58.58 0 00-.58-.58H3.878a.58.58 0 00-.58.58v.342c0 .32.26.58.58.58h1.49c.32 0 .581-.26.581-.58zm12.44 5.434a4.657 4.657 0 00-4.648-4.655 4.658 4.658 0 00-4.65 4.655 4.658 4.658 0 004.65 4.655 4.657 4.657 0 004.648-4.655z"/></symbol><symbol viewBox="0 0 41 40" id="icons--gear" xmlns="http://www.w3.org/2000/svg"><path d="M40.599 17.755v4.23c0 .543 0 .747-5.373 2.839l-.18.07-.755 1.798.09.19c2.409 5.088 2.249 5.246 1.865 5.63l-3.056 3a.815.815 0 01-.536.208c-.461 0-2.238-.652-5.283-1.945l-.177-.072-1.85.751-.073.192c-1.965 5.274-2.189 5.274-2.73 5.274h-4.305c-.527 0-.745 0-2.863-5.26l-.072-.186-1.86-.755-.18.085C8.758 35.85 8.24 35.85 8.07 35.85a.836.836 0 01-.537-.211L4.489 32.65c-.389-.389-.534-.529 1.751-5.732l.081-.184-.756-1.8-.192-.068c-5.375-1.934-5.375-2.16-5.375-2.703V17.93c0-.542 0-.744 5.364-2.825l.185-.072.756-1.805-.088-.19C3.81 7.947 3.97 7.787 4.357 7.404L7.408 4.41a.817.817 0 01.533-.209c.464 0 2.243.654 5.29 1.944l.177.074 1.847-.756.074-.192c1.963-5.27 2.202-5.27 2.727-5.27h4.305c.526 0 .743 0 2.86 5.26l.075.186 1.856.75.18-.081c4.503-2.046 5.022-2.046 5.193-2.046.189 0 .408.087.533.211l3.048 2.985c.379.377.537.532-1.75 5.733l-.081.185.754 1.807.194.07c5.376 1.926 5.376 2.15 5.376 2.694zM27.273 19.96c0-3.783-3.13-6.86-6.975-6.86-3.846 0-6.976 3.077-6.976 6.86 0 3.785 3.13 6.866 6.976 6.866 3.845 0 6.975-3.082 6.975-6.866z"/><path d="M40.599 17.755v4.23c0 .543 0 .747-5.373 2.839l-.18.07-.755 1.798.09.19c2.409 5.088 2.249 5.246 1.865 5.63l-3.056 3a.815.815 0 01-.536.208c-.461 0-2.238-.652-5.283-1.945l-.177-.072-1.85.751-.073.192c-1.965 5.274-2.189 5.274-2.73 5.274h-4.305c-.527 0-.745 0-2.863-5.26l-.072-.186-1.86-.755-.18.085C8.758 35.85 8.24 35.85 8.07 35.85a.836.836 0 01-.537-.211L4.489 32.65c-.389-.389-.534-.529 1.751-5.732l.081-.184-.756-1.8-.192-.068c-5.375-1.934-5.375-2.16-5.375-2.703V17.93c0-.542 0-.744 5.364-2.825l.185-.072.756-1.805-.088-.19C3.81 7.947 3.97 7.787 4.357 7.404L7.408 4.41a.817.817 0 01.533-.209c.464 0 2.243.654 5.29 1.944l.177.074 1.847-.756.074-.192c1.963-5.27 2.202-5.27 2.727-5.27h4.305c.526 0 .743 0 2.86 5.26l.075.186 1.856.75.18-.081c4.503-2.046 5.022-2.046 5.193-2.046.189 0 .408.087.533.211l3.048 2.985c.379.377.537.532-1.75 5.733l-.081.185.754 1.807.194.07c5.376 1.926 5.376 2.15 5.376 2.694zM27.273 19.96c0-3.783-3.13-6.86-6.975-6.86-3.846 0-6.976 3.077-6.976 6.86 0 3.785 3.13 6.866 6.976 6.866 3.845 0 6.975-3.082 6.975-6.866z"/></symbol><symbol viewBox="0 0 29 40" id="icons--leaf" xmlns="http://www.w3.org/2000/svg"><path d="M24.214.398s-3.253 3.129-6.77 4.39C-8.602 14.134 2.383 32.342 2.741 32.402c0 0 1.46-2.522 3.434-3.961 12.52-9.128 15.064-19.636 15.064-19.636s-2.81 12.644-13.948 20.511c-2.46 1.737-4.125 6.013-4.83 10.286 0 0 1.743-.698 2.493-.887.293-1.893.904-3.705 1.938-5.324 15.567 1.838 20.665-10.602 21.331-14.94C29.794 8.203 24.213.397 24.213.397z"/><path d="M24.214.398s-3.253 3.129-6.77 4.39C-8.602 14.134 2.383 32.342 2.741 32.402c0 0 1.46-2.522 3.434-3.961 12.52-9.128 15.064-19.636 15.064-19.636s-2.81 12.644-13.948 20.511c-2.46 1.737-4.125 6.013-4.83 10.286 0 0 1.743-.698 2.493-.887.293-1.893.904-3.705 1.938-5.324 15.567 1.838 20.665-10.602 21.331-14.94C29.794 8.203 24.213.397 24.213.397z"/></symbol><symbol viewBox="0 0 42 40" id="icons--medal" xmlns="http://www.w3.org/2000/svg"><path d="M41.549 20.03c0 2.124-2.372 3.849-2.997 5.765-.645 1.985.235 4.766-.97 6.418-1.219 1.669-4.15 1.687-5.823 2.902-1.657 1.202-2.574 3.985-4.564 4.63-1.92.622-4.292-1.072-6.421-1.072-2.13 0-4.5 1.694-6.421 1.072-1.99-.645-2.907-3.428-4.564-4.63-1.674-1.216-4.604-1.233-5.822-2.902-1.207-1.653-.327-4.434-.972-6.42C2.371 23.878 0 22.155 0 20.032c0-2.124 2.371-3.848 2.995-5.762.646-1.987-.234-4.767.972-6.42 1.217-1.67 4.147-1.686 5.82-2.902 1.658-1.204 2.574-3.986 4.565-4.63 1.92-.622 4.293 1.07 6.421 1.07 2.13 0 4.501-1.692 6.421-1.07 1.99.644 2.907 3.426 4.564 4.629C33.43 6.163 36.363 6.18 37.58 7.85c1.206 1.652.326 4.432.97 6.419.625 1.915 2.996 3.638 2.998 5.762zm-6.199 0c0-8.017-6.539-14.54-14.577-14.54S6.196 12.013 6.196 20.03c0 8.02 6.539 14.542 14.577 14.542S35.35 28.05 35.35 20.03zm-2.38 0c0 6.71-5.471 12.168-12.197 12.168-6.726 0-12.197-5.458-12.197-12.167S14.047 7.865 20.773 7.865c6.726 0 12.197 5.457 12.197 12.166zm-3.844-2.22a.737.737 0 00-.652-.506l-5.119-.33-1.898-4.754a.736.736 0 00-1.367 0l-1.897 4.754-5.119.33a.736.736 0 00-.652.506.73.73 0 00.23.791l3.946 3.27-1.267 4.958a.732.732 0 00.28.775.74.74 0 00.826.027l4.336-2.734 4.337 2.734a.735.735 0 101.106-.802l-1.267-4.958 3.947-3.27a.736.736 0 00.23-.79z"/><path d="M41.549 20.03c0 2.124-2.372 3.849-2.997 5.765-.645 1.985.235 4.766-.97 6.418-1.219 1.669-4.15 1.687-5.823 2.902-1.657 1.202-2.574 3.985-4.564 4.63-1.92.622-4.292-1.072-6.421-1.072-2.13 0-4.5 1.694-6.421 1.072-1.99-.645-2.907-3.428-4.564-4.63-1.674-1.216-4.604-1.233-5.822-2.902-1.207-1.653-.327-4.434-.972-6.42C2.371 23.878 0 22.155 0 20.032c0-2.124 2.371-3.848 2.995-5.762.646-1.987-.234-4.767.972-6.42 1.217-1.67 4.147-1.686 5.82-2.902 1.658-1.204 2.574-3.986 4.565-4.63 1.92-.622 4.293 1.07 6.421 1.07 2.13 0 4.501-1.692 6.421-1.07 1.99.644 2.907 3.426 4.564 4.629C33.43 6.163 36.363 6.18 37.58 7.85c1.206 1.652.326 4.432.97 6.419.625 1.915 2.996 3.638 2.998 5.762zm-6.199 0c0-8.017-6.539-14.54-14.577-14.54S6.196 12.013 6.196 20.03c0 8.02 6.539 14.542 14.577 14.542S35.35 28.05 35.35 20.03zm-2.38 0c0 6.71-5.471 12.168-12.197 12.168-6.726 0-12.197-5.458-12.197-12.167S14.047 7.865 20.773 7.865c6.726 0 12.197 5.457 12.197 12.166zm-3.844-2.22a.737.737 0 00-.652-.506l-5.119-.33-1.898-4.754a.736.736 0 00-1.367 0l-1.897 4.754-5.119.33a.736.736 0 00-.652.506.73.73 0 00.23.791l3.946 3.27-1.267 4.958a.732.732 0 00.28.775.74.74 0 00.826.027l4.336-2.734 4.337 2.734a.735.735 0 101.106-.802l-1.267-4.958 3.947-3.27a.736.736 0 00.23-.79z"/></symbol><symbol viewBox="0 0 25 40" id="icons--mobile" xmlns="http://www.w3.org/2000/svg"><path d="M25 3.1v33.687c0 1.77-1.462 3.207-3.26 3.207H3.269c-1.799 0-3.26-1.438-3.26-3.207V3.1c0-1.77 1.461-3.209 3.26-3.209h18.47c1.8 0 3.26 1.439 3.26 3.209zM9.516 2.845c0 .438.358.791.804.791h4.367a.796.796 0 00.804-.79v-.023a.796.796 0 00-.804-.791H10.32a.796.796 0 00-.804.791zm4.753 34.21c0-.957-.793-1.738-1.766-1.738-.972 0-1.766.781-1.766 1.738s.794 1.737 1.766 1.737c.973 0 1.766-.78 1.766-1.737zM22.282 6.31a.54.54 0 00-.543-.535H3.269a.54.54 0 00-.543.535v27.269a.54.54 0 00.543.534h18.47a.54.54 0 00.544-.534zM20.11 18.066v.01c0 .294-.24.53-.538.53H5.437a.533.533 0 01-.538-.53v-.01c0-.292.24-.53.538-.53h14.135c.298 0 .538.238.538.53zm0-8.55v1.605a.539.539 0 01-.543.534h-1.63a.539.539 0 01-.543-.534V9.517a.54.54 0 01.544-.535h1.63a.54.54 0 01.542.535zm-7.062 1.605V9.517a.54.54 0 01.543-.534h1.63c.3 0 .542.24.542.534v1.604a.539.539 0 01-.542.535h-1.63c-.3 0-.544-.24-.543-.535zm7.062 10.154v.01c0 .293-.24.53-.538.53H5.437a.533.533 0 01-.538-.53v-.01c0-.293.24-.53.538-.53h14.135c.298 0 .538.237.538.53zM4.899 14.869v-.01c0-.293.24-.53.538-.53h9.246c.297 0 .538.237.538.53v.01c0 .293-.241.53-.538.53H5.437a.534.534 0 01-.538-.53zm15.21 9.614v.01c0 .293-.24.53-.537.53H5.437a.533.533 0 01-.538-.53v-.01c0-.293.24-.53.538-.53h14.135c.298 0 .538.237.538.53zM4.9 11.121V9.517c0-.295.243-.534.543-.534h1.63a.54.54 0 01.543.534v1.604a.54.54 0 01-.543.535h-1.63a.54.54 0 01-.543-.535zm4.346 0V9.517a.54.54 0 01.543-.534h1.63c.3 0 .543.24.543.534v1.604a.539.539 0 01-.543.535h-1.63a.54.54 0 01-.543-.535zM20.11 30.899v.011c0 .292-.24.53-.538.53H5.437a.533.533 0 01-.538-.53v-.01c0-.294.24-.53.538-.53h14.135c.298 0 .538.236.538.53zm0-3.208v.01c0 .293-.24.53-.538.53H5.437a.533.533 0 01-.538-.53v-.01c0-.292.24-.53.538-.53h14.135c.298 0 .538.238.538.53z"/><path d="M25 3.1v33.687c0 1.77-1.462 3.207-3.26 3.207H3.269c-1.799 0-3.26-1.438-3.26-3.207V3.1c0-1.77 1.461-3.209 3.26-3.209h18.47c1.8 0 3.26 1.439 3.26 3.209zM9.516 2.845c0 .438.358.791.804.791h4.367a.796.796 0 00.804-.79v-.023a.796.796 0 00-.804-.791H10.32a.796.796 0 00-.804.791zm4.753 34.21c0-.957-.793-1.738-1.766-1.738-.972 0-1.766.781-1.766 1.738s.794 1.737 1.766 1.737c.973 0 1.766-.78 1.766-1.737zM22.282 6.31a.54.54 0 00-.543-.535H3.269a.54.54 0 00-.543.535v27.269a.54.54 0 00.543.534h18.47a.54.54 0 00.544-.534zM20.11 18.066v.01c0 .294-.24.53-.538.53H5.437a.533.533 0 01-.538-.53v-.01c0-.292.24-.53.538-.53h14.135c.298 0 .538.238.538.53zm0-8.55v1.605a.539.539 0 01-.543.534h-1.63a.539.539 0 01-.543-.534V9.517a.54.54 0 01.544-.535h1.63a.54.54 0 01.542.535zm-7.062 1.605V9.517a.54.54 0 01.543-.534h1.63c.3 0 .542.24.542.534v1.604a.539.539 0 01-.542.535h-1.63c-.3 0-.544-.24-.543-.535zm7.062 10.154v.01c0 .293-.24.53-.538.53H5.437a.533.533 0 01-.538-.53v-.01c0-.293.24-.53.538-.53h14.135c.298 0 .538.237.538.53zM4.899 14.869v-.01c0-.293.24-.53.538-.53h9.246c.297 0 .538.237.538.53v.01c0 .293-.241.53-.538.53H5.437a.534.534 0 01-.538-.53zm15.21 9.614v.01c0 .293-.24.53-.537.53H5.437a.533.533 0 01-.538-.53v-.01c0-.293.24-.53.538-.53h14.135c.298 0 .538.237.538.53zM4.9 11.121V9.517c0-.295.243-.534.543-.534h1.63a.54.54 0 01.543.534v1.604a.54.54 0 01-.543.535h-1.63a.54.54 0 01-.543-.535zm4.346 0V9.517a.54.54 0 01.543-.534h1.63c.3 0 .543.24.543.534v1.604a.539.539 0 01-.543.535h-1.63a.54.54 0 01-.543-.535zM20.11 30.899v.011c0 .292-.24.53-.538.53H5.437a.533.533 0 01-.538-.53v-.01c0-.294.24-.53.538-.53h14.135c.298 0 .538.236.538.53zm0-3.208v.01c0 .293-.24.53-.538.53H5.437a.533.533 0 01-.538-.53v-.01c0-.292.24-.53.538-.53h14.135c.298 0 .538.238.538.53z"/></symbol><symbol viewBox="0 0 21 16" id="icons--picture" xmlns="http://www.w3.org/2000/svg"><path d="M18.525 11.088l-13.183-.003c.083-1.8 1.042-5.299 2.437-6.588 1.25-1.145 2.311-.143 3.145 1.023.77 1.085 1.44 2.043 2.006 2.646.93.914 1.725-.471 2.7-.927 1.422-.665 2.593 2.792 2.895 3.85zm-2.956-9.065c.895 0 1.62.713 1.62 1.592 0 .88-.725 1.592-1.62 1.592-.895 0-1.621-.713-1.621-1.592 0-.88.726-1.592 1.62-1.592zM20.992.455v12.202a.478.478 0 01-.482.473h-2.406v2.393a.478.478 0 01-.482.474H.469a.478.478 0 01-.482-.474V3.321c0-.261.216-.473.482-.473h2.407V.455c0-.262.215-.474.481-.474H20.51c.266 0 .482.212.482.474zM16.81 13.13h-1.438c.117.332.207.623.265.825L2.454 13.95c.03-.656.18-1.539.422-2.457V4.118H1.28v10.608h15.53zm2.888-11.878H4.168V11.86h15.53z"/><path d="M18.525 11.088l-13.183-.003c.083-1.8 1.042-5.299 2.437-6.588 1.25-1.145 2.311-.143 3.145 1.023.77 1.085 1.44 2.043 2.006 2.646.93.914 1.725-.471 2.7-.927 1.422-.665 2.593 2.792 2.895 3.85zm-2.956-9.065c.895 0 1.62.713 1.62 1.592 0 .88-.725 1.592-1.62 1.592-.895 0-1.621-.713-1.621-1.592 0-.88.726-1.592 1.62-1.592zM20.992.455v12.202a.478.478 0 01-.482.473h-2.406v2.393a.478.478 0 01-.482.474H.469a.478.478 0 01-.482-.474V3.321c0-.261.216-.473.482-.473h2.407V.455c0-.262.215-.474.481-.474H20.51c.266 0 .482.212.482.474zM16.81 13.13h-1.438c.117.332.207.623.265.825L2.454 13.95c.03-.656.18-1.539.422-2.457V4.118H1.28v10.608h15.53zm2.888-11.878H4.168V11.86h15.53z"/></symbol><symbol viewBox="0 0 15 15" id="icons--search" xmlns="http://www.w3.org/2000/svg"><path d="M14.278 13.235a1 1 0 01-.31.733 1 1 0 01-.732.31.967.967 0 01-.734-.31l-2.794-2.786a5.577 5.577 0 01-3.25 1.01c-.778 0-1.52-.15-2.23-.452a5.733 5.733 0 01-1.832-1.222 5.734 5.734 0 01-1.223-1.833 5.636 5.636 0 01-.452-2.229c0-.777.151-1.52.452-2.228a5.733 5.733 0 011.223-1.833 5.74 5.74 0 011.833-1.223A5.644 5.644 0 016.457.72c.777 0 1.52.151 2.229.452a5.74 5.74 0 011.833 1.223c.513.513.92 1.124 1.222 1.833.301.709.452 1.451.452 2.228a5.578 5.578 0 01-1.01 3.25l2.794 2.795a.998.998 0 01.301.734zm-4.17-6.779c0-1.005-.358-1.864-1.072-2.578-.715-.715-1.574-1.072-2.579-1.072-1.005 0-1.864.357-2.578 1.072-.715.714-1.072 1.573-1.072 2.578s.357 1.864 1.072 2.579c.714.714 1.573 1.07 2.578 1.07s1.864-.356 2.579-1.07c.714-.715 1.071-1.574 1.071-2.579z"/><path d="M14.278 13.235a1 1 0 01-.31.733 1 1 0 01-.732.31.967.967 0 01-.734-.31l-2.794-2.786a5.577 5.577 0 01-3.25 1.01c-.778 0-1.52-.15-2.23-.452a5.733 5.733 0 01-1.832-1.222 5.734 5.734 0 01-1.223-1.833 5.636 5.636 0 01-.452-2.229c0-.777.151-1.52.452-2.228a5.733 5.733 0 011.223-1.833 5.74 5.74 0 011.833-1.223A5.644 5.644 0 016.457.72c.777 0 1.52.151 2.229.452a5.74 5.74 0 011.833 1.223c.513.513.92 1.124 1.222 1.833.301.709.452 1.451.452 2.228a5.578 5.578 0 01-1.01 3.25l2.794 2.795a.998.998 0 01.301.734zm-4.17-6.779c0-1.005-.358-1.864-1.072-2.578-.715-.715-1.574-1.072-2.579-1.072-1.005 0-1.864.357-2.578 1.072-.715.714-1.072 1.573-1.072 2.578s.357 1.864 1.072 2.579c.714.714 1.573 1.07 2.578 1.07s1.864-.356 2.579-1.07c.714-.715 1.071-1.574 1.071-2.579z"/></symbol><symbol viewBox="0 0 14 14" id="icons--share" xmlns="http://www.w3.org/2000/svg"><path d="M12.967 6.202l-2.57 2.57a3.633 3.633 0 01-5.14 0 3.597 3.597 0 01-.552-.733L5.9 6.844c.056-.056.127-.09.194-.128.082.282.226.55.448.771.709.71 1.862.708 2.57 0l2.569-2.569a1.819 1.819 0 000-2.57 1.82 1.82 0 00-2.57 0l-.913.915A4.557 4.557 0 005.88 3.01l1.947-1.947a3.635 3.635 0 015.14 5.14zM8.49 10.68l-1.948 1.947a3.635 3.635 0 01-5.14-5.14l2.57-2.569a3.633 3.633 0 015.14 0c.223.223.399.473.551.733L8.47 6.844c-.057.057-.126.09-.193.128a1.798 1.798 0 00-.45-.77 1.819 1.819 0 00-2.569 0l-2.57 2.57a1.82 1.82 0 000 2.57 1.82 1.82 0 002.57 0l.915-.914c.74.288 1.54.366 2.318.252z"/><path d="M12.967 6.202l-2.57 2.57a3.633 3.633 0 01-5.14 0 3.597 3.597 0 01-.552-.733L5.9 6.844c.056-.056.127-.09.194-.128.082.282.226.55.448.771.709.71 1.862.708 2.57 0l2.569-2.569a1.819 1.819 0 000-2.57 1.82 1.82 0 00-2.57 0l-.913.915A4.557 4.557 0 005.88 3.01l1.947-1.947a3.635 3.635 0 015.14 5.14zM8.49 10.68l-1.948 1.947a3.635 3.635 0 01-5.14-5.14l2.57-2.569a3.633 3.633 0 015.14 0c.223.223.399.473.551.733L8.47 6.844c-.057.057-.126.09-.193.128a1.798 1.798 0 00-.45-.77 1.819 1.819 0 00-2.569 0l-2.57 2.57a1.82 1.82 0 000 2.57 1.82 1.82 0 002.57 0l.915-.914c.74.288 1.54.366 2.318.252z"/></symbol><symbol viewBox="0 0 31 20" id="icons--tooltip" xmlns="http://www.w3.org/2000/svg"><path d="M3 0h25a3 3 0 013 3v11a3 3 0 01-3 3H17.969c-.834 0-1.62 3.03-2.47 3.03-.827 0-1.717-3.03-2.53-3.03H3a3 3 0 01-3-3V3a3 3 0 013-3z"/><path d="M3 0h25a3 3 0 013 3v11a3 3 0 01-3 3H17.969c-.834 0-1.62 3.03-2.47 3.03-.827 0-1.717-3.03-2.53-3.03H3a3 3 0 01-3-3V3a3 3 0 013-3z"/></symbol><symbol viewBox="0 0 18 20" id="icons--video" xmlns="http://www.w3.org/2000/svg"><path d="M-.003 18.726V1.273c0-.7.542-1.274 1.208-1.274h15.59c.664 0 1.207.574 1.207 1.274v17.453c0 .7-.543 1.274-1.207 1.274H1.205c-.666 0-1.208-.574-1.208-1.274zm15.06-15.939c0 .212.165.383.363.383h1.131c.2 0 .362-.171.362-.383v-1.23a.372.372 0 00-.362-.382H15.42a.373.373 0 00-.363.382zm0 3.131c0 .21.165.383.363.383h1.131c.2 0 .362-.172.362-.383v-1.23a.373.373 0 00-.362-.383H15.42a.374.374 0 00-.363.383zm0 3.133c0 .21.165.382.363.382h1.131c.2 0 .362-.173.362-.382V7.82c0-.21-.162-.383-.362-.383H15.42a.375.375 0 00-.363.383zm0 3.13c0 .212.165.383.363.383h1.131c.2 0 .362-.171.362-.383v-1.23c0-.212-.162-.384-.362-.384H15.42a.375.375 0 00-.363.383zm0 3.131c0 .21.165.381.363.381h1.131c.2 0 .362-.17.362-.38V14.08a.372.372 0 00-.362-.383H15.42a.374.374 0 00-.363.383zm0 3.132c0 .21.165.381.363.381h1.131c.2 0 .362-.172.362-.381V17.21a.372.372 0 00-.362-.382H15.42a.374.374 0 00-.363.382zM4.183 8.574c0 .21.163.383.363.383h8.908c.198 0 .362-.173.362-.383V2.481a.373.373 0 00-.362-.382H4.546c-.2 0-.363.17-.363.382zm0 8.936c0 .21.163.382.363.382h8.908a.374.374 0 00.362-.382v-5.633a.373.373 0 00-.362-.38H4.546c-.2 0-.363.17-.363.38zM1.086 2.787c0 .212.162.383.362.383H2.58a.373.373 0 00.361-.383v-1.23a.372.372 0 00-.361-.382H1.448c-.2 0-.362.17-.362.382zm0 3.131c0 .21.162.383.362.383H2.58c.199 0 .361-.172.361-.383v-1.23c0-.212-.162-.383-.361-.383H1.448c-.2 0-.362.171-.362.383zm0 3.133c0 .21.162.382.362.382H2.58c.199 0 .361-.173.361-.382V7.82c0-.21-.162-.383-.361-.383H1.448c-.2 0-.362.172-.362.383zm0 3.13c0 .212.162.383.362.383H2.58c.199 0 .361-.171.361-.383v-1.23c0-.212-.162-.384-.361-.384H1.448c-.2 0-.362.172-.362.383zm0 3.131c0 .21.162.381.362.381H2.58a.372.372 0 00.361-.38V14.08c0-.211-.162-.383-.361-.383H1.448c-.2 0-.362.172-.362.383zm0 3.132c0 .21.162.381.362.381H2.58a.373.373 0 00.361-.381V17.21a.373.373 0 00-.361-.382H1.448c-.2 0-.362.172-.362.382z"/><path d="M-.003 18.726V1.273c0-.7.542-1.274 1.208-1.274h15.59c.664 0 1.207.574 1.207 1.274v17.453c0 .7-.543 1.274-1.207 1.274H1.205c-.666 0-1.208-.574-1.208-1.274zm15.06-15.939c0 .212.165.383.363.383h1.131c.2 0 .362-.171.362-.383v-1.23a.372.372 0 00-.362-.382H15.42a.373.373 0 00-.363.382zm0 3.131c0 .21.165.383.363.383h1.131c.2 0 .362-.172.362-.383v-1.23a.373.373 0 00-.362-.383H15.42a.374.374 0 00-.363.383zm0 3.133c0 .21.165.382.363.382h1.131c.2 0 .362-.173.362-.382V7.82c0-.21-.162-.383-.362-.383H15.42a.375.375 0 00-.363.383zm0 3.13c0 .212.165.383.363.383h1.131c.2 0 .362-.171.362-.383v-1.23c0-.212-.162-.384-.362-.384H15.42a.375.375 0 00-.363.383zm0 3.131c0 .21.165.381.363.381h1.131c.2 0 .362-.17.362-.38V14.08a.372.372 0 00-.362-.383H15.42a.374.374 0 00-.363.383zm0 3.132c0 .21.165.381.363.381h1.131c.2 0 .362-.172.362-.381V17.21a.372.372 0 00-.362-.382H15.42a.374.374 0 00-.363.382zM4.183 8.574c0 .21.163.383.363.383h8.908c.198 0 .362-.173.362-.383V2.481a.373.373 0 00-.362-.382H4.546c-.2 0-.363.17-.363.382zm0 8.936c0 .21.163.382.363.382h8.908a.374.374 0 00.362-.382v-5.633a.373.373 0 00-.362-.38H4.546c-.2 0-.363.17-.363.38zM1.086 2.787c0 .212.162.383.362.383H2.58a.373.373 0 00.361-.383v-1.23a.372.372 0 00-.361-.382H1.448c-.2 0-.362.17-.362.382zm0 3.131c0 .21.162.383.362.383H2.58c.199 0 .361-.172.361-.383v-1.23c0-.212-.162-.383-.361-.383H1.448c-.2 0-.362.171-.362.383zm0 3.133c0 .21.162.382.362.382H2.58c.199 0 .361-.173.361-.382V7.82c0-.21-.162-.383-.361-.383H1.448c-.2 0-.362.172-.362.383zm0 3.13c0 .212.162.383.362.383H2.58c.199 0 .361-.171.361-.383v-1.23c0-.212-.162-.384-.361-.384H1.448c-.2 0-.362.172-.362.383zm0 3.131c0 .21.162.381.362.381H2.58a.372.372 0 00.361-.38V14.08c0-.211-.162-.383-.361-.383H1.448c-.2 0-.362.172-.362.383zm0 3.132c0 .21.162.381.362.381H2.58a.373.373 0 00.361-.381V17.21a.373.373 0 00-.361-.382H1.448c-.2 0-.362.172-.362.382z"/></symbol><symbol viewBox="0 0 103.84 60.56" id="logo" xmlns="http://www.w3.org/2000/svg"><text transform="translate(0 42.42)" font-size="56" font-family="Axis"><tspan letter-spacing="-.01em">e</tspan><tspan x="33.82" y="0" letter-spacing="-.05em">x</tspan><tspan x="64.29" y="0" letter-spacing="0">e</tspan></text><path d="M24.88 11.13H13.41l-2.2-5.38h10.58l3.09 5.38z"/></symbol></svg>